Rosario-SemiBold.ufo
<glyph name="exclam" format="2">
  <advance width="329.0"/>
  <unicode hex="0021"/>
  <note>
exclam
</note>
  <outline>
    <contour>
      <point x="103.47368421052632" y="729.6842105263158" type="line"/>
      <point x="132.47368421052633" y="217.8421052631579" type="line"/>
      <point x="204.52631578947367" y="217.8421052631579" type="line"/>
      <point x="233.52631578947367" y="729.6842105263158" type="line"/>
    </contour>
    <contour>
      <point x="238.57894736842104" y="56.78947368421053" type="curve" smooth="yes"/>
      <point x="238.57894736842104" y="94.89473684210526"/>
      <point x="206.89473684210526" y="126.15789473684211"/>
      <point x="168.78947368421052" y="126.15789473684211" type="curve" smooth="yes"/>
      <point x="130.52631578947367" y="126.15789473684211"/>
      <point x="99.42105263157895" y="95.05263157894737"/>
      <point x="99.42105263157895" y="56.78947368421053" type="curve" smooth="yes"/>
      <point x="99.42105263157895" y="18.684210526315788"/>
      <point x="131.10526315789474" y="-12.578947368421053"/>
      <point x="168.78947368421052" y="-12.578947368421053" type="curve" smooth="yes"/>
      <point x="206.89473684210526" y="-12.578947368421053"/>
      <point x="238.57894736842104" y="18.684210526315788"/>
    </contour>
  </outline>
</glyph>
<glyph name="quotedbl" format="2">
  <advance width="367.0"/>
  <unicode hex="0022"/>
  <note>
quotedbl
</note>
  <outline>
    <contour>
      <point x="97.6842105263158" y="444.36842105263156" type="curve"/>
      <point x="123.3157894736842" y="444.36842105263156" type="line"/>
      <point x="154.10526315789474" y="557.2631578947369" type="line"/>
      <point x="154.10526315789474" y="733.1578947368421" type="line"/>
      <point x="66.47368421052632" y="733.1578947368421" type="line"/>
      <point x="66.47368421052632" y="557.2631578947369" type="line" smooth="yes"/>
      <point x="66.47368421052632" y="555.6842105263158"/>
      <point x="95.6842105263158" y="452.94736842105266"/>
    </contour>
    <contour>
      <point x="243.68421052631578" y="444.36842105263156" type="line"/>
      <point x="269.7368421052632" y="444.36842105263156" type="line"/>
      <point x="301.10526315789474" y="557.2631578947369" type="line"/>
      <point x="301.10526315789474" y="733.1578947368421" type="line"/>
      <point x="212.89473684210526" y="733.1578947368421" type="line"/>
      <point x="212.89473684210526" y="557.2631578947369" type="line"/>
    </contour>
  </outline>
</glyph>
<glyph name="numbersign" format="2">
  <advance width="640.0"/>
  <unicode hex="0023"/>
  <note>
numbersign
</note>
  <outline>
    <contour>
      <point x="288.89473684210526" y="498.9473684210526" type="line"/>
      <point x="320.2105263157895" y="725.6315789473684" type="line"/>
      <point x="240.47368421052633" y="725.6315789473684" type="line"/>
      <point x="210.31578947368422" y="498.9473684210526" type="line"/>
      <point x="81.36842105263158" y="498.9473684210526" type="line"/>
      <point x="81.36842105263158" y="423.2631578947368" type="line"/>
      <point x="200.05263157894737" y="423.2631578947368" type="line"/>
      <point x="183.21052631578948" y="299.3157894736842" type="line"/>
      <point x="55.368421052631575" y="299.3157894736842" type="line"/>
      <point x="55.368421052631575" y="224.21052631578948" type="line"/>
      <point x="172.94736842105263" y="224.21052631578948" type="line"/>
      <point x="142.05263157894737" y="-2.8947368421052633" type="line"/>
      <point x="220.05263157894737" y="-2.8947368421052633" type="line"/>
      <point x="251.52631578947367" y="224.21052631578948" type="line"/>
      <point x="355.36842105263156" y="224.21052631578948" type="line"/>
      <point x="324.4736842105263" y="-2.8947368421052633" type="line"/>
      <point x="403.05263157894734" y="-2.8947368421052633" type="line"/>
      <point x="433.94736842105266" y="224.21052631578948" type="line"/>
      <point x="560.6315789473684" y="224.21052631578948" type="line"/>
      <point x="560.6315789473684" y="299.3157894736842" type="line"/>
      <point x="444.2105263157895" y="299.3157894736842" type="line"/>
      <point x="461.63157894736844" y="423.2631578947368" type="line"/>
      <point x="585.4736842105264" y="423.2631578947368" type="line"/>
      <point x="585.4736842105264" y="498.9473684210526" type="line"/>
      <point x="471.3157894736842" y="498.9473684210526" type="line"/>
      <point x="502.05263157894734" y="725.6315789473684" type="line"/>
      <point x="423.4736842105263" y="725.6315789473684" type="line"/>
      <point x="393.3157894736842" y="498.9473684210526" type="line"/>
    </contour>
    <contour>
      <point x="278.63157894736844" y="423.2631578947368" type="line"/>
      <point x="383.05263157894734" y="423.2631578947368" type="line"/>
      <point x="365.63157894736844" y="299.3157894736842" type="line"/>
      <point x="261.7894736842105" y="299.3157894736842" type="line"/>
    </contour>
  </outline>
</glyph>
<glyph name="dollar" format="2">
  <advance width="536.0"/>
  <unicode hex="0024"/>
  <note>
dollar
</note>
  <outline>
    <contour>
      <point x="479.7368421052632" y="644.0" type="line"/>
      <point x="419.7368421052632" y="682.5263157894736"/>
      <point x="351.7894736842105" y="700.7894736842105"/>
      <point x="287.8421052631579" y="700.7894736842105" type="curve" smooth="yes"/>
      <point x="164.21052631578948" y="700.7894736842105"/>
      <point x="56.89473684210526" y="631.421052631579"/>
      <point x="56.89473684210526" y="502.5263157894737" type="curve" smooth="yes"/>
      <point x="56.89473684210526" y="379.2631578947368"/>
      <point x="155.47368421052633" y="345.2105263157895"/>
      <point x="241.57894736842104" y="312.2105263157895" type="curve" smooth="yes"/>
      <point x="311.6842105263158" y="285.1578947368421"/>
      <point x="375.2631578947368" y="261.42105263157896"/>
      <point x="375.2631578947368" y="187.10526315789474" type="curve" smooth="yes"/>
      <point x="375.2631578947368" y="109.73684210526315"/>
      <point x="316.3157894736842" y="71.10526315789474"/>
      <point x="243.78947368421052" y="71.10526315789474" type="curve" smooth="yes"/>
      <point x="188.94736842105263" y="71.10526315789474"/>
      <point x="126.26315789473685" y="93.21052631578948"/>
      <point x="75.84210526315789" y="137.89473684210526" type="curve"/>
      <point x="35.21052631578947" y="43.68421052631579" type="line"/>
      <point x="103.36842105263158" y="6.0"/>
      <point x="177.47368421052633" y="-12.263157894736842"/>
      <point x="245.57894736842104" y="-12.263157894736842" type="curve" smooth="yes"/>
      <point x="381.63157894736844" y="-12.263157894736842"/>
      <point x="494.63157894736844" y="61.10526315789474"/>
      <point x="494.63157894736844" y="205.1578947368421" type="curve" smooth="yes"/>
      <point x="494.63157894736844" y="347.8421052631579"/>
      <point x="377.89473684210526" y="382.1578947368421"/>
      <point x="286.3157894736842" y="417.3157894736842" type="curve" smooth="yes"/>
      <point x="226.0" y="440.4736842105263"/>
      <point x="176.26315789473685" y="462.63157894736844"/>
      <point x="176.26315789473685" y="519.3684210526316" type="curve" smooth="yes"/>
      <point x="176.26315789473685" y="586.7894736842105"/>
      <point x="224.73684210526315" y="619.0"/>
      <point x="286.10526315789474" y="619.0" type="curve" smooth="yes"/>
      <point x="330.6842105263158" y="619.0"/>
      <point x="381.2631578947368" y="602.1578947368421"/>
      <point x="424.05263157894734" y="569.0" type="curve"/>
    </contour>
    <contour>
      <point x="280.57894736842104" y="25.63157894736842" type="line"/>
      <point x="227.0" y="25.63157894736842" type="line"/>
      <point x="184.73684210526315" y="-133.78947368421052" type="line"/>
      <point x="265.1578947368421" y="-133.78947368421052" type="line"/>
    </contour>
    <contour>
      <point x="254.3684210526316" y="670.5263157894736" type="line"/>
      <point x="310.7894736842105" y="670.5263157894736" type="line"/>
      <point x="350.36842105263156" y="821.2631578947369" type="line"/>
      <point x="267.94736842105266" y="821.2631578947369" type="line"/>
    </contour>
  </outline>
</glyph>
<glyph name="percent" format="2">
  <advance width="940.6842105263158"/>
  <unicode hex="0025"/>
  <note>
percent
</note>
  <outline>
    <contour>
      <point x="619.3157894736842" y="730.8421052631579" type="line"/>
      <point x="247.1578947368421" y="-4.052631578947368" type="line"/>
      <point x="323.36842105263156" y="-4.052631578947368" type="line"/>
      <point x="697.1052631578947" y="730.8421052631579" type="line"/>
    </contour>
    <contour>
      <point x="222.42105263157896" y="730.8421052631579" type="curve" smooth="yes"/>
      <point x="104.57894736842105" y="730.8421052631579"/>
      <point x="46.368421052631575" y="639.3684210526316"/>
      <point x="46.368421052631575" y="520.421052631579" type="curve" smooth="yes"/>
      <point x="46.368421052631575" y="403.3157894736842"/>
      <point x="97.26315789473685" y="308.57894736842104"/>
      <point x="213.26315789473685" y="308.57894736842104" type="curve" smooth="yes"/>
      <point x="329.8421052631579" y="308.57894736842104"/>
      <point x="388.89473684210526" y="403.3157894736842"/>
      <point x="388.89473684210526" y="520.421052631579" type="curve" smooth="yes"/>
      <point x="388.89473684210526" y="638.3684210526316"/>
      <point x="340.2631578947368" y="730.8421052631579"/>
    </contour>
    <contour>
      <point x="217.8421052631579" y="669.578947368421" type="curve" smooth="yes"/>
      <point x="297.5263157894737" y="669.578947368421"/>
      <point x="310.10526315789474" y="588.6842105263158"/>
      <point x="310.10526315789474" y="520.421052631579" type="curve" smooth="yes"/>
      <point x="310.10526315789474" y="450.3157894736842"/>
      <point x="298.7894736842105" y="370.42105263157896"/>
      <point x="217.8421052631579" y="370.42105263157896" type="curve" smooth="yes"/>
      <point x="137.4736842105263" y="370.42105263157896"/>
      <point x="124.57894736842105" y="450.3157894736842"/>
      <point x="124.57894736842105" y="520.421052631579" type="curve" smooth="yes"/>
      <point x="124.57894736842105" y="587.6842105263158"/>
      <point x="140.1578947368421" y="669.578947368421"/>
    </contour>
    <contour>
      <point x="727.8421052631579" y="412.2631578947368" type="curve" smooth="yes"/>
      <point x="610.0" y="412.2631578947368"/>
      <point x="551.7894736842105" y="320.7894736842105"/>
      <point x="551.7894736842105" y="201.8421052631579" type="curve" smooth="yes"/>
      <point x="551.7894736842105" y="84.73684210526316"/>
      <point x="602.6842105263158" y="-10.0"/>
      <point x="718.6842105263158" y="-10.0" type="curve" smooth="yes"/>
      <point x="835.2631578947369" y="-10.0"/>
      <point x="894.3157894736842" y="84.73684210526316"/>
      <point x="894.3157894736842" y="201.8421052631579" type="curve" smooth="yes"/>
      <point x="894.3157894736842" y="319.7894736842105"/>
      <point x="845.6842105263158" y="412.2631578947368"/>
    </contour>
    <contour>
      <point x="723.2631578947369" y="350.42105263157896" type="curve" smooth="yes"/>
      <point x="802.9473684210526" y="350.42105263157896"/>
      <point x="815.5263157894736" y="270.10526315789474"/>
      <point x="815.5263157894736" y="201.8421052631579" type="curve" smooth="yes"/>
      <point x="815.5263157894736" y="131.73684210526315"/>
      <point x="804.2105263157895" y="51.84210526315789"/>
      <point x="723.2631578947369" y="51.84210526315789" type="curve" smooth="yes"/>
      <point x="642.8947368421052" y="51.84210526315789"/>
      <point x="630.0" y="131.73684210526315"/>
      <point x="630.0" y="201.8421052631579" type="curve" smooth="yes"/>
      <point x="630.0" y="269.10526315789474"/>
      <point x="645.578947368421" y="350.42105263157896"/>
    </contour>
    <contour>
      <point x="222.42105263157896" y="730.8421052631579" type="line"/>
      <point x="217.8421052631579" y="669.578947368421" type="line"/>
      <point x="634.0" y="669.578947368421" type="line"/>
      <point x="634.0" y="730.8421052631579" type="line"/>
    </contour>
  </outline>
</glyph>
<glyph name="ampersand" format="2">
  <advance width="661.0"/>
  <unicode hex="0026"/>
  <note>
ampersand
</note>
  <outline>
    <contour>
      <point x="591.2105263157895" y="323.2105263157895" type="curve"/>
      <point x="508.8421052631579" y="340.57894736842104" type="line"/>
      <point x="476.6842105263158" y="153.78947368421052"/>
      <point x="358.0526315789474" y="60.89473684210526"/>
      <point x="253.47368421052633" y="60.89473684210526" type="curve" smooth="yes"/>
      <point x="172.31578947368422" y="60.89473684210526"/>
      <point x="126.21052631578948" y="128.42105263157896"/>
      <point x="126.21052631578948" y="201.68421052631578" type="curve" smooth="yes"/>
      <point x="126.21052631578948" y="274.2105263157895"/>
      <point x="165.26315789473685" y="325.10526315789474"/>
      <point x="231.10526315789474" y="348.6842105263158" type="curve"/>
      <point x="207.21052631578948" y="415.1578947368421" type="line"/>
      <point x="85.0" y="368.94736842105266"/>
      <point x="20.842105263157897" y="282.7894736842105"/>
      <point x="20.842105263157897" y="184.57894736842104" type="curve" smooth="yes"/>
      <point x="20.842105263157897" y="78.94736842105263"/>
      <point x="98.42105263157895" y="-9.0"/>
      <point x="235.6315789473684" y="-9.0" type="curve" smooth="yes"/>
      <point x="406.6842105263158" y="-9.0"/>
      <point x="528.6315789473684" y="105.10526315789474"/>
    </contour>
    <contour>
      <point x="669.6842105263158" y="-2.4210526315789473" type="curve"/>
      <point x="659.1052631578947" y="75.3157894736842" type="line"/>
      <point x="639.0" y="71.05263157894737"/>
      <point x="619.3157894736842" y="68.63157894736842"/>
      <point x="600.4736842105264" y="68.63157894736842" type="curve" smooth="yes"/>
      <point x="544.8947368421053" y="68.63157894736842"/>
      <point x="492.8421052631579" y="86.89473684210526"/>
      <point x="443.36842105263156" y="122.3157894736842" type="curve" smooth="yes"/>
      <point x="328.57894736842104" y="203.57894736842104"/>
      <point x="231.8421052631579" y="372.0"/>
      <point x="231.8421052631579" y="542.0526315789474" type="curve" smooth="yes"/>
      <point x="231.8421052631579" y="624.2105263157895"/>
      <point x="252.73684210526315" y="669.7894736842105"/>
      <point x="295.7894736842105" y="669.7894736842105" type="curve" smooth="yes"/>
      <point x="326.8421052631579" y="669.7894736842105"/>
      <point x="341.0" y="644.8947368421053"/>
      <point x="341.0" y="603.9473684210526" type="curve" smooth="yes"/>
      <point x="341.0" y="544.0526315789474"/>
      <point x="306.5263157894737" y="452.89473684210526"/>
      <point x="215.21052631578948" y="417.42105263157896" type="curve"/>
      <point x="235.3684210526316" y="350.2631578947368" type="line"/>
      <point x="369.1578947368421" y="406.0526315789474"/>
      <point x="436.7368421052632" y="518.0526315789474"/>
      <point x="436.7368421052632" y="611.6315789473684" type="curve" smooth="yes"/>
      <point x="436.7368421052632" y="689.1052631578947"/>
      <point x="385.05263157894734" y="740.1052631578947"/>
      <point x="301.7894736842105" y="740.1052631578947" type="curve" smooth="yes"/>
      <point x="197.31578947368422" y="740.1052631578947"/>
      <point x="128.89473684210526" y="656.1578947368421"/>
      <point x="128.89473684210526" y="524.9473684210526" type="curve" smooth="yes"/>
      <point x="128.89473684210526" y="340.4736842105263"/>
      <point x="236.57894736842104" y="153.05263157894737"/>
      <point x="369.57894736842104" y="58.1578947368421" type="curve" smooth="yes"/>
      <point x="431.8421052631579" y="13.736842105263158"/>
      <point x="507.0" y="-8.842105263157894"/>
      <point x="594.7894736842105" y="-8.842105263157894" type="curve" smooth="yes"/>
      <point x="618.4736842105264" y="-8.842105263157894"/>
      <point x="643.1578947368421" y="-6.842105263157895"/>
    </contour>
  </outline>
</glyph>
<glyph name="quotesingle" format="2">
  <advance width="226.0"/>
  <unicode hex="0027"/>
  <note>
quotesingle
</note>
  <outline>
    <contour>
      <point x="98.84210526315789" y="446.6842105263158" type="curve"/>
      <point x="124.47368421052632" y="446.6842105263158" type="line"/>
      <point x="155.8421052631579" y="559.578947368421" type="line"/>
      <point x="155.8421052631579" y="735.4736842105264" type="line"/>
      <point x="67.63157894736842" y="735.4736842105264" type="line"/>
      <point x="67.63157894736842" y="559.578947368421" type="line" smooth="yes"/>
      <point x="67.63157894736842" y="558.0"/>
      <point x="96.84210526315789" y="455.2631578947368"/>
    </contour>
  </outline>
</glyph>
<glyph name="parenleft" format="2">
  <advance width="306.0"/>
  <unicode hex="0028"/>
  <note>
parenleft
</note>
  <outline>
    <contour>
      <point x="221.3684210526316" y="-141.3684210526316" type="curve"/>
      <point x="300.1578947368421" y="-129.42105263157896" type="line"/>
      <point x="192.78947368421052" y="0.6842105263157894"/>
      <point x="141.68421052631578" y="132.5263157894737"/>
      <point x="141.68421052631578" y="300.3157894736842" type="curve" smooth="yes"/>
      <point x="141.68421052631578" y="468.10526315789474"/>
      <point x="192.78947368421052" y="599.9473684210526"/>
      <point x="300.1578947368421" y="730.4736842105264" type="curve"/>
      <point x="221.3684210526316" y="743.0" type="line"/>
      <point x="112.26315789473684" y="619.578947368421"/>
      <point x="40.21052631578947" y="466.8421052631579"/>
      <point x="40.21052631578947" y="300.3157894736842" type="curve" smooth="yes"/>
      <point x="40.21052631578947" y="133.78947368421052"/>
      <point x="112.84210526315789" y="-17.94736842105263"/>
    </contour>
  </outline>
</glyph>
<glyph name="parenright" format="2">
  <advance width="306.0"/>
  <unicode hex="0029"/>
  <note>
parenright
</note>
  <outline>
    <contour>
      <point x="277.1578947368421" y="300.3157894736842" type="curve" smooth="yes"/>
      <point x="277.1578947368421" y="466.8421052631579"/>
      <point x="205.10526315789474" y="619.578947368421"/>
      <point x="96.0" y="743.0" type="curve"/>
      <point x="17.210526315789473" y="730.4736842105264" type="line"/>
      <point x="124.0" y="599.9473684210526"/>
      <point x="176.26315789473685" y="468.6842105263158"/>
      <point x="176.26315789473685" y="300.3157894736842" type="curve" smooth="yes"/>
      <point x="176.26315789473685" y="131.94736842105263"/>
      <point x="124.0" y="0.6842105263157894"/>
      <point x="17.210526315789473" y="-129.42105263157896" type="curve"/>
      <point x="96.0" y="-141.3684210526316" type="line"/>
      <point x="204.52631578947367" y="-17.94736842105263"/>
      <point x="277.1578947368421" y="133.78947368421052"/>
    </contour>
  </outline>
</glyph>
<glyph name="asterisk" format="2">
  <advance width="510.0"/>
  <unicode hex="002A"/>
  <note>
asterisk
</note>
  <outline>
    <contour>
      <point x="205.68421052631578" y="735.2105263157895" type="line"/>
      <point x="229.47368421052633" y="588.4736842105264" type="line"/>
      <point x="277.63157894736844" y="588.4736842105264" type="line"/>
      <point x="297.57894736842104" y="735.2105263157895" type="line"/>
    </contour>
    <contour>
      <point x="285.7368421052632" y="583.8421052631579" type="line"/>
      <point x="300.8421052631579" y="535.5263157894736" type="line"/>
      <point x="445.8421052631579" y="563.5263157894736" type="line"/>
      <point x="411.7894736842105" y="654.1578947368421" type="line"/>
    </contour>
    <contour>
      <point x="90.05263157894737" y="649.7368421052631" type="line"/>
      <point x="65.26315789473685" y="560.6842105263158" type="line"/>
      <point x="208.0" y="539.6842105263158" type="line"/>
      <point x="223.10526315789474" y="583.2631578947369" type="line"/>
    </contour>
    <contour>
      <point x="210.31578947368422" y="530.421052631579" type="line"/>
      <point x="108.57894736842105" y="423.05263157894734" type="line"/>
      <point x="180.94736842105263" y="370.4736842105263" type="line"/>
      <point x="249.78947368421052" y="499.63157894736844" type="line"/>
    </contour>
    <contour>
      <point x="258.4736842105263" y="499.63157894736844" type="line"/>
      <point x="327.7368421052632" y="367.63157894736844" type="line"/>
      <point x="401.6842105263158" y="425.3157894736842" type="line"/>
      <point x="297.36842105263156" y="526.8421052631579" type="line"/>
    </contour>
  </outline>
</glyph>
<glyph name="plus" format="2">
  <advance width="642.0"/>
  <unicode hex="002B"/>
  <note>
plus
</note>
  <outline>
    <contour>
      <point x="355.36842105263156" y="0.0" type="line"/>
      <point x="355.36842105263156" y="210.78947368421052" type="line"/>
      <point x="566.1578947368421" y="210.78947368421052" type="line"/>
      <point x="566.1578947368421" y="287.2105263157895" type="line"/>
      <point x="355.36842105263156" y="287.2105263157895" type="line"/>
      <point x="355.36842105263156" y="497.0" type="line"/>
      <point x="277.7894736842105" y="497.0" type="line"/>
      <point x="277.7894736842105" y="286.7894736842105" type="line"/>
      <point x="67.57894736842105" y="286.7894736842105" type="line"/>
      <point x="67.57894736842105" y="210.3684210526316" type="line"/>
      <point x="277.7894736842105" y="210.3684210526316" type="line"/>
      <point x="277.7894736842105" y="0.0" type="line"/>
    </contour>
  </outline>
</glyph>
<glyph name="comma" format="2">
  <advance width="235.0"/>
  <unicode hex="002C"/>
  <note>
comma
</note>
  <outline>
    <contour>
      <point x="105.47368421052632" y="130.31578947368422" type="curve" smooth="yes"/>
      <point x="69.36842105263158" y="130.31578947368422"/>
      <point x="40.526315789473685" y="101.78947368421052"/>
      <point x="40.526315789473685" y="66.10526315789474" type="curve" smooth="yes"/>
      <point x="40.526315789473685" y="14.0"/>
      <point x="89.6842105263158" y="5.0"/>
      <point x="89.6842105263158" y="-21.157894736842106" type="curve" smooth="yes"/>
      <point x="89.6842105263158" y="-45.05263157894737"/>
      <point x="58.526315789473685" y="-76.26315789473684"/>
      <point x="41.94736842105263" y="-93.0" type="curve"/>
      <point x="52.78947368421053" y="-105.26315789473684"/>
      <point x="66.21052631578948" y="-118.6842105263158"/>
      <point x="78.05263157894737" y="-129.94736842105263" type="curve"/>
      <point x="133.73684210526315" y="-89.6842105263158"/>
      <point x="183.0" y="-29.57894736842105"/>
      <point x="183.0" y="41.94736842105263" type="curve" smooth="yes"/>
      <point x="183.0" y="88.21052631578948"/>
      <point x="155.1578947368421" y="130.31578947368422"/>
    </contour>
  </outline>
</glyph>
<glyph name="hyphen" format="2">
  <advance width="313.0"/>
  <unicode hex="002D"/>
  <note>
hyphen
</note>
  <outline>
    <contour>
      <point x="44.368421052631575" y="301.5263157894737" type="line"/>
      <point x="44.368421052631575" y="218.10526315789474" type="line"/>
      <point x="271.1578947368421" y="218.10526315789474" type="line"/>
      <point x="271.1578947368421" y="301.5263157894737" type="line"/>
    </contour>
  </outline>
</glyph>
<glyph name="period" format="2">
  <advance width="228.0"/>
  <unicode hex="002E"/>
  <note>
period
</note>
  <outline>
    <contour>
      <point x="177.78947368421052" y="59.78947368421053" type="curve" smooth="yes"/>
      <point x="177.78947368421052" y="98.73684210526315"/>
      <point x="146.10526315789474" y="130.8421052631579"/>
      <point x="107.15789473684211" y="130.8421052631579" type="curve" smooth="yes"/>
      <point x="67.63157894736842" y="130.8421052631579"/>
      <point x="36.526315789473685" y="99.3157894736842"/>
      <point x="36.526315789473685" y="59.78947368421053" type="curve" smooth="yes"/>
      <point x="36.526315789473685" y="21.263157894736842"/>
      <point x="68.21052631578948" y="-10.842105263157894"/>
      <point x="107.15789473684211" y="-10.842105263157894" type="curve" smooth="yes"/>
      <point x="146.10526315789474" y="-10.842105263157894"/>
      <point x="177.78947368421052" y="21.263157894736842"/>
    </contour>
  </outline>
</glyph>
<glyph name="slash" format="2">
  <advance width="326.0"/>
  <unicode hex="002F"/>
  <note>
slash
</note>
  <outline>
    <contour>
      <point x="258.5263157894737" y="729.1052631578947" type="line"/>
      <point x="-10.473684210526315" y="-5.210526315789474" type="line"/>
      <point x="68.63157894736842" y="-5.210526315789474" type="line"/>
      <point x="336.89473684210526" y="729.1052631578947" type="line"/>
    </contour>
  </outline>
</glyph>
<glyph name="zero" format="2">
  <advance width="573.2631578947369"/>
  <unicode hex="0030"/>
  <note>
zero
</note>
  <outline>
    <contour>
      <point x="292.2105263157895" y="509.42105263157896" type="curve" smooth="yes"/>
      <point x="135.78947368421052" y="509.42105263157896"/>
      <point x="41.8421052631579" y="400.7894736842105"/>
      <point x="41.8421052631579" y="248.42105263157896" type="curve" smooth="yes"/>
      <point x="41.8421052631579" y="98.3157894736842"/>
      <point x="126.89473684210526" y="-12.578947368421053"/>
      <point x="281.05263157894734" y="-12.578947368421053" type="curve" smooth="yes"/>
      <point x="435.2105263157895" y="-12.578947368421053"/>
      <point x="531.421052631579" y="98.3157894736842"/>
      <point x="531.421052631579" y="248.42105263157896" type="curve" smooth="yes"/>
      <point x="531.421052631579" y="399.7894736842105"/>
      <point x="447.63157894736844" y="509.42105263157896"/>
    </contour>
    <contour>
      <point x="286.63157894736844" y="438.8421052631579" type="curve" smooth="yes"/>
      <point x="395.2105263157895" y="438.8421052631579"/>
      <point x="423.1578947368421" y="338.57894736842104"/>
      <point x="423.1578947368421" y="248.42105263157896" type="curve" smooth="yes"/>
      <point x="423.1578947368421" y="157.0"/>
      <point x="397.3157894736842" y="58.0"/>
      <point x="286.63157894736844" y="58.0" type="curve" smooth="yes"/>
      <point x="176.94736842105263" y="58.0"/>
      <point x="149.10526315789474" y="157.0"/>
      <point x="149.10526315789474" y="248.42105263157896" type="curve" smooth="yes"/>
      <point x="149.10526315789474" y="337.57894736842104"/>
      <point x="180.05263157894737" y="438.8421052631579"/>
    </contour>
  </outline>
</glyph>
<glyph name="one" format="2">
  <advance width="387.8421052631579"/>
  <unicode hex="0031"/>
  <note>
one
</note>
  <outline>
    <contour>
      <point x="45.31578947368421" y="80.47368421052632" type="line"/>
      <point x="45.31578947368421" y="-0.5789473684210527" type="line"/>
      <point x="367.1578947368421" y="-0.5789473684210527" type="line"/>
      <point x="367.1578947368421" y="80.47368421052632" type="line"/>
      <point x="257.9473684210526" y="80.47368421052632" type="line"/>
      <point x="257.9473684210526" y="497.42105263157896" type="line"/>
      <point x="196.1578947368421" y="497.42105263157896" type="line"/>
      <point x="24.315789473684212" y="413.57894736842104" type="line"/>
      <point x="43.578947368421055" y="359.42105263157896" type="line"/>
      <point x="158.94736842105263" y="393.0526315789474" type="line"/>
      <point x="158.94736842105263" y="80.47368421052632" type="line"/>
    </contour>
  </outline>
</glyph>
<glyph name="two" format="2">
  <advance width="467.6842105263158"/>
  <unicode hex="0032"/>
  <note>
two
</note>
  <guideline x="439.7894736842105" y="435.4736842105263" angle="0.0"/>
  <outline>
    <contour>
      <point x="250.94736842105263" y="510.2631578947368" type="curve" smooth="yes"/>
      <point x="180.42105263157896" y="510.2631578947368"/>
      <point x="108.73684210526315" y="487.3157894736842"/>
      <point x="42.421052631578945" y="435.2631578947368" type="curve"/>
      <point x="93.73684210526316" y="370.0526315789474" type="line"/>
      <point x="133.10526315789474" y="407.10526315789474"/>
      <point x="190.78947368421052" y="434.2105263157895"/>
      <point x="235.05263157894737" y="434.2105263157895" type="curve" smooth="yes"/>
      <point x="271.94736842105266" y="434.2105263157895"/>
      <point x="299.2631578947368" y="415.3157894736842"/>
      <point x="299.2631578947368" y="367.2631578947368" type="curve" smooth="yes"/>
      <point x="299.2631578947368" y="290.6842105263158"/>
      <point x="226.05263157894737" y="194.73684210526315"/>
      <point x="29.736842105263158" y="65.42105263157895" type="curve"/>
      <point x="29.736842105263158" y="-0.5789473684210527" type="line"/>
      <point x="414.6842105263158" y="-0.5789473684210527" type="line"/>
      <point x="435.10526315789474" y="81.05263157894737" type="line"/>
      <point x="178.73684210526315" y="81.05263157894737" type="line"/>
      <point x="306.3157894736842" y="170.1578947368421"/>
      <point x="409.8421052631579" y="264.3157894736842"/>
      <point x="409.8421052631579" y="380.7894736842105" type="curve" smooth="yes"/>
      <point x="409.8421052631579" y="471.1578947368421"/>
      <point x="336.57894736842104" y="510.2631578947368"/>
    </contour>
  </outline>
</glyph>
<glyph name="three" format="2">
  <advance width="408.8421052631579"/>
  <unicode hex="0033"/>
  <note>
three
</note>
  <outline>
    <contour>
      <point x="221.68421052631578" y="510.8421052631579" type="curve" smooth="yes"/>
      <point x="156.1578947368421" y="510.8421052631579"/>
      <point x="79.94736842105263" y="485.8421052631579"/>
      <point x="20.736842105263158" y="438.1578947368421" type="curve"/>
      <point x="71.47368421052632" y="370.63157894736844" type="line"/>
      <point x="102.89473684210526" y="407.63157894736844"/>
      <point x="160.89473684210526" y="434.63157894736844"/>
      <point x="203.3684210526316" y="434.63157894736844" type="curve" smooth="yes"/>
      <point x="239.47368421052633" y="434.63157894736844"/>
      <point x="257.2105263157895" y="415.57894736842104"/>
      <point x="257.2105263157895" y="384.0" type="curve" smooth="yes"/>
      <point x="257.2105263157895" y="310.42105263157896"/>
      <point x="167.5263157894737" y="227.42105263157896"/>
      <point x="76.73684210526316" y="189.73684210526315" type="curve"/>
      <point x="102.6842105263158" y="137.5263157894737" type="line"/>
      <point x="123.84210526315789" y="144.94736842105263"/>
      <point x="145.42105263157896" y="148.94736842105263"/>
      <point x="164.42105263157896" y="148.94736842105263" type="curve" smooth="yes"/>
      <point x="218.73684210526315" y="148.94736842105263"/>
      <point x="261.1578947368421" y="118.63157894736842"/>
      <point x="261.1578947368421" y="54.8421052631579" type="curve" smooth="yes"/>
      <point x="261.1578947368421" y="-92.94736842105263"/>
      <point x="103.3157894736842" y="-137.8421052631579"/>
      <point x="-49.10526315789474" y="-146.5263157894737" type="curve"/>
      <point x="-44.10526315789474" y="-196.8421052631579" type="line"/>
      <point x="159.4736842105263" y="-199.73684210526315"/>
      <point x="372.3157894736842" y="-124.21052631578948"/>
      <point x="372.3157894736842" y="59.421052631578945" type="curve" smooth="yes"/>
      <point x="372.3157894736842" y="156.0"/>
      <point x="289.1578947368421" y="199.57894736842104"/>
      <point x="217.57894736842104" y="201.31578947368422" type="curve"/>
      <point x="306.94736842105266" y="252.94736842105263"/>
      <point x="362.9473684210526" y="323.1578947368421"/>
      <point x="362.9473684210526" y="400.8421052631579" type="curve" smooth="yes"/>
      <point x="362.9473684210526" y="470.89473684210526"/>
      <point x="310.05263157894734" y="510.8421052631579"/>
    </contour>
  </outline>
</glyph>
<glyph name="four" format="2">
  <advance width="475.9473684210526"/>
  <unicode hex="0034"/>
  <note>
four
</note>
  <outline>
    <contour>
      <point x="257.8421052631579" y="498.0" type="line"/>
      <point x="-2.947368421052632" y="47.1578947368421" type="line"/>
      <point x="-2.947368421052632" y="-0.42105263157894735" type="line"/>
      <point x="269.05263157894734" y="-0.42105263157894735" type="line"/>
      <point x="269.05263157894734" y="-184.57894736842104" type="line"/>
      <point x="369.7368421052632" y="-184.57894736842104" type="line"/>
      <point x="369.7368421052632" y="-0.42105263157894735" type="line"/>
      <point x="451.05263157894734" y="-0.42105263157894735" type="line"/>
      <point x="473.2631578947368" y="81.63157894736842" type="line"/>
      <point x="369.7368421052632" y="81.63157894736842" type="line"/>
      <point x="369.7368421052632" y="498.0" type="line"/>
    </contour>
    <contour>
      <point x="269.05263157894734" y="377.94736842105266" type="line"/>
      <point x="269.05263157894734" y="81.63157894736842" type="line"/>
      <point x="102.10526315789474" y="81.63157894736842" type="line"/>
    </contour>
  </outline>
</glyph>
<glyph name="five" format="2">
  <advance width="382.10526315789474"/>
  <unicode hex="0035"/>
  <note>
five
</note>
  <guideline x="264.63157894736844" y="360.42105263157896" angle="90.0"/>
  <guideline x="264.63157894736844" y="360.42105263157896" angle="90.0"/>
  <outline>
    <contour>
      <point x="121.89473684210526" y="497.42105263157896" type="line"/>
      <point x="25.63157894736842" y="265.42105263157896" type="line"/>
      <point x="128.52631578947367" y="230.78947368421052"/>
      <point x="209.05263157894737" y="164.26315789473685"/>
      <point x="209.05263157894737" y="72.36842105263158" type="curve" smooth="yes"/>
      <point x="209.05263157894737" y="-61.31578947368421"/>
      <point x="116.36842105263158" y="-125.36842105263158"/>
      <point x="-15.473684210526315" y="-158.68421052631578" type="curve"/>
      <point x="-1.210526315789474" y="-208.1578947368421" type="line"/>
      <point x="164.89473684210526" y="-185.26315789473685"/>
      <point x="320.2105263157895" y="-86.15789473684211"/>
      <point x="320.2105263157895" y="80.47368421052632" type="curve" smooth="yes"/>
      <point x="320.2105263157895" y="188.78947368421052"/>
      <point x="240.26315789473685" y="258.8421052631579"/>
      <point x="123.15789473684211" y="303.4736842105263" type="curve"/>
      <point x="162.3684210526316" y="397.2631578947368" type="line"/>
      <point x="356.5263157894737" y="397.2631578947368" type="line"/>
      <point x="385.1578947368421" y="497.42105263157896" type="line"/>
    </contour>
  </outline>
</glyph>
<glyph name="six" format="2">
  <advance width="538.6315789473684"/>
  <unicode hex="0036"/>
  <note>
six
</note>
  <guideline x="443.8421052631579" y="534.1052631578947" angle="90.0"/>
  <guideline x="443.8421052631579" y="534.1052631578947" angle="90.0"/>
  <guideline x="95.36842105263159" y="534.1052631578947" angle="90.0"/>
  <guideline x="95.36842105263158" y="534.1052631578947" angle="90.0"/>
  <outline>
    <contour>
      <point x="454.5263157894737" y="731.1578947368421" type="line"/>
      <point x="242.78947368421052" y="666.5263157894736"/>
      <point x="39.78947368421053" y="472.57894736842104"/>
      <point x="39.78947368421053" y="237.94736842105263" type="curve" smooth="yes"/>
      <point x="39.78947368421053" y="66.84210526315789"/>
      <point x="146.73684210526315" y="-12.578947368421053"/>
      <point x="264.05263157894734" y="-12.578947368421053" type="curve" smooth="yes"/>
      <point x="418.63157894736844" y="-12.578947368421053"/>
      <point x="499.42105263157896" y="107.78947368421052"/>
      <point x="499.42105263157896" y="220.31578947368422" type="curve" smooth="yes"/>
      <point x="499.42105263157896" y="319.1578947368421"/>
      <point x="436.57894736842104" y="411.7368421052632"/>
      <point x="305.63157894736844" y="411.7368421052632" type="curve" smooth="yes"/>
      <point x="256.7368421052632" y="411.7368421052632"/>
      <point x="203.10526315789474" y="395.2631578947368"/>
      <point x="157.42105263157896" y="360.3157894736842" type="curve"/>
      <point x="144.1578947368421" y="287.89473684210526" type="line"/>
      <point x="188.21052631578948" y="320.6842105263158"/>
      <point x="234.0" y="336.57894736842104"/>
      <point x="274.2105263157895" y="336.57894736842104" type="curve" smooth="yes"/>
      <point x="351.94736842105266" y="336.57894736842104"/>
      <point x="388.2631578947368" y="271.94736842105266"/>
      <point x="388.2631578947368" y="205.31578947368422" type="curve" smooth="yes"/>
      <point x="388.2631578947368" y="133.0"/>
      <point x="347.5263157894737" y="58.84210526315789"/>
      <point x="270.36842105263156" y="58.84210526315789" type="curve" smooth="yes"/>
      <point x="199.10526315789474" y="58.84210526315789"/>
      <point x="150.94736842105263" y="128.21052631578948"/>
      <point x="150.94736842105263" y="236.89473684210526" type="curve" smooth="yes"/>
      <point x="150.94736842105263" y="382.36842105263156"/>
      <point x="241.3684210526316" y="573.2631578947369"/>
      <point x="478.4736842105263" y="676.578947368421" type="curve"/>
    </contour>
  </outline>
</glyph>
<glyph name="seven" format="2">
  <advance width="433.42105263157896"/>
  <unicode hex="0037"/>
  <note>
seven
</note>
  <outline>
    <contour>
      <point x="35.421052631578945" y="497.0" type="line"/>
      <point x="10.368421052631579" y="406.8421052631579" type="line"/>
      <point x="321.4736842105263" y="406.8421052631579" type="line"/>
      <point x="19.526315789473685" y="-186.68421052631578" type="line"/>
      <point x="137.94736842105263" y="-186.68421052631578" type="line"/>
      <point x="418.89473684210526" y="446.1578947368421" type="line"/>
      <point x="418.89473684210526" y="497.0" type="line"/>
    </contour>
  </outline>
</glyph>
<glyph name="eight" format="2">
  <advance width="490.7368421052632"/>
  <unicode hex="0038"/>
  <note>
eight
</note>
  <guideline x="396.57894736842104" y="534.1052631578947" angle="90.0"/>
  <guideline x="396.57894736842104" y="531.578947368421" angle="90.0"/>
  <guideline x="115.15789473684211" y="531.578947368421" angle="90.0"/>
  <guideline x="115.15789473684211" y="531.578947368421" angle="90.0"/>
  <outline>
    <contour>
      <point x="253.73684210526315" y="730.2631578947369" type="curve" smooth="yes"/>
      <point x="159.3684210526316" y="730.2631578947369"/>
      <point x="62.0" y="666.0526315789474"/>
      <point x="62.0" y="549.421052631579" type="curve" smooth="yes"/>
      <point x="62.0" y="451.2631578947368"/>
      <point x="124.84210526315789" y="393.4736842105263"/>
      <point x="191.68421052631578" y="344.05263157894734" type="curve" smooth="yes"/>
      <point x="263.6842105263158" y="290.4736842105263"/>
      <point x="341.0" y="252.31578947368422"/>
      <point x="341.0" y="173.68421052631578" type="curve" smooth="yes"/>
      <point x="341.0" y="97.15789473684211"/>
      <point x="289.2105263157895" y="57.0"/>
      <point x="235.05263157894737" y="57.0" type="curve" smooth="yes"/>
      <point x="181.73684210526315" y="57.0"/>
      <point x="132.78947368421052" y="95.3157894736842"/>
      <point x="132.78947368421052" y="170.78947368421052" type="curve" smooth="yes"/>
      <point x="132.78947368421052" y="222.94736842105263"/>
      <point x="151.94736842105263" y="280.57894736842104"/>
      <point x="231.89473684210526" y="330.2105263157895" type="curve"/>
      <point x="183.47368421052633" y="377.63157894736844" type="line"/>
      <point x="87.78947368421052" y="319.0"/>
      <point x="38.578947368421055" y="251.3684210526316"/>
      <point x="38.578947368421055" y="167.78947368421052" type="curve" smooth="yes"/>
      <point x="38.578947368421055" y="49.8421052631579"/>
      <point x="136.05263157894737" y="-10.842105263157894"/>
      <point x="238.26315789473685" y="-11.421052631578947" type="curve" smooth="yes"/>
      <point x="345.4736842105263" y="-12.0"/>
      <point x="452.1578947368421" y="52.578947368421055"/>
      <point x="452.1578947368421" y="183.26315789473685" type="curve" smooth="yes"/>
      <point x="452.1578947368421" y="305.4736842105263"/>
      <point x="360.05263157894734" y="361.89473684210526"/>
      <point x="282.36842105263156" y="416.42105263157896" type="curve" smooth="yes"/>
      <point x="222.89473684210526" y="458.1578947368421"/>
      <point x="169.57894736842104" y="490.4736842105263"/>
      <point x="169.57894736842104" y="560.2631578947369" type="curve" smooth="yes"/>
      <point x="169.57894736842104" y="627.6842105263158"/>
      <point x="210.68421052631578" y="663.421052631579"/>
      <point x="255.42105263157896" y="663.421052631579" type="curve" smooth="yes"/>
      <point x="298.1578947368421" y="663.421052631579"/>
      <point x="335.42105263157896" y="631.3684210526316"/>
      <point x="335.42105263157896" y="566.421052631579" type="curve" smooth="yes"/>
      <point x="335.42105263157896" y="516.3684210526316"/>
      <point x="306.94736842105266" y="462.1578947368421"/>
      <point x="252.26315789473685" y="429.2105263157895" type="curve"/>
      <point x="304.1578947368421" y="383.05263157894734" type="line"/>
      <point x="386.3157894736842" y="436.4736842105263"/>
      <point x="426.3157894736842" y="506.7894736842105"/>
      <point x="426.3157894736842" y="573.5263157894736" type="curve" smooth="yes"/>
      <point x="426.3157894736842" y="678.8421052631579"/>
      <point x="341.5263157894737" y="730.2631578947369"/>
    </contour>
  </outline>
</glyph>
<glyph name="nine" format="2">
  <advance width="537.4736842105264"/>
  <unicode hex="0039"/>
  <note>
nine
</note>
  <outline>
    <contour>
      <point x="273.42105263157896" y="509.8421052631579" type="curve" smooth="yes"/>
      <point x="118.84210526315789" y="509.8421052631579"/>
      <point x="38.05263157894737" y="389.4736842105263"/>
      <point x="38.05263157894737" y="276.94736842105266" type="curve" smooth="yes"/>
      <point x="38.05263157894737" y="178.10526315789474"/>
      <point x="100.89473684210526" y="85.52631578947368"/>
      <point x="231.8421052631579" y="85.52631578947368" type="curve" smooth="yes"/>
      <point x="280.7368421052632" y="85.52631578947368"/>
      <point x="334.36842105263156" y="102.0"/>
      <point x="380.05263157894734" y="136.94736842105263" type="curve"/>
      <point x="393.3157894736842" y="209.3684210526316" type="line"/>
      <point x="349.2631578947368" y="176.57894736842104"/>
      <point x="303.4736842105263" y="160.68421052631578"/>
      <point x="263.2631578947368" y="160.68421052631578" type="curve" smooth="yes"/>
      <point x="185.52631578947367" y="160.68421052631578"/>
      <point x="149.21052631578948" y="225.31578947368422"/>
      <point x="149.21052631578948" y="291.94736842105266" type="curve" smooth="yes"/>
      <point x="149.21052631578948" y="364.2631578947368"/>
      <point x="189.94736842105263" y="438.42105263157896"/>
      <point x="267.10526315789474" y="438.42105263157896" type="curve" smooth="yes"/>
      <point x="338.36842105263156" y="438.42105263157896"/>
      <point x="386.5263157894737" y="369.05263157894734"/>
      <point x="386.5263157894737" y="260.36842105263156" type="curve" smooth="yes"/>
      <point x="386.5263157894737" y="114.89473684210526"/>
      <point x="296.10526315789474" y="-64.42105263157895"/>
      <point x="59.0" y="-159.31578947368422" type="curve"/>
      <point x="82.94736842105263" y="-213.89473684210526" type="line"/>
      <point x="294.6842105263158" y="-157.68421052631578"/>
      <point x="497.6842105263158" y="24.684210526315788"/>
      <point x="497.6842105263158" y="259.3157894736842" type="curve" smooth="yes"/>
      <point x="497.6842105263158" y="430.42105263157896"/>
      <point x="390.7368421052632" y="509.8421052631579"/>
    </contour>
  </outline>
</glyph>
<glyph name="colon" format="2">
  <advance width="331.0"/>
  <unicode hex="003A"/>
  <note>
colon
</note>
  <outline>
    <contour>
      <point x="234.31578947368422" y="362.10526315789474" type="curve" smooth="yes"/>
      <point x="234.31578947368422" y="400.63157894736844"/>
      <point x="202.21052631578948" y="432.7368421052632"/>
      <point x="163.26315789473685" y="432.7368421052632" type="curve" smooth="yes"/>
      <point x="124.73684210526316" y="432.7368421052632"/>
      <point x="92.63157894736842" y="400.63157894736844"/>
      <point x="92.63157894736842" y="362.10526315789474" type="curve" smooth="yes"/>
      <point x="92.63157894736842" y="323.1578947368421"/>
      <point x="124.73684210526316" y="291.0526315789474"/>
      <point x="163.68421052631578" y="291.0526315789474" type="curve" smooth="yes"/>
      <point x="202.21052631578948" y="291.0526315789474"/>
      <point x="234.31578947368422" y="323.1578947368421"/>
    </contour>
    <contour>
      <point x="234.31578947368422" y="58.05263157894737" type="curve" smooth="yes"/>
      <point x="234.31578947368422" y="97.0"/>
      <point x="202.21052631578948" y="129.10526315789474"/>
      <point x="163.26315789473685" y="129.10526315789474" type="curve" smooth="yes"/>
      <point x="124.73684210526316" y="129.10526315789474"/>
      <point x="92.63157894736842" y="97.0"/>
      <point x="92.63157894736842" y="58.05263157894737" type="curve" smooth="yes"/>
      <point x="92.63157894736842" y="19.526315789473685"/>
      <point x="124.73684210526316" y="-12.578947368421053"/>
      <point x="163.68421052631578" y="-12.578947368421053" type="curve" smooth="yes"/>
      <point x="202.21052631578948" y="-12.578947368421053"/>
      <point x="234.31578947368422" y="19.526315789473685"/>
    </contour>
  </outline>
</glyph>
<glyph name="semicolon" format="2">
  <advance width="334.0"/>
  <unicode hex="003B"/>
  <note>
semicolon
</note>
  <outline>
    <contour>
      <point x="164.10526315789474" y="432.7368421052632" type="curve" smooth="yes"/>
      <point x="125.15789473684211" y="432.7368421052632"/>
      <point x="93.47368421052632" y="400.63157894736844"/>
      <point x="93.47368421052632" y="362.10526315789474" type="curve" smooth="yes"/>
      <point x="93.47368421052632" y="323.1578947368421"/>
      <point x="125.15789473684211" y="291.0526315789474"/>
      <point x="164.10526315789474" y="291.0526315789474" type="curve" smooth="yes"/>
      <point x="203.6315789473684" y="291.0526315789474"/>
      <point x="234.73684210526315" y="322.57894736842104"/>
      <point x="234.73684210526315" y="362.10526315789474" type="curve" smooth="yes"/>
      <point x="234.73684210526315" y="400.63157894736844"/>
      <point x="203.05263157894737" y="432.7368421052632"/>
    </contour>
    <contour>
      <point x="156.78947368421052" y="130.31578947368422" type="curve" smooth="yes"/>
      <point x="120.6842105263158" y="130.31578947368422"/>
      <point x="91.84210526315789" y="101.78947368421052"/>
      <point x="91.84210526315789" y="66.10526315789474" type="curve" smooth="yes"/>
      <point x="91.84210526315789" y="14.0"/>
      <point x="141.0" y="5.0"/>
      <point x="141.0" y="-21.157894736842106" type="curve" smooth="yes"/>
      <point x="141.0" y="-45.05263157894737"/>
      <point x="109.84210526315789" y="-76.26315789473684"/>
      <point x="93.26315789473684" y="-93.0" type="curve"/>
      <point x="129.3684210526316" y="-129.94736842105263" type="line"/>
      <point x="185.05263157894737" y="-89.6842105263158"/>
      <point x="234.31578947368422" y="-29.57894736842105"/>
      <point x="234.31578947368422" y="41.94736842105263" type="curve" smooth="yes"/>
      <point x="234.31578947368422" y="88.21052631578948"/>
      <point x="206.4736842105263" y="130.31578947368422"/>
    </contour>
  </outline>
</glyph>
<glyph name="less" format="2">
  <advance width="630.0"/>
  <unicode hex="003C"/>
  <note>
less
</note>
  <outline>
    <contour>
      <point x="66.0" y="281.94736842105266" type="line"/>
      <point x="66.0" y="217.78947368421052" type="line"/>
      <point x="564.0" y="-7.368421052631579" type="line"/>
      <point x="564.0" y="73.6842105263158" type="line"/>
      <point x="174.57894736842104" y="249.0" type="line"/>
      <point x="564.0" y="423.05263157894734" type="line"/>
      <point x="564.0" y="505.5263157894737" type="line"/>
    </contour>
  </outline>
</glyph>
<glyph name="equal" format="2">
  <advance width="630.0"/>
  <unicode hex="003D"/>
  <note>
equal
</note>
  <outline>
    <contour>
      <point x="67.57894736842105" y="381.89473684210526" type="line"/>
      <point x="67.57894736842105" y="304.3157894736842" type="line"/>
      <point x="566.1578947368421" y="304.3157894736842" type="line"/>
      <point x="566.1578947368421" y="381.89473684210526" type="line"/>
    </contour>
    <contour>
      <point x="67.57894736842105" y="188.89473684210526" type="line"/>
      <point x="67.57894736842105" y="111.3157894736842" type="line"/>
      <point x="566.1578947368421" y="111.3157894736842" type="line"/>
      <point x="566.1578947368421" y="188.89473684210526" type="line"/>
    </contour>
  </outline>
</glyph>
<glyph name="question" format="2">
  <advance width="438.0"/>
  <unicode hex="003F"/>
  <note>
question
</note>
  <outline>
    <contour>
      <point x="190.68421052631578" y="722.578947368421" type="curve" smooth="yes"/>
      <point x="140.6315789473684" y="722.578947368421"/>
      <point x="76.57894736842105" y="707.1578947368421"/>
      <point x="37.94736842105263" y="683.2105263157895" type="curve"/>
      <point x="72.94736842105263" y="607.3684210526316" type="line"/>
      <point x="101.63157894736842" y="627.2105263157895"/>
      <point x="137.21052631578948" y="640.0526315789474"/>
      <point x="172.31578947368422" y="640.0526315789474" type="curve" smooth="yes"/>
      <point x="233.0" y="640.0526315789474"/>
      <point x="288.4736842105263" y="608.4736842105264"/>
      <point x="288.4736842105263" y="543.3684210526316" type="curve" smooth="yes"/>
      <point x="288.4736842105263" y="466.7368421052632"/>
      <point x="212.26315789473685" y="425.2631578947368"/>
      <point x="146.05263157894737" y="416.2105263157895" type="curve"/>
      <point x="146.05263157894737" y="217.0" type="line"/>
      <point x="228.73684210526315" y="217.0" type="line"/>
      <point x="228.73684210526315" y="356.2105263157895" type="line"/>
      <point x="322.63157894736844" y="390.7368421052632"/>
      <point x="393.7368421052632" y="448.36842105263156"/>
      <point x="393.7368421052632" y="549.7894736842105" type="curve" smooth="yes"/>
      <point x="393.7368421052632" y="666.1578947368421"/>
      <point x="294.2105263157895" y="722.578947368421"/>
    </contour>
    <contour>
      <point x="185.1578947368421" y="129.10526315789474" type="curve" smooth="yes"/>
      <point x="145.6315789473684" y="129.10526315789474"/>
      <point x="114.52631578947368" y="97.57894736842105"/>
      <point x="114.52631578947368" y="58.05263157894737" type="curve" smooth="yes"/>
      <point x="114.52631578947368" y="19.526315789473685"/>
      <point x="146.21052631578948" y="-12.578947368421053"/>
      <point x="185.1578947368421" y="-12.578947368421053" type="curve" smooth="yes"/>
      <point x="224.10526315789474" y="-12.578947368421053"/>
      <point x="255.78947368421052" y="19.526315789473685"/>
      <point x="255.78947368421052" y="58.05263157894737" type="curve" smooth="yes"/>
      <point x="255.78947368421052" y="97.0"/>
      <point x="224.10526315789474" y="129.10526315789474"/>
    </contour>
  </outline>
</glyph>
<glyph name="at" format="2">
  <advance width="1029.3684210526317"/>
  <unicode hex="0040"/>
  <note>
at
</note>
  <guideline x="120.47368421052632" y="572.7368421052631" angle="90.0"/>
  <guideline x="47.89473684210526" y="572.7368421052631" angle="90.0"/>
  <outline>
    <contour>
      <point x="553.6842105263158" y="731.3684210526316" type="curve" smooth="yes"/>
      <point x="217.73684210526315" y="731.3684210526316"/>
      <point x="47.89473684210526" y="460.6842105263158"/>
      <point x="47.89473684210526" y="204.0" type="curve" smooth="yes"/>
      <point x="47.89473684210526" y="-25.684210526315788"/>
      <point x="184.57894736842104" y="-243.78947368421052"/>
      <point x="460.6842105263158" y="-243.78947368421052" type="curve" smooth="yes"/>
      <point x="503.36842105263156" y="-243.78947368421052"/>
      <point x="544.2105263157895" y="-237.78947368421052"/>
      <point x="584.4736842105264" y="-227.3684210526316" type="curve"/>
      <point x="566.7894736842105" y="-167.6315789473684" type="line"/>
      <point x="531.9473684210526" y="-177.05263157894737"/>
      <point x="496.5263157894737" y="-182.05263157894737"/>
      <point x="460.6842105263158" y="-182.05263157894737" type="curve" smooth="yes"/>
      <point x="232.21052631578948" y="-182.05263157894737"/>
      <point x="120.47368421052632" y="2.8421052631578947"/>
      <point x="120.47368421052632" y="200.57894736842104" type="curve" smooth="yes"/>
      <point x="120.47368421052632" y="426.89473684210526"/>
      <point x="267.2105263157895" y="669.6315789473684"/>
      <point x="553.6842105263158" y="669.6315789473684" type="curve" smooth="yes"/>
      <point x="748.1578947368421" y="669.6315789473684"/>
      <point x="908.8947368421053" y="545.8947368421053"/>
      <point x="908.8947368421053" y="331.0" type="curve" smooth="yes"/>
      <point x="908.8947368421053" y="196.3684210526316"/>
      <point x="842.7368421052631" y="56.73684210526316"/>
      <point x="735.9473684210526" y="56.73684210526316" type="curve" smooth="yes"/>
      <point x="690.4736842105264" y="56.73684210526316"/>
      <point x="675.578947368421" y="74.15789473684211"/>
      <point x="675.578947368421" y="100.3157894736842" type="curve" smooth="yes"/>
      <point x="675.578947368421" y="127.3157894736842"/>
      <point x="681.7368421052631" y="162.73684210526315"/>
      <point x="732.7368421052631" y="497.10526315789474" type="curve"/>
      <point x="680.7368421052631" y="497.10526315789474" type="line"/>
      <point x="657.0526315789474" y="460.2631578947368" type="line"/>
      <point x="622.2105263157895" y="494.10526315789474"/>
      <point x="577.3157894736842" y="505.5263157894737"/>
      <point x="542.421052631579" y="505.5263157894737" type="curve" smooth="yes"/>
      <point x="372.42105263157896" y="505.5263157894737"/>
      <point x="290.57894736842104" y="344.10526315789474"/>
      <point x="290.57894736842104" y="196.3684210526316" type="curve" smooth="yes"/>
      <point x="290.57894736842104" y="83.52631578947368"/>
      <point x="336.2631578947368" y="-12.578947368421053"/>
      <point x="448.05263157894734" y="-12.578947368421053" type="curve" smooth="yes"/>
      <point x="497.42105263157896" y="-12.578947368421053"/>
      <point x="555.421052631579" y="13.947368421052632"/>
      <point x="589.7894736842105" y="67.6842105263158" type="curve"/>
      <point x="593.7894736842105" y="67.6842105263158" type="line"/>
      <point x="617.7894736842105" y="4.052631578947368"/>
      <point x="670.9473684210526" y="-6.421052631578947"/>
      <point x="731.6842105263158" y="-6.421052631578947" type="curve" smooth="yes"/>
      <point x="887.2105263157895" y="-6.421052631578947"/>
      <point x="981.4736842105264" y="167.0"/>
      <point x="981.4736842105264" y="331.0" type="curve" smooth="yes"/>
      <point x="981.4736842105264" y="584.6842105263158"/>
      <point x="786.2105263157895" y="731.3684210526316"/>
    </contour>
    <contour>
      <point x="546.1052631578947" y="435.10526315789474" type="curve" smooth="yes"/>
      <point x="573.8421052631579" y="435.10526315789474"/>
      <point x="599.421052631579" y="427.10526315789474"/>
      <point x="627.0" y="410.10526315789474" type="curve"/>
      <point x="614.1052631578947" y="318.36842105263156" type="line" smooth="yes"/>
      <point x="595.8421052631579" y="188.3684210526316"/>
      <point x="553.7368421052631" y="59.0"/>
      <point x="467.0" y="59.0" type="curve" smooth="yes"/>
      <point x="410.36842105263156" y="59.0"/>
      <point x="387.89473684210526" y="122.73684210526315"/>
      <point x="387.89473684210526" y="198.21052631578948" type="curve" smooth="yes"/>
      <point x="387.89473684210526" y="322.05263157894734"/>
      <point x="438.5263157894737" y="435.10526315789474"/>
    </contour>
  </outline>
</glyph>
<glyph name="A" format="2">
  <advance width="631.0"/>
  <unicode hex="0041"/>
  <note>
A
</note>
  <anchor x="310.42105263157896" y="0.0" name="bottom"/>
  <anchor x="533.8421052631579" y="0.0" name="ogonek"/>
  <anchor x="313.89473684210526" y="729.6842105263158" name="top"/>
  <outline>
    <contour>
      <point x="365.36842105263156" y="729.6842105263158" type="line"/>
      <point x="266.7894736842105" y="729.6842105263158" type="line"/>
      <point x="11.263157894736842" y="0.0" type="line"/>
      <point x="108.73684210526315" y="0.0" type="line"/>
      <point x="188.68421052631578" y="233.1578947368421" type="line"/>
      <point x="419.42105263157896" y="233.1578947368421" type="line"/>
      <point x="498.36842105263156" y="0.0" type="line"/>
      <point x="620.3157894736842" y="0.0" type="line"/>
    </contour>
    <contour>
      <point x="304.63157894736844" y="585.7894736842105" type="line"/>
      <point x="392.2105263157895" y="313.7894736842105" type="line"/>
      <point x="216.31578947368422" y="313.7894736842105" type="line"/>
    </contour>
  </outline>
</glyph>
<glyph name="B" format="2">
  <advance width="614.0"/>
  <unicode hex="0042"/>
  <note>
B
</note>
  <outline>
    <contour>
      <point x="542.1578947368421" y="559.8421052631579" type="curve" smooth="yes"/>
      <point x="542.1578947368421" y="696.1052631578947"/>
      <point x="428.0" y="729.6842105263158"/>
      <point x="313.57894736842104" y="729.6842105263158" type="curve" smooth="yes"/>
      <point x="63.421052631578945" y="729.6842105263158" type="line"/>
      <point x="64.42105263157895" y="724.1052631578947"/>
      <point x="77.42105263157895" y="667.7894736842105"/>
      <point x="77.42105263157895" y="665.7894736842105" type="curve" smooth="yes"/>
      <point x="77.42105263157895" y="0.0" type="line"/>
      <point x="299.8421052631579" y="0.0" type="line" smooth="yes"/>
      <point x="436.36842105263156" y="0.0"/>
      <point x="575.578947368421" y="39.68421052631579"/>
      <point x="575.578947368421" y="203.57894736842104" type="curve" smooth="yes"/>
      <point x="575.578947368421" y="303.94736842105266"/>
      <point x="506.7894736842105" y="382.42105263157896"/>
      <point x="408.2105263157895" y="397.8421052631579" type="curve"/>
      <point x="487.89473684210526" y="411.0"/>
      <point x="542.1578947368421" y="480.2105263157895"/>
    </contour>
    <contour>
      <point x="424.94736842105266" y="550.6842105263158" type="curve" smooth="yes"/>
      <point x="424.94736842105266" y="469.5263157894737"/>
      <point x="372.10526315789474" y="435.0"/>
      <point x="294.6842105263158" y="435.0" type="curve" smooth="yes"/>
      <point x="189.3684210526316" y="435.0" type="line"/>
      <point x="189.3684210526316" y="648.0526315789474" type="line"/>
      <point x="308.4736842105263" y="648.0526315789474" type="line" smooth="yes"/>
      <point x="372.6842105263158" y="648.0526315789474"/>
      <point x="424.94736842105266" y="623.3684210526316"/>
    </contour>
    <contour>
      <point x="457.2105263157895" y="219.0" type="curve" smooth="yes"/>
      <point x="457.2105263157895" y="118.10526315789474"/>
      <point x="391.4736842105263" y="81.63157894736842"/>
      <point x="299.5263157894737" y="81.63157894736842" type="curve" smooth="yes"/>
      <point x="189.3684210526316" y="81.63157894736842" type="line"/>
      <point x="189.3684210526316" y="353.36842105263156" type="line"/>
      <point x="286.4736842105263" y="353.36842105263156" type="line" smooth="yes"/>
      <point x="371.10526315789474" y="353.36842105263156"/>
      <point x="457.2105263157895" y="315.94736842105266"/>
    </contour>
  </outline>
</glyph>
<glyph name="C" format="2">
  <advance width="624.0"/>
  <unicode hex="0043"/>
  <note>
C
</note>
  <guideline x="664.1052631578947" y="71.0" angle="0.0"/>
  <anchor x="358.7368421052632" y="0.0" name="bottom"/>
  <anchor x="355.7368421052632" y="729.6842105263158" name="top"/>
  <outline>
    <contour>
      <point x="374.63157894736844" y="-12.0" type="curve" smooth="yes"/>
      <point x="456.0" y="-12.0"/>
      <point x="542.1052631578947" y="13.157894736842106"/>
      <point x="609.1052631578947" y="58.526315789473685" type="curve"/>
      <point x="573.8947368421053" y="122.6842105263158" type="line"/>
      <point x="503.89473684210526" y="87.26315789473685"/>
      <point x="439.57894736842104" y="72.6842105263158"/>
      <point x="383.57894736842104" y="72.6842105263158" type="curve" smooth="yes"/>
      <point x="242.78947368421052" y="72.6842105263158"/>
      <point x="156.8421052631579" y="182.57894736842104"/>
      <point x="156.8421052631579" y="363.0" type="curve" smooth="yes"/>
      <point x="156.8421052631579" y="509.57894736842104"/>
      <point x="226.3684210526316" y="660.0"/>
      <point x="381.2105263157895" y="660.0" type="curve" smooth="yes"/>
      <point x="436.7894736842105" y="660.0"/>
      <point x="507.6842105263158" y="636.0"/>
      <point x="545.8421052631579" y="593.421052631579" type="curve"/>
      <point x="606.2631578947369" y="665.7368421052631" type="line"/>
      <point x="554.3157894736842" y="718.6315789473684"/>
      <point x="451.10526315789474" y="741.3684210526316"/>
      <point x="380.2631578947368" y="741.3684210526316" type="curve" smooth="yes"/>
      <point x="158.3684210526316" y="741.3684210526316"/>
      <point x="35.05263157894737" y="563.8947368421053"/>
      <point x="35.05263157894737" y="358.8421052631579" type="curve" smooth="yes"/>
      <point x="35.05263157894737" y="159.10526315789474"/>
      <point x="144.3684210526316" y="-12.0"/>
    </contour>
  </outline>
</glyph>
<glyph name="D" format="2">
  <advance width="699.0"/>
  <unicode hex="0044"/>
  <note>
D
</note>
  <anchor x="183.6315789473684" y="368.0" name="center"/>
  <anchor x="341.6842105263158" y="729.6842105263158" name="top"/>
  <outline>
    <contour>
      <point x="664.3684210526316" y="363.2631578947368" type="curve" smooth="yes"/>
      <point x="664.3684210526316" y="607.3157894736842"/>
      <point x="522.6315789473684" y="729.6842105263158"/>
      <point x="288.05263157894734" y="729.6842105263158" type="curve" smooth="yes"/>
      <point x="63.15789473684211" y="729.6842105263158" type="line"/>
      <point x="64.57894736842105" y="724.1052631578947"/>
      <point x="78.0" y="667.3684210526316"/>
      <point x="78.0" y="665.7894736842105" type="curve" smooth="yes"/>
      <point x="78.0" y="0.0" type="line"/>
      <point x="324.6842105263158" y="0.0" type="line" smooth="yes"/>
      <point x="545.8947368421053" y="0.0"/>
      <point x="664.3684210526316" y="152.0"/>
    </contour>
    <contour>
      <point x="545.8947368421053" y="362.7368421052632" type="curve" smooth="yes"/>
      <point x="545.8947368421053" y="212.10526315789474"/>
      <point x="484.57894736842104" y="81.63157894736842"/>
      <point x="315.2105263157895" y="81.63157894736842" type="curve" smooth="yes"/>
      <point x="189.94736842105263" y="81.63157894736842" type="line"/>
      <point x="189.94736842105263" y="648.0526315789474" type="line"/>
      <point x="280.2105263157895" y="648.0526315789474" type="line" smooth="yes"/>
      <point x="460.6842105263158" y="648.0526315789474"/>
      <point x="545.8947368421053" y="541.7368421052631"/>
    </contour>
  </outline>
</glyph>
<glyph name="E" format="2">
  <advance width="549.0"/>
  <unicode hex="0045"/>
  <note>
E
</note>
  <anchor x="310.42105263157896" y="0.0" name="bottom"/>
  <anchor x="433.0" y="0.0" name="ogonek"/>
  <anchor x="299.3157894736842" y="729.6842105263158" name="top"/>
  <outline>
    <contour>
      <point x="63.578947368421055" y="729.6842105263158" type="line"/>
      <point x="78.0" y="665.7894736842105" type="line"/>
      <point x="78.0" y="0.0" type="line"/>
      <point x="510.2631578947368" y="0.0" type="line"/>
      <point x="510.2631578947368" y="81.63157894736842" type="line"/>
      <point x="189.52631578947367" y="81.63157894736842" type="line"/>
      <point x="189.52631578947367" y="334.5263157894737" type="line"/>
      <point x="437.10526315789474" y="334.5263157894737" type="line"/>
      <point x="437.10526315789474" y="415.57894736842104" type="line"/>
      <point x="189.52631578947367" y="415.57894736842104" type="line"/>
      <point x="189.52631578947367" y="648.0526315789474" type="line"/>
      <point x="510.2631578947368" y="648.0526315789474" type="line"/>
      <point x="510.2631578947368" y="729.6842105263158" type="line"/>
    </contour>
  </outline>
</glyph>
<glyph name="F" format="2">
  <advance width="510.0"/>
  <unicode hex="0046"/>
  <note>
F
</note>
  <outline>
    <contour>
      <point x="64.0" y="729.6842105263158" type="line"/>
      <point x="78.0" y="665.7894736842105" type="line"/>
      <point x="78.0" y="0.0" type="line"/>
      <point x="190.3684210526316" y="0.0" type="line"/>
      <point x="190.3684210526316" y="334.5263157894737" type="line"/>
      <point x="416.10526315789474" y="334.5263157894737" type="line"/>
      <point x="416.10526315789474" y="415.57894736842104" type="line"/>
      <point x="190.3684210526316" y="415.57894736842104" type="line"/>
      <point x="190.3684210526316" y="648.0526315789474" type="line"/>
      <point x="477.94736842105266" y="648.0526315789474" type="line"/>
      <point x="477.94736842105266" y="729.6842105263158" type="line"/>
    </contour>
  </outline>
</glyph>
<glyph name="G" format="2">
  <advance width="707.0"/>
  <unicode hex="0047"/>
  <note>
G
</note>
  <anchor x="360.1578947368421" y="0.0" name="bottom"/>
  <anchor x="362.1578947368421" y="729.6842105263158" name="top"/>
  <outline>
    <contour>
      <point x="385.8421052631579" y="740.5263157894736" type="curve" smooth="yes"/>
      <point x="156.89473684210526" y="740.5263157894736"/>
      <point x="36.05263157894737" y="576.421052631579"/>
      <point x="36.05263157894737" y="356.6842105263158" type="curve" smooth="yes"/>
      <point x="36.05263157894737" y="158.47368421052633"/>
      <point x="140.1578947368421" y="-11.578947368421053"/>
      <point x="353.10526315789474" y="-11.578947368421053" type="curve" smooth="yes"/>
      <point x="441.63157894736844" y="-11.578947368421053"/>
      <point x="504.5263157894737" y="13.421052631578947"/>
      <point x="566.4736842105264" y="75.57894736842105" type="curve"/>
      <point x="599.3157894736842" y="-0.42105263157894735" type="line"/>
      <point x="658.1578947368421" y="-0.42105263157894735" type="line"/>
      <point x="654.7368421052631" y="60.473684210526315"/>
      <point x="650.421052631579" y="121.94736842105263"/>
      <point x="650.8421052631579" y="182.8421052631579" type="curve" smooth="yes"/>
      <point x="651.6842105263158" y="381.3157894736842" type="line"/>
      <point x="383.5263157894737" y="381.3157894736842" type="line"/>
      <point x="371.10526315789474" y="304.89473684210526" type="line"/>
      <point x="538.7368421052631" y="304.89473684210526" type="line"/>
      <point x="538.7368421052631" y="240.57894736842104" type="line" smooth="yes"/>
      <point x="538.7368421052631" y="140.52631578947367"/>
      <point x="472.42105263157896" y="71.6842105263158"/>
      <point x="372.05263157894734" y="71.6842105263158" type="curve" smooth="yes"/>
      <point x="211.73684210526315" y="71.6842105263158"/>
      <point x="153.8421052631579" y="229.3684210526316"/>
      <point x="153.8421052631579" y="365.6842105263158" type="curve" smooth="yes"/>
      <point x="153.8421052631579" y="515.8947368421053"/>
      <point x="214.6315789473684" y="659.2631578947369"/>
      <point x="385.8421052631579" y="659.2631578947369" type="curve" smooth="yes"/>
      <point x="469.6842105263158" y="659.2631578947369"/>
      <point x="507.57894736842104" y="637.5263157894736"/>
      <point x="571.0" y="588.7894736842105" type="curve"/>
      <point x="632.421052631579" y="659.2105263157895" type="line"/>
      <point x="574.7368421052631" y="716.7894736842105"/>
      <point x="463.2631578947368" y="740.5263157894736"/>
    </contour>
  </outline>
</glyph>
<glyph name="H" format="2">
  <advance width="714.0"/>
  <unicode hex="0048"/>
  <note>
H
</note>
  <anchor x="354.57894736842104" y="0.0" name="bottom"/>
  <anchor x="360.57894736842104" y="558.0" name="center"/>
  <anchor x="356.57894736842104" y="729.6842105263158" name="top"/>
  <outline>
    <contour>
      <point x="524.7368421052631" y="336.8421052631579" type="line"/>
      <point x="524.7368421052631" y="0.0" type="line"/>
      <point x="636.6842105263158" y="0.0" type="line"/>
      <point x="636.6842105263158" y="729.6842105263158" type="line"/>
      <point x="524.7368421052631" y="729.6842105263158" type="line"/>
      <point x="524.7368421052631" y="417.89473684210526" type="line"/>
      <point x="190.52631578947367" y="417.89473684210526" type="line"/>
      <point x="190.52631578947367" y="729.6842105263158" type="line"/>
      <point x="64.57894736842105" y="729.6842105263158" type="line"/>
      <point x="65.57894736842105" y="724.1052631578947"/>
      <point x="78.57894736842105" y="667.7894736842105"/>
      <point x="78.57894736842105" y="665.7894736842105" type="curve" smooth="yes"/>
      <point x="78.57894736842105" y="0.0" type="line"/>
      <point x="190.52631578947367" y="0.0" type="line"/>
      <point x="190.52631578947367" y="336.8421052631579" type="line"/>
    </contour>
  </outline>
</glyph>
<glyph name="I" format="2">
  <advance width="268.0"/>
  <unicode hex="0049"/>
  <note>
I
</note>
  <anchor x="137.0" y="0.0" name="bottom"/>
  <anchor x="117.05263157894737" y="0.0" name="ogonek"/>
  <anchor x="133.8421052631579" y="729.6842105263158" name="top"/>
  <outline>
    <contour>
      <point x="64.15789473684211" y="729.6842105263158" type="line"/>
      <point x="65.15789473684211" y="724.1052631578947"/>
      <point x="78.15789473684211" y="667.7894736842105"/>
      <point x="78.15789473684211" y="665.7894736842105" type="curve" smooth="yes"/>
      <point x="78.15789473684211" y="0.0" type="line"/>
      <point x="190.10526315789474" y="0.0" type="line"/>
      <point x="190.10526315789474" y="729.6842105263158" type="line"/>
    </contour>
  </outline>
</glyph>
<glyph name="J" format="2">
  <advance width="268.0"/>
  <unicode hex="004A"/>
  <note>
J
</note>
  <anchor x="131.42105263157896" y="729.6842105263158" name="top"/>
  <outline>
    <contour>
      <point x="64.57894736842105" y="729.6842105263158" type="line"/>
      <point x="79.15789473684211" y="665.7894736842105" type="line"/>
      <point x="79.15789473684211" y="51.631578947368425" type="line" smooth="yes"/>
      <point x="79.15789473684211" y="-31.105263157894736"/>
      <point x="72.57894736842105" y="-128.68421052631578"/>
      <point x="-29.05263157894737" y="-144.42105263157896" type="curve"/>
      <point x="-13.947368421052632" y="-210.1578947368421" type="line"/>
      <point x="162.78947368421052" y="-197.68421052631578"/>
      <point x="191.10526315789474" y="-74.63157894736842"/>
      <point x="191.10526315789474" y="76.57894736842105" type="curve" smooth="yes"/>
      <point x="191.10526315789474" y="729.6842105263158" type="line"/>
    </contour>
  </outline>
</glyph>
<glyph name="K" format="2">
  <advance width="583.0"/>
  <unicode hex="004B"/>
  <note>
K
</note>
  <anchor x="317.0" y="0.0" name="bottom"/>
  <outline>
    <contour>
      <point x="63.578947368421055" y="729.6842105263158" type="line"/>
      <point x="77.57894736842105" y="665.7894736842105" type="line"/>
      <point x="77.57894736842105" y="0.0" type="line"/>
      <point x="189.52631578947367" y="0.0" type="line"/>
      <point x="189.52631578947367" y="375.63157894736844" type="line"/>
      <point x="454.36842105263156" y="0.0" type="line"/>
      <point x="588.8947368421053" y="0.0" type="line"/>
      <point x="303.2631578947368" y="407.36842105263156" type="line"/>
      <point x="569.6315789473684" y="729.6842105263158" type="line"/>
      <point x="459.57894736842104" y="729.6842105263158" type="line"/>
      <point x="189.52631578947367" y="403.8421052631579" type="line"/>
      <point x="189.52631578947367" y="729.6842105263158" type="line"/>
    </contour>
  </outline>
</glyph>
<glyph name="L" format="2">
  <advance width="514.0"/>
  <unicode hex="004C"/>
  <note>
L
</note>
  <anchor x="293.42105263157896" y="0.0" name="bottom"/>
  <anchor x="135.42105263157896" y="370.05263157894734" name="center"/>
  <anchor x="134.68421052631578" y="729.6842105263158" name="top"/>
  <anchor x="170.8421052631579" y="492.8421052631579" name="topright"/>
  <outline>
    <contour>
      <point x="64.0" y="729.6842105263158" type="line"/>
      <point x="77.57894736842105" y="665.7894736842105" type="line"/>
      <point x="77.57894736842105" y="0.0" type="line"/>
      <point x="487.94736842105266" y="0.0" type="line"/>
      <point x="487.94736842105266" y="81.63157894736842" type="line"/>
      <point x="189.94736842105263" y="81.63157894736842" type="line"/>
      <point x="189.94736842105263" y="729.6842105263158" type="line"/>
    </contour>
  </outline>
</glyph>
<glyph name="M" format="2">
  <advance width="838.0"/>
  <unicode hex="004D"/>
  <note>
M
</note>
  <outline>
    <contour>
      <point x="224.1578947368421" y="729.6842105263158" type="line"/>
      <point x="65.15789473684211" y="729.6842105263158" type="line"/>
      <point x="79.73684210526315" y="665.7894736842105" type="line"/>
      <point x="79.73684210526315" y="0.42105263157894735" type="line"/>
      <point x="169.6315789473684" y="0.42105263157894735" type="line"/>
      <point x="169.6315789473684" y="517.2631578947369" type="line" smooth="yes"/>
      <point x="169.6315789473684" y="540.1052631578947"/>
      <point x="167.3684210526316" y="562.2105263157895"/>
      <point x="165.78947368421052" y="586.9473684210526" type="curve"/>
      <point x="173.21052631578948" y="565.8421052631579"/>
      <point x="181.94736842105263" y="542.421052631579"/>
      <point x="189.78947368421052" y="520.7368421052631" type="curve" smooth="yes"/>
      <point x="381.89473684210526" y="-0.5789473684210527" type="line"/>
      <point x="445.4736842105263" y="-0.5789473684210527" type="line"/>
      <point x="634.3157894736842" y="517.8421052631579" type="line" smooth="yes"/>
      <point x="642.7368421052631" y="540.6842105263158"/>
      <point x="651.4736842105264" y="564.6842105263158"/>
      <point x="659.4736842105264" y="586.9473684210526" type="curve"/>
      <point x="657.4736842105264" y="561.0526315789474"/>
      <point x="655.6315789473684" y="538.3684210526316"/>
      <point x="655.6315789473684" y="514.3684210526316" type="curve" smooth="yes"/>
      <point x="655.6315789473684" y="0.42105263157894735" type="line"/>
      <point x="765.7368421052631" y="0.42105263157894735" type="line"/>
      <point x="765.7368421052631" y="729.6842105263158" type="line"/>
      <point x="621.578947368421" y="729.6842105263158" type="line"/>
      <point x="455.2631578947368" y="275.57894736842104" type="line" smooth="yes"/>
      <point x="442.42105263157896" y="240.6315789473684"/>
      <point x="435.36842105263156" y="208.68421052631578"/>
      <point x="424.7894736842105" y="167.8421052631579" type="curve"/>
      <point x="414.4736842105263" y="208.8421052631579"/>
      <point x="405.57894736842104" y="243.05263157894737"/>
      <point x="392.3157894736842" y="279.0" type="curve" smooth="yes"/>
    </contour>
  </outline>
</glyph>
<glyph name="N" format="2">
  <advance width="714.0"/>
  <unicode hex="004E"/>
  <note>
N
</note>
  <anchor x="362.8421052631579" y="0.0" name="bottom"/>
  <anchor x="357.10526315789474" y="729.6842105263158" name="top"/>
  <outline>
    <contour>
      <point x="205.0" y="729.2631578947369" type="line"/>
      <point x="64.15789473684211" y="729.2631578947369" type="line"/>
      <point x="78.15789473684211" y="665.3684210526316" type="line"/>
      <point x="78.15789473684211" y="0.0" type="line"/>
      <point x="168.89473684210526" y="0.0" type="line"/>
      <point x="168.89473684210526" y="529.421052631579" type="line" smooth="yes"/>
      <point x="168.89473684210526" y="550.8421052631579"/>
      <point x="166.6315789473684" y="573.8421052631579"/>
      <point x="164.6315789473684" y="595.2631578947369" type="curve"/>
      <point x="177.6315789473684" y="576.1578947368421"/>
      <point x="191.4736842105263" y="554.3157894736842"/>
      <point x="203.73684210526315" y="535.2105263157895" type="curve" smooth="yes"/>
      <point x="557.0526315789474" y="-5.0" type="line"/>
      <point x="636.6842105263158" y="-5.0" type="line"/>
      <point x="636.6842105263158" y="729.2631578947369" type="line"/>
      <point x="545.9473684210526" y="729.2631578947369" type="line"/>
      <point x="545.9473684210526" y="271.57894736842104" type="line" smooth="yes"/>
      <point x="545.9473684210526" y="248.31578947368422"/>
      <point x="548.7894736842105" y="223.05263157894737"/>
      <point x="550.2105263157895" y="199.78947368421052" type="curve"/>
      <point x="537.2105263157895" y="220.05263157894737"/>
      <point x="523.6315789473684" y="241.4736842105263"/>
      <point x="510.36842105263156" y="261.7368421052632" type="curve" smooth="yes"/>
    </contour>
  </outline>
</glyph>
<glyph name="O" format="2">
  <advance width="737.0"/>
  <unicode hex="004F"/>
  <note>
O
</note>
  <anchor x="383.0" y="0.0" name="bottom"/>
  <anchor x="369.0" y="363.0" name="center"/>
  <anchor x="432.6842105263158" y="0.0" name="ogonek"/>
  <anchor x="369.0" y="729.6842105263158" name="top"/>
  <anchor x="401.0" y="729.6842105263158" name="topright"/>
  <outline>
    <contour>
      <point x="366.7368421052632" y="-11.0" type="curve" smooth="yes"/>
      <point x="586.421052631579" y="-11.0"/>
      <point x="702.3684210526316" y="157.5263157894737"/>
      <point x="702.3684210526316" y="363.8421052631579" type="curve" smooth="yes"/>
      <point x="702.3684210526316" y="571.2631578947369"/>
      <point x="589.9473684210526" y="740.1052631578947"/>
      <point x="367.7368421052632" y="740.1052631578947" type="curve" smooth="yes"/>
      <point x="146.6315789473684" y="740.1052631578947"/>
      <point x="34.631578947368425" y="570.578947368421"/>
      <point x="34.631578947368425" y="364.6842105263158" type="curve" smooth="yes"/>
      <point x="34.631578947368425" y="160.21052631578948"/>
      <point x="146.78947368421052" y="-11.0"/>
    </contour>
    <contour>
      <point x="369.0" y="68.36842105263158" type="curve" smooth="yes"/>
      <point x="205.05263157894737" y="68.36842105263158"/>
      <point x="153.8421052631579" y="227.8421052631579"/>
      <point x="153.8421052631579" y="365.7894736842105" type="curve" smooth="yes"/>
      <point x="153.8421052631579" y="502.89473684210526"/>
      <point x="205.4736842105263" y="659.578947368421"/>
      <point x="368.1578947368421" y="659.578947368421" type="curve" smooth="yes"/>
      <point x="532.5263157894736" y="659.578947368421"/>
      <point x="583.8947368421053" y="500.2631578947368"/>
      <point x="583.8947368421053" y="362.1578947368421" type="curve" smooth="yes"/>
      <point x="583.8947368421053" y="224.05263157894737"/>
      <point x="532.2631578947369" y="68.36842105263158"/>
    </contour>
  </outline>
</glyph>
<glyph name="P" format="2">
  <advance width="575.0"/>
  <unicode hex="0050"/>
  <note>
P
</note>
  <outline>
    <contour>
      <point x="62.578947368421055" y="729.6842105263158" type="line"/>
      <point x="77.57894736842105" y="665.7894736842105" type="line"/>
      <point x="77.57894736842105" y="0.0" type="line"/>
      <point x="189.10526315789474" y="0.0" type="line"/>
      <point x="189.10526315789474" y="290.5263157894737" type="line"/>
      <point x="287.89473684210526" y="290.5263157894737" type="line" smooth="yes"/>
      <point x="423.3157894736842" y="290.5263157894737"/>
      <point x="540.3157894736842" y="361.1578947368421"/>
      <point x="540.3157894736842" y="510.10526315789474" type="curve" smooth="yes"/>
      <point x="540.3157894736842" y="670.4736842105264"/>
      <point x="430.89473684210526" y="729.6842105263158"/>
      <point x="286.4736842105263" y="729.6842105263158" type="curve" smooth="yes"/>
    </contour>
    <contour>
      <point x="189.52631578947367" y="648.0526315789474" type="line"/>
      <point x="289.0" y="648.0526315789474" type="line" smooth="yes"/>
      <point x="376.57894736842104" y="648.0526315789474"/>
      <point x="422.6842105263158" y="595.2631578947369"/>
      <point x="422.6842105263158" y="510.10526315789474" type="curve" smooth="yes"/>
      <point x="422.6842105263158" y="427.5263157894737"/>
      <point x="372.42105263157896" y="370.7368421052632"/>
      <point x="288.0" y="370.7368421052632" type="curve" smooth="yes"/>
      <point x="189.52631578947367" y="370.7368421052632" type="line"/>
    </contour>
  </outline>
</glyph>
<glyph name="Q" format="2">
  <advance width="737.0"/>
  <unicode hex="0051"/>
  <note>
Q
</note>
  <outline>
    <contour>
      <point x="1167.2105263157894" y="-169.94736842105263" type="curve"/>
      <point x="1148.2631578947369" y="-110.15789473684211" type="line"/>
      <point x="1093.421052631579" y="-126.6842105263158"/>
      <point x="1012.6842105263158" y="-142.8421052631579"/>
      <point x="971.9473684210526" y="-142.8421052631579" type="curve" smooth="yes"/>
      <point x="833.3157894736842" y="-142.8421052631579"/>
      <point x="612.421052631579" y="-30.842105263157894"/>
      <point x="524.8421052631579" y="12.894736842105264" type="curve" smooth="yes"/>
      <point x="519.6842105263158" y="15.473684210526315"/>
      <point x="514.2631578947369" y="17.473684210526315"/>
      <point x="509.8421052631579" y="19.05263157894737" type="curve"/>
      <point x="647.4736842105264" y="84.10526315789474"/>
      <point x="702.3684210526316" y="226.1578947368421"/>
      <point x="702.3684210526316" y="363.42105263157896" type="curve" smooth="yes"/>
      <point x="702.3684210526316" y="560.578947368421"/>
      <point x="595.578947368421" y="740.5263157894736"/>
      <point x="369.0" y="740.5263157894736" type="curve" smooth="yes"/>
      <point x="141.8421052631579" y="740.5263157894736"/>
      <point x="34.631578947368425" y="561.578947368421"/>
      <point x="34.631578947368425" y="363.42105263157896" type="curve" smooth="yes"/>
      <point x="34.631578947368425" y="187.26315789473685"/>
      <point x="110.89473684210526" y="36.1578947368421"/>
      <point x="304.4736842105263" y="-6.2631578947368425" type="curve" smooth="yes"/>
      <point x="348.05263157894734" y="-15.842105263157894"/>
      <point x="394.2105263157895" y="-24.0"/>
      <point x="434.2105263157895" y="-42.0" type="curve" smooth="yes"/>
      <point x="554.8421052631579" y="-95.47368421052632"/>
      <point x="784.421052631579" y="-219.47368421052633"/>
      <point x="935.0" y="-219.47368421052633" type="curve" smooth="yes"/>
      <point x="1030.2631578947369" y="-219.47368421052633"/>
      <point x="1076.578947368421" y="-202.26315789473685"/>
    </contour>
    <contour>
      <point x="369.0" y="68.78947368421052" type="curve" smooth="yes"/>
      <point x="210.8421052631579" y="68.78947368421052"/>
      <point x="154.26315789473685" y="220.78947368421052"/>
      <point x="154.26315789473685" y="362.42105263157896" type="curve" smooth="yes"/>
      <point x="154.26315789473685" y="505.05263157894734"/>
      <point x="210.26315789473685" y="659.578947368421"/>
      <point x="369.0" y="659.578947368421" type="curve" smooth="yes"/>
      <point x="528.1578947368421" y="659.578947368421"/>
      <point x="584.3157894736842" y="506.05263157894734"/>
      <point x="584.3157894736842" y="363.42105263157896" type="curve" smooth="yes"/>
      <point x="584.3157894736842" y="220.21052631578948"/>
      <point x="528.1578947368421" y="68.78947368421052"/>
    </contour>
  </outline>
</glyph>
<glyph name="R" format="2">
  <advance width="591.0"/>
  <unicode hex="0052"/>
  <note>
R
</note>
  <anchor x="309.8421052631579" y="0.0" name="bottom"/>
  <anchor x="289.94736842105266" y="729.6842105263158" name="top"/>
  <outline>
    <contour>
      <point x="62.578947368421055" y="729.6842105263158" type="line"/>
      <point x="77.0" y="665.7894736842105" type="line"/>
      <point x="77.0" y="0.0" type="line"/>
      <point x="188.52631578947367" y="0.0" type="line"/>
      <point x="188.52631578947367" y="326.57894736842104" type="line"/>
      <point x="284.0526315789474" y="326.57894736842104" type="line"/>
      <point x="478.36842105263156" y="0.0" type="line"/>
      <point x="606.578947368421" y="0.0" type="line"/>
      <point x="394.1578947368421" y="346.42105263157896" type="line"/>
      <point x="472.2631578947368" y="368.7368421052632"/>
      <point x="540.3157894736842" y="446.42105263157896"/>
      <point x="540.3157894736842" y="529.1052631578947" type="curve" smooth="yes"/>
      <point x="540.3157894736842" y="683.421052631579"/>
      <point x="429.7894736842105" y="729.6842105263158"/>
      <point x="293.89473684210526" y="729.6842105263158" type="curve" smooth="yes"/>
    </contour>
    <contour>
      <point x="188.52631578947367" y="647.6315789473684" type="line"/>
      <point x="288.42105263157896" y="647.6315789473684" type="line" smooth="yes"/>
      <point x="359.6842105263158" y="647.6315789473684"/>
      <point x="423.10526315789474" y="610.0"/>
      <point x="423.10526315789474" y="533.0" type="curve" smooth="yes"/>
      <point x="423.10526315789474" y="433.5263157894737"/>
      <point x="351.94736842105266" y="407.2105263157895"/>
      <point x="261.7894736842105" y="407.2105263157895" type="curve" smooth="yes"/>
      <point x="188.52631578947367" y="407.2105263157895" type="line"/>
    </contour>
  </outline>
</glyph>
<glyph name="S" format="2">
  <advance width="516.0"/>
  <unicode hex="0053"/>
  <note>
S
</note>
  <anchor x="267.0" y="0.0" name="bottom"/>
  <anchor x="262.0" y="729.6842105263158" name="top"/>
  <outline>
    <contour>
      <point x="279.1578947368421" y="740.5263157894736" type="curve" smooth="yes"/>
      <point x="159.8421052631579" y="740.5263157894736"/>
      <point x="41.89473684210526" y="675.9473684210526"/>
      <point x="41.89473684210526" y="542.5263157894736" type="curve" smooth="yes"/>
      <point x="41.89473684210526" y="420.8421052631579"/>
      <point x="137.05263157894737" y="377.0"/>
      <point x="225.21052631578948" y="335.8421052631579" type="curve" smooth="yes"/>
      <point x="299.94736842105266" y="300.6842105263158"/>
      <point x="370.2631578947368" y="267.94736842105266"/>
      <point x="370.2631578947368" y="187.10526315789474" type="curve" smooth="yes"/>
      <point x="370.2631578947368" y="106.10526315789474"/>
      <point x="297.6842105263158" y="70.10526315789474"/>
      <point x="232.94736842105263" y="70.10526315789474" type="curve" smooth="yes"/>
      <point x="172.42105263157896" y="70.10526315789474"/>
      <point x="105.6842105263158" y="97.78947368421052"/>
      <point x="60.8421052631579" y="137.89473684210526" type="curve"/>
      <point x="20.210526315789473" y="43.68421052631579" type="line"/>
      <point x="87.15789473684211" y="6.894736842105264"/>
      <point x="160.47368421052633" y="-12.0"/>
      <point x="236.68421052631578" y="-12.0" type="curve" smooth="yes"/>
      <point x="369.7894736842105" y="-12.0"/>
      <point x="489.63157894736844" y="59.89473684210526"/>
      <point x="489.63157894736844" y="205.1578947368421" type="curve" smooth="yes"/>
      <point x="489.63157894736844" y="347.2631578947368"/>
      <point x="374.2631578947368" y="392.1578947368421"/>
      <point x="280.2631578947368" y="436.57894736842104" type="curve" smooth="yes"/>
      <point x="216.05263157894737" y="467.3157894736842"/>
      <point x="161.26315789473685" y="497.89473684210526"/>
      <point x="161.26315789473685" y="559.3684210526316" type="curve" smooth="yes"/>
      <point x="161.26315789473685" y="627.9473684210526"/>
      <point x="215.1578947368421" y="659.0"/>
      <point x="278.1578947368421" y="659.0" type="curve" smooth="yes"/>
      <point x="328.05263157894734" y="659.0"/>
      <point x="379.57894736842104" y="639.8421052631579"/>
      <point x="419.05263157894734" y="609.0" type="curve"/>
      <point x="474.7368421052632" y="684.0" type="line"/>
      <point x="417.7368421052632" y="720.1052631578947"/>
      <point x="348.5263157894737" y="740.5263157894736"/>
    </contour>
  </outline>
</glyph>
<glyph name="T" format="2">
  <advance width="578.0"/>
  <unicode hex="0054"/>
  <note>
T
</note>
  <anchor x="287.0" y="0.0" name="bottom"/>
  <anchor x="287.0" y="366.0" name="center"/>
  <anchor x="287.0" y="729.6842105263158" name="top"/>
  <outline>
    <contour>
      <point x="229.89473684210526" y="648.0526315789474" type="line"/>
      <point x="229.89473684210526" y="0.0" type="line"/>
      <point x="345.10526315789474" y="0.0" type="line"/>
      <point x="345.10526315789474" y="648.0526315789474" type="line"/>
      <point x="558.6315789473684" y="648.0526315789474" type="line"/>
      <point x="558.6315789473684" y="729.6842105263158" type="line"/>
      <point x="19.36842105263158" y="729.6842105263158" type="line"/>
      <point x="19.36842105263158" y="648.0526315789474" type="line"/>
    </contour>
  </outline>
</glyph>
<glyph name="U" format="2">
  <advance width="707.0"/>
  <unicode hex="0055"/>
  <note>
U
</note>
  <anchor x="356.2105263157895" y="0.0" name="bottom"/>
  <anchor x="420.2105263157895" y="0.0" name="ogonek"/>
  <anchor x="361.94736842105266" y="729.6842105263158" name="top"/>
  <anchor x="453.7894736842105" y="745.1052631578947" name="topright"/>
  <outline>
    <contour>
      <point x="192.78947368421052" y="729.6842105263158" type="line"/>
      <point x="63.0" y="729.6842105263158" type="line"/>
      <point x="78.42105263157895" y="666.2105263157895" type="line"/>
      <point x="78.42105263157895" y="258.3157894736842" type="line" smooth="yes"/>
      <point x="78.42105263157895" y="82.73684210526315"/>
      <point x="178.10526315789474" y="-11.578947368421053"/>
      <point x="353.10526315789474" y="-11.578947368421053" type="curve" smooth="yes"/>
      <point x="520.7368421052631" y="-11.578947368421053"/>
      <point x="630.1052631578947" y="80.15789473684211"/>
      <point x="630.1052631578947" y="266.42105263157896" type="curve" smooth="yes"/>
      <point x="630.1052631578947" y="729.6842105263158" type="line"/>
      <point x="537.9473684210526" y="729.6842105263158" type="line"/>
      <point x="537.9473684210526" y="252.5263157894737" type="line" smooth="yes"/>
      <point x="537.9473684210526" y="141.52631578947367"/>
      <point x="474.7894736842105" y="68.36842105263158"/>
      <point x="361.3157894736842" y="68.36842105263158" type="curve" smooth="yes"/>
      <point x="251.0" y="68.36842105263158"/>
      <point x="192.78947368421052" y="137.1578947368421"/>
      <point x="192.78947368421052" y="244.42105263157896" type="curve" smooth="yes"/>
    </contour>
  </outline>
</glyph>
<glyph name="V" format="2">
  <advance width="603.0"/>
  <unicode hex="0056"/>
  <note>
V
</note>
  <outline>
    <contour>
      <point x="130.94736842105263" y="729.2631578947369" type="line"/>
      <point x="12.157894736842106" y="729.2631578947369" type="line"/>
      <point x="263.57894736842104" y="-2.5789473684210527" type="line"/>
      <point x="338.42105263157896" y="-2.5789473684210527" type="line"/>
      <point x="590.8421052631579" y="729.8421052631579" type="line"/>
      <point x="497.7894736842105" y="729.8421052631579" type="line"/>
      <point x="344.8421052631579" y="283.3157894736842" type="line" smooth="yes"/>
      <point x="331.7368421052632" y="246.42105263157896"/>
      <point x="322.2105263157895" y="212.42105263157896"/>
      <point x="312.2105263157895" y="172.3684210526316" type="curve"/>
      <point x="302.4736842105263" y="209.78947368421052"/>
      <point x="294.05263157894734" y="243.57894736842104"/>
      <point x="282.63157894736844" y="278.2631578947368" type="curve" smooth="yes"/>
    </contour>
  </outline>
</glyph>
<glyph name="W" format="2">
  <advance width="894.0"/>
  <unicode hex="0057"/>
  <note>
W
</note>
  <anchor x="457.0" y="729.6842105263158" name="top"/>
  <outline>
    <contour>
      <point x="121.10526315789474" y="729.6842105263158" type="line"/>
      <point x="6.2631578947368425" y="729.6842105263158" type="line"/>
      <point x="207.8421052631579" y="-3.736842105263158" type="line"/>
      <point x="306.3157894736842" y="-3.736842105263158" type="line"/>
      <point x="420.36842105263156" y="416.57894736842104" type="line" smooth="yes"/>
      <point x="431.3157894736842" y="455.5263157894737"/>
      <point x="440.0" y="494.89473684210526"/>
      <point x="448.0" y="540.4736842105264" type="curve"/>
      <point x="453.7368421052632" y="503.0526315789474"/>
      <point x="461.3157894736842" y="471.8421052631579"/>
      <point x="469.1578947368421" y="440.63157894736844" type="curve" smooth="yes"/>
      <point x="590.2631578947369" y="-3.736842105263158" type="line"/>
      <point x="687.0526315789474" y="-3.736842105263158" type="line"/>
      <point x="887.7368421052631" y="729.6842105263158" type="line"/>
      <point x="795.8421052631579" y="729.6842105263158" type="line"/>
      <point x="678.8421052631579" y="299.6842105263158" type="line" smooth="yes"/>
      <point x="667.3157894736842" y="258.42105263157896"/>
      <point x="658.0526315789474" y="217.1578947368421"/>
      <point x="649.4736842105264" y="169.26315789473685" type="curve"/>
      <point x="642.1578947368421" y="212.42105263157896"/>
      <point x="634.2631578947369" y="250.78947368421052"/>
      <point x="624.421052631579" y="287.3157894736842" type="curve" smooth="yes"/>
      <point x="504.5263157894737" y="729.6842105263158" type="line"/>
      <point x="412.8421052631579" y="729.6842105263158" type="line"/>
      <point x="296.8421052631579" y="300.8421052631579" type="line" smooth="yes"/>
      <point x="285.7368421052632" y="259.0"/>
      <point x="275.63157894736844" y="217.73684210526315"/>
      <point x="267.05263157894734" y="169.26315789473685" type="curve"/>
      <point x="258.7368421052632" y="214.0"/>
      <point x="251.0" y="252.3684210526316"/>
      <point x="240.57894736842104" y="290.4736842105263" type="curve" smooth="yes"/>
    </contour>
  </outline>
</glyph>
<glyph name="X" format="2">
  <advance width="585.0"/>
  <unicode hex="0058"/>
  <note>
X
</note>
  <outline>
    <contour>
      <point x="147.68421052631578" y="729.6842105263158" type="line"/>
      <point x="18.789473684210527" y="729.6842105263158" type="line"/>
      <point x="452.63157894736844" y="0.0" type="line"/>
      <point x="583.1052631578947" y="0.0" type="line"/>
    </contour>
    <contour>
      <point x="445.0526315789474" y="729.6842105263158" type="line"/>
      <point x="1.8947368421052637" y="0.0" type="line"/>
      <point x="117.73684210526315" y="0.0" type="line"/>
      <point x="561.4736842105264" y="729.6842105263158" type="line"/>
    </contour>
  </outline>
</glyph>
<glyph name="Y" format="2">
  <advance width="584.0"/>
  <unicode hex="0059"/>
  <note>
Y
</note>
  <anchor x="297.42105263157896" y="0.0" name="bottom"/>
  <anchor x="299.42105263157896" y="729.6842105263158" name="top"/>
  <outline>
    <contour>
      <point x="147.57894736842104" y="729.6842105263158" type="line"/>
      <point x="22.736842105263158" y="729.6842105263158" type="line"/>
      <point x="238.47368421052633" y="348.63157894736844" type="line"/>
      <point x="238.47368421052633" y="0.0" type="line"/>
      <point x="349.4736842105263" y="0.0" type="line"/>
      <point x="349.4736842105263" y="348.63157894736844" type="line"/>
      <point x="561.8421052631579" y="729.6842105263158" type="line"/>
      <point x="460.94736842105266" y="729.6842105263158" type="line"/>
      <point x="306.89473684210526" y="451.3157894736842" type="line"/>
    </contour>
  </outline>
</glyph>
<glyph name="Z" format="2">
  <advance width="571.0"/>
  <unicode hex="005A"/>
  <note>
Z
</note>
  <anchor x="286.0" y="729.6842105263158" name="top"/>
  <outline>
    <contour>
      <point x="48.578947368421055" y="729.6842105263158" type="line"/>
      <point x="48.578947368421055" y="648.4736842105264" type="line"/>
      <point x="392.36842105263156" y="648.4736842105264" type="line"/>
      <point x="25.736842105263158" y="73.3157894736842" type="line"/>
      <point x="25.736842105263158" y="0.0" type="line"/>
      <point x="536.1578947368421" y="0.0" type="line"/>
      <point x="545.8421052631579" y="81.63157894736842" type="line"/>
      <point x="161.1578947368421" y="81.63157894736842" type="line"/>
      <point x="530.7368421052631" y="660.1578947368421" type="line"/>
      <point x="530.7368421052631" y="729.6842105263158" type="line"/>
    </contour>
  </outline>
</glyph>
<glyph name="bracketleft" format="2">
  <advance width="351.0"/>
  <unicode hex="005B"/>
  <note>
bracketleft
</note>
  <outline>
    <contour>
      <point x="80.84210526315789" y="730.8421052631579" type="line"/>
      <point x="80.84210526315789" y="-129.68421052631578" type="line"/>
      <point x="293.05263157894734" y="-129.68421052631578" type="line"/>
      <point x="293.05263157894734" y="-76.47368421052632" type="line"/>
      <point x="177.8421052631579" y="-76.47368421052632" type="line"/>
      <point x="177.8421052631579" y="677.6315789473684" type="line"/>
      <point x="293.05263157894734" y="677.6315789473684" type="line"/>
      <point x="293.05263157894734" y="730.8421052631579" type="line"/>
    </contour>
  </outline>
</glyph>
<glyph name="backslash" format="2">
  <advance width="326.0"/>
  <unicode hex="005C"/>
  <note>
backslash
</note>
  <outline>
    <contour>
      <point x="-9.31578947368421" y="729.6842105263158" type="line"/>
      <point x="257.36842105263156" y="0.0" type="line"/>
      <point x="335.7368421052632" y="0.0" type="line"/>
      <point x="69.78947368421052" y="729.6842105263158" type="line"/>
    </contour>
  </outline>
</glyph>
<glyph name="bracketright" format="2">
  <advance width="350.0"/>
  <unicode hex="005D"/>
  <note>
bracketright
</note>
  <outline>
    <contour>
      <point x="58.526315789473685" y="-75.89473684210526" type="line"/>
      <point x="58.526315789473685" y="-129.10526315789474" type="line"/>
      <point x="270.1578947368421" y="-129.10526315789474" type="line"/>
      <point x="270.1578947368421" y="730.8421052631579" type="line"/>
      <point x="57.94736842105263" y="730.8421052631579" type="line"/>
      <point x="57.94736842105263" y="677.6315789473684" type="line"/>
      <point x="173.1578947368421" y="677.6315789473684" type="line"/>
      <point x="173.1578947368421" y="-75.89473684210526" type="line"/>
    </contour>
  </outline>
</glyph>
<glyph name="asciicircum" format="2">
  <advance width="618.0"/>
  <unicode hex="005E"/>
  <note>
asciicircum
</note>
  <outline>
    <contour>
      <point x="317.8421052631579" y="389.42105263157896" type="line"/>
      <point x="491.89473684210526" y="0.0" type="line"/>
      <point x="574.2105263157895" y="0.0" type="line"/>
      <point x="349.63157894736844" y="497.42105263157896" type="line"/>
      <point x="284.89473684210526" y="497.42105263157896" type="line"/>
      <point x="61.473684210526315" y="0.0" type="line"/>
      <point x="143.10526315789474" y="0.0" type="line"/>
    </contour>
  </outline>
</glyph>
<glyph name="underscore" format="2">
  <advance width="499.0"/>
  <unicode hex="005F"/>
  <note>
underscore
</note>
  <outline>
    <contour>
      <point x="-6.894736842105264" y="-58.0" type="line"/>
      <point x="-6.894736842105264" y="-133.1578947368421" type="line"/>
      <point x="506.89473684210526" y="-133.1578947368421" type="line"/>
      <point x="506.89473684210526" y="-58.0" type="line"/>
    </contour>
  </outline>
</glyph>
<glyph name="grave" format="2">
  <advance width="281.0"/>
  <unicode hex="0060"/>
  <note>
grave
</note>
  <anchor x="211.21052631578948" y="497.0" name="_top"/>
  <outline>
    <contour>
      <point x="155.10526315789474" y="733.8421052631579" type="line"/>
      <point x="23.42105263157895" y="733.8421052631579" type="line"/>
      <point x="168.05263157894737" y="576.3684210526316" type="line"/>
      <point x="256.57894736842104" y="576.3684210526316" type="line"/>
    </contour>
  </outline>
</glyph>
<glyph name="a" format="2">
  <advance width="494.0"/>
  <unicode hex="0061"/>
  <note>
a
</note>
  <anchor x="233.68421052631578" y="0.0" name="bottom"/>
  <anchor x="419.7368421052632" y="0.0" name="ogonek"/>
  <anchor x="244.52631578947367" y="497.0" name="top"/>
  <outline>
    <contour>
      <point x="253.42105263157896" y="509.0" type="curve" smooth="yes"/>
      <point x="182.57894736842104" y="509.0"/>
      <point x="114.89473684210526" y="488.0"/>
      <point x="57.78947368421053" y="445.2631578947368" type="curve"/>
      <point x="102.15789473684211" y="377.8421052631579" type="line"/>
      <point x="144.10526315789474" y="411.2105263157895"/>
      <point x="189.94736842105263" y="436.42105263157896"/>
      <point x="238.8421052631579" y="436.42105263157896" type="curve" smooth="yes"/>
      <point x="297.5263157894737" y="436.42105263157896"/>
      <point x="317.2105263157895" y="403.7894736842105"/>
      <point x="317.2105263157895" y="349.05263157894734" type="curve" smooth="yes"/>
      <point x="317.2105263157895" y="291.0" type="line"/>
      <point x="201.6315789473684" y="290.42105263157896"/>
      <point x="38.10526315789474" y="267.2105263157895"/>
      <point x="38.10526315789474" y="118.73684210526316" type="curve" smooth="yes"/>
      <point x="38.10526315789474" y="36.73684210526316"/>
      <point x="98.21052631578948" y="-11.0"/>
      <point x="176.78947368421052" y="-11.0" type="curve" smooth="yes"/>
      <point x="235.89473684210526" y="-11.0"/>
      <point x="288.63157894736844" y="13.368421052631579"/>
      <point x="326.7894736842105" y="59.0" type="curve"/>
      <point x="335.89473684210526" y="8.263157894736842"/>
      <point x="366.05263157894734" y="-8.578947368421053"/>
      <point x="406.5263157894737" y="-8.578947368421053" type="curve" smooth="yes"/>
      <point x="439.8421052631579" y="-8.578947368421053"/>
      <point x="476.94736842105266" y="3.0"/>
      <point x="501.7368421052632" y="16.684210526315788" type="curve"/>
      <point x="483.3157894736842" y="76.57894736842105" type="line"/>
      <point x="470.89473684210526" y="71.57894736842105"/>
      <point x="457.3157894736842" y="68.0"/>
      <point x="444.89473684210526" y="68.0" type="curve" smooth="yes"/>
      <point x="428.2105263157895" y="68.0"/>
      <point x="415.7894736842105" y="76.84210526315789"/>
      <point x="415.7894736842105" y="109.47368421052632" type="curve" smooth="yes"/>
      <point x="415.7894736842105" y="345.8421052631579" type="line" smooth="yes"/>
      <point x="415.7894736842105" y="451.5263157894737"/>
      <point x="358.8421052631579" y="509.0"/>
    </contour>
    <contour>
      <point x="317.2105263157895" y="218.8421052631579" type="curve"/>
      <point x="317.2105263157895" y="190.6315789473684" type="line" smooth="yes"/>
      <point x="317.2105263157895" y="131.78947368421052"/>
      <point x="274.36842105263156" y="68.26315789473685"/>
      <point x="210.10526315789474" y="68.26315789473685" type="curve" smooth="yes"/>
      <point x="171.68421052631578" y="68.26315789473685"/>
      <point x="139.94736842105263" y="87.0"/>
      <point x="139.94736842105263" y="125.52631578947368" type="curve" smooth="yes"/>
      <point x="139.94736842105263" y="214.42105263157896"/>
      <point x="251.94736842105263" y="218.8421052631579"/>
    </contour>
  </outline>
</glyph>
<glyph name="b" format="2">
  <advance width="558.0"/>
  <unicode hex="0062"/>
  <note>
b
</note>
  <outline>
    <contour>
      <point x="314.2631578947368" y="507.42105263157896" type="curve" smooth="yes"/>
      <point x="258.10526315789474" y="507.42105263157896"/>
      <point x="214.68421052631578" y="490.6842105263158"/>
      <point x="172.68421052631578" y="453.5263157894737" type="curve"/>
      <point x="173.26315789473685" y="465.10526315789474"/>
      <point x="174.68421052631578" y="479.05263157894734"/>
      <point x="174.68421052631578" y="502.8421052631579" type="curve" smooth="yes"/>
      <point x="174.68421052631578" y="764.5263157894736" type="line"/>
      <point x="62.10526315789474" y="764.5263157894736" type="line"/>
      <point x="76.10526315789474" y="707.7894736842105" type="line"/>
      <point x="76.10526315789474" y="66.73684210526316" type="line" smooth="yes"/>
      <point x="76.10526315789474" y="44.1578947368421"/>
      <point x="74.10526315789474" y="21.57894736842105"/>
      <point x="72.6842105263158" y="-1.0" type="curve"/>
      <point x="127.73684210526316" y="-1.0" type="line"/>
      <point x="147.0" y="53.526315789473685" type="line"/>
      <point x="184.26315789473685" y="8.421052631578947"/>
      <point x="235.73684210526315" y="-12.578947368421053"/>
      <point x="293.8421052631579" y="-12.578947368421053" type="curve" smooth="yes"/>
      <point x="443.2631578947368" y="-12.578947368421053"/>
      <point x="519.578947368421" y="113.89473684210526"/>
      <point x="519.578947368421" y="251.0" type="curve" smooth="yes"/>
      <point x="519.578947368421" y="372.89473684210526"/>
      <point x="451.57894736842104" y="507.42105263157896"/>
    </contour>
    <contour>
      <point x="284.8421052631579" y="427.57894736842104" type="curve" smooth="yes"/>
      <point x="379.2631578947368" y="427.57894736842104"/>
      <point x="412.89473684210526" y="325.3157894736842"/>
      <point x="412.89473684210526" y="246.73684210526315" type="curve" smooth="yes"/>
      <point x="412.89473684210526" y="172.6315789473684"/>
      <point x="384.94736842105266" y="57.84210526315789"/>
      <point x="290.8421052631579" y="57.84210526315789" type="curve" smooth="yes"/>
      <point x="204.73684210526315" y="57.84210526315789"/>
      <point x="174.68421052631578" y="124.6842105263158"/>
      <point x="174.68421052631578" y="201.52631578947367" type="curve" smooth="yes"/>
      <point x="174.68421052631578" y="375.5263157894737" type="line"/>
      <point x="202.1578947368421" y="405.42105263157896"/>
      <point x="243.78947368421052" y="427.57894736842104"/>
    </contour>
  </outline>
</glyph>
<glyph name="c" format="2">
  <advance width="450.0"/>
  <unicode hex="0063"/>
  <note>
c
</note>
  <anchor x="257.8421052631579" y="0.0" name="bottom"/>
  <anchor x="260.8421052631579" y="497.0" name="top"/>
  <outline>
    <contour>
      <point x="277.7894736842105" y="509.42105263157896" type="curve" smooth="yes"/>
      <point x="140.31578947368422" y="509.42105263157896"/>
      <point x="36.421052631578945" y="406.89473684210526"/>
      <point x="36.421052631578945" y="251.31578947368422" type="curve" smooth="yes"/>
      <point x="36.421052631578945" y="92.52631578947368"/>
      <point x="125.47368421052632" y="-12.578947368421053"/>
      <point x="266.10526315789474" y="-12.578947368421053" type="curve" smooth="yes"/>
      <point x="328.7894736842105" y="-12.578947368421053"/>
      <point x="372.5263157894737" y="3.4210526315789473"/>
      <point x="427.36842105263156" y="36.1578947368421" type="curve"/>
      <point x="398.6842105263158" y="97.15789473684211" type="line"/>
      <point x="358.2631578947368" y="73.73684210526315"/>
      <point x="322.6842105263158" y="62.1578947368421"/>
      <point x="285.94736842105266" y="62.1578947368421" type="curve" smooth="yes"/>
      <point x="200.6315789473684" y="62.1578947368421"/>
      <point x="143.52631578947367" y="129.31578947368422"/>
      <point x="143.52631578947367" y="249.8421052631579" type="curve" smooth="yes"/>
      <point x="143.52631578947367" y="347.2105263157895"/>
      <point x="190.6315789473684" y="436.0"/>
      <point x="273.1578947368421" y="436.0" type="curve" smooth="yes"/>
      <point x="309.94736842105266" y="436.0"/>
      <point x="343.1578947368421" y="421.57894736842104"/>
      <point x="378.05263157894734" y="394.10526315789474" type="curve"/>
      <point x="429.36842105263156" y="459.6842105263158" type="line"/>
      <point x="383.57894736842104" y="492.1578947368421"/>
      <point x="327.36842105263156" y="509.42105263157896"/>
    </contour>
  </outline>
</glyph>
<glyph name="e" format="2">
  <advance width="494.0"/>
  <unicode hex="0065"/>
  <note>
e
</note>
  <anchor x="259.57894736842104" y="0.0" name="bottom"/>
  <anchor x="332.10526315789474" y="0.0" name="ogonek"/>
  <anchor x="265.57894736842104" y="497.0" name="top"/>
  <outline>
    <contour>
      <point x="267.89473684210526" y="509.8421052631579" type="curve" smooth="yes"/>
      <point x="117.3157894736842" y="509.8421052631579"/>
      <point x="36.421052631578945" y="379.2105263157895"/>
      <point x="36.421052631578945" y="243.8421052631579" type="curve" smooth="yes"/>
      <point x="36.421052631578945" y="104.3157894736842"/>
      <point x="118.84210526315789" y="-12.157894736842106"/>
      <point x="275.42105263157896" y="-12.157894736842106" type="curve" smooth="yes"/>
      <point x="333.3157894736842" y="-12.157894736842106"/>
      <point x="401.05263157894734" y="5.421052631578947"/>
      <point x="447.63157894736844" y="42.578947368421055" type="curve"/>
      <point x="416.2105263157895" y="100.15789473684211" type="line"/>
      <point x="369.36842105263156" y="74.47368421052632"/>
      <point x="326.10526315789474" y="62.05263157894737"/>
      <point x="287.6842105263158" y="62.05263157894737" type="curve" smooth="yes"/>
      <point x="199.31578947368422" y="62.05263157894737"/>
      <point x="140.8421052631579" y="128.1578947368421"/>
      <point x="140.8421052631579" y="246.73684210526315" type="curve"/>
      <point x="451.7894736842105" y="246.73684210526315" type="line"/>
      <point x="456.05263157894734" y="268.1578947368421"/>
      <point x="458.4736842105263" y="289.2631578947368"/>
      <point x="458.4736842105263" y="309.5263157894737" type="curve" smooth="yes"/>
      <point x="458.4736842105263" y="421.7368421052632"/>
      <point x="395.4736842105263" y="509.8421052631579"/>
    </contour>
    <contour>
      <point x="261.1578947368421" y="438.8421052631579" type="curve" smooth="yes"/>
      <point x="324.63157894736844" y="438.8421052631579"/>
      <point x="360.8421052631579" y="388.36842105263156"/>
      <point x="355.4736842105263" y="315.89473684210526" type="curve"/>
      <point x="145.57894736842104" y="315.89473684210526" type="line"/>
      <point x="153.21052631578948" y="373.6842105263158"/>
      <point x="194.0" y="438.8421052631579"/>
    </contour>
  </outline>
</glyph>
<glyph name="f" format="2">
  <advance width="288.0"/>
  <unicode hex="0066"/>
  <note>
f
</note>
  <outline>
    <contour>
      <point x="305.5263157894737" y="772.5263157894736" type="curve" smooth="yes"/>
      <point x="248.10526315789474" y="772.5263157894736"/>
      <point x="196.42105263157896" y="751.0"/>
      <point x="162.1578947368421" y="712.6315789473684" type="curve" smooth="yes"/>
      <point x="109.36842105263158" y="655.578947368421"/>
      <point x="111.36842105263158" y="617.7368421052631"/>
      <point x="92.78947368421052" y="529.1052631578947" type="curve" smooth="yes"/>
      <point x="84.36842105263158" y="488.8421052631579"/>
      <point x="43.15789473684211" y="489.1578947368421"/>
      <point x="12.842105263157896" y="487.42105263157896" type="curve"/>
      <point x="12.842105263157896" y="427.42105263157896" type="line"/>
      <point x="90.78947368421052" y="427.42105263157896" type="line"/>
      <point x="90.78947368421052" y="-0.42105263157894735" type="line"/>
      <point x="188.78947368421052" y="-0.42105263157894735" type="line"/>
      <point x="188.78947368421052" y="427.42105263157896" type="line"/>
      <point x="302.8421052631579" y="427.42105263157896" type="line"/>
      <point x="322.94736842105266" y="497.0" type="line"/>
      <point x="188.78947368421052" y="497.0" type="line"/>
      <point x="188.78947368421052" y="605.2105263157895"/>
      <point x="206.5263157894737" y="702.1052631578947"/>
      <point x="308.7894736842105" y="702.1052631578947" type="curve" smooth="yes"/>
      <point x="331.10526315789474" y="702.1052631578947"/>
      <point x="359.0" y="692.6842105263158"/>
      <point x="376.57894736842104" y="678.3684210526316" type="curve"/>
      <point x="403.36842105263156" y="748.3684210526316" type="line"/>
      <point x="373.89473684210526" y="765.5263157894736"/>
      <point x="339.57894736842104" y="772.5263157894736"/>
    </contour>
  </outline>
</glyph>
<glyph name="g" format="2">
  <advance width="477.0"/>
  <unicode hex="0067"/>
  <note>
g
</note>
  <anchor x="233.42105263157896" y="497.0" name="top"/>
  <outline>
    <contour>
      <point x="219.1578947368421" y="510.2631578947368" type="curve" smooth="yes"/>
      <point x="121.63157894736842" y="510.2631578947368"/>
      <point x="37.68421052631579" y="437.63157894736844"/>
      <point x="37.68421052631579" y="337.6842105263158" type="curve" smooth="yes"/>
      <point x="37.68421052631579" y="277.3157894736842"/>
      <point x="69.36842105263158" y="225.1578947368421"/>
      <point x="119.73684210526316" y="193.57894736842104" type="curve"/>
      <point x="82.89473684210526" y="128.42105263157896"/>
      <point x="47.78947368421053" y="112.84210526315789"/>
      <point x="47.78947368421053" y="90.36842105263158" type="curve" smooth="yes"/>
      <point x="47.78947368421053" y="59.94736842105263"/>
      <point x="67.3157894736842" y="31.263157894736842"/>
      <point x="94.36842105263158" y="20.05263157894737" type="curve"/>
      <point x="94.36842105263158" y="16.63157894736842" type="line"/>
      <point x="50.26315789473684" y="-7.842105263157896"/>
      <point x="12.157894736842106" y="-50.631578947368425"/>
      <point x="12.157894736842106" y="-104.42105263157895" type="curve" smooth="yes"/>
      <point x="12.157894736842106" y="-202.78947368421052"/>
      <point x="123.47368421052632" y="-230.0"/>
      <point x="200.0" y="-230.0" type="curve" smooth="yes"/>
      <point x="325.1578947368421" y="-230.0"/>
      <point x="463.7368421052632" y="-171.05263157894737"/>
      <point x="463.7368421052632" y="-24.736842105263158" type="curve" smooth="yes"/>
      <point x="463.7368421052632" y="73.57894736842105"/>
      <point x="372.94736842105266" y="83.47368421052632"/>
      <point x="298.05263157894734" y="83.47368421052632" type="curve" smooth="yes"/>
      <point x="222.5263157894737" y="83.47368421052632" type="line" smooth="yes"/>
      <point x="190.31578947368422" y="83.47368421052632"/>
      <point x="152.68421052631578" y="83.57894736842105"/>
      <point x="152.68421052631578" y="117.21052631578948" type="curve" smooth="yes"/>
      <point x="152.68421052631578" y="149.0"/>
      <point x="179.1578947368421" y="166.8421052631579"/>
      <point x="208.94736842105263" y="166.8421052631579" type="curve" smooth="yes"/>
      <point x="322.5263157894737" y="166.8421052631579"/>
      <point x="399.7894736842105" y="238.31578947368422"/>
      <point x="399.7894736842105" y="341.0" type="curve" smooth="yes"/>
      <point x="399.7894736842105" y="375.0"/>
      <point x="388.7894736842105" y="406.4736842105263"/>
      <point x="366.63157894736844" y="435.7894736842105" type="curve"/>
      <point x="374.7894736842105" y="434.36842105263156"/>
      <point x="384.94736842105266" y="432.5263157894737"/>
      <point x="393.10526315789474" y="432.5263157894737" type="curve" smooth="yes"/>
      <point x="475.2105263157895" y="432.5263157894737" type="line"/>
      <point x="494.89473684210526" y="509.1578947368421" type="line"/>
      <point x="436.89473684210526" y="502.42105263157896"/>
      <point x="382.2631578947368" y="495.8421052631579"/>
      <point x="327.89473684210526" y="495.8421052631579" type="curve" smooth="yes"/>
      <point x="291.3157894736842" y="495.8421052631579"/>
      <point x="258.8421052631579" y="510.2631578947368"/>
    </contour>
    <contour>
      <point x="219.31578947368422" y="443.94736842105266" type="curve" smooth="yes"/>
      <point x="263.94736842105266" y="443.94736842105266"/>
      <point x="297.7894736842105" y="396.63157894736844"/>
      <point x="297.7894736842105" y="336.42105263157896" type="curve" smooth="yes"/>
      <point x="297.7894736842105" y="274.4736842105263"/>
      <point x="266.8421052631579" y="229.89473684210526"/>
      <point x="218.73684210526315" y="229.89473684210526" type="curve" smooth="yes"/>
      <point x="174.10526315789474" y="229.89473684210526"/>
      <point x="140.68421052631578" y="276.7894736842105"/>
      <point x="140.68421052631578" y="337.0" type="curve" smooth="yes"/>
      <point x="140.68421052631578" y="396.63157894736844"/>
      <point x="174.10526315789474" y="443.94736842105266"/>
    </contour>
    <contour>
      <point x="163.4736842105263" y="-0.5789473684210527" type="curve"/>
      <point x="271.2631578947368" y="-0.5789473684210527" type="line" smooth="yes"/>
      <point x="312.4736842105263" y="-0.5789473684210527"/>
      <point x="371.1578947368421" y="-2.5789473684210527"/>
      <point x="371.1578947368421" y="-52.89473684210526" type="curve" smooth="yes"/>
      <point x="371.1578947368421" y="-132.6315789473684"/>
      <point x="281.63157894736844" y="-154.42105263157896"/>
      <point x="215.0" y="-154.42105263157896" type="curve" smooth="yes"/>
      <point x="172.94736842105263" y="-154.42105263157896"/>
      <point x="113.3157894736842" y="-133.05263157894737"/>
      <point x="113.3157894736842" y="-84.89473684210526" type="curve" smooth="yes"/>
      <point x="113.3157894736842" y="-53.473684210526315"/>
      <point x="137.05263157894737" y="-17.894736842105264"/>
    </contour>
  </outline>
</glyph>
<glyph name="h" format="2">
  <advance width="547.0"/>
  <unicode hex="0068"/>
  <note>
h
</note>
  <anchor x="271.36842105263156" y="0.0" name="bottom"/>
  <anchor x="178.1578947368421" y="607.0" name="center"/>
  <anchor x="125.36842105263158" y="729.6842105263158" name="top"/>
  <outline>
    <contour>
      <point x="174.52631578947367" y="764.9473684210526" type="line"/>
      <point x="64.36842105263158" y="764.9473684210526" type="line"/>
      <point x="76.94736842105263" y="708.0526315789474" type="line"/>
      <point x="76.94736842105263" y="0.0" type="line"/>
      <point x="174.52631578947367" y="0.0" type="line"/>
      <point x="174.52631578947367" y="366.2105263157895" type="line"/>
      <point x="204.78947368421052" y="393.8421052631579"/>
      <point x="257.7368421052632" y="427.57894736842104"/>
      <point x="299.3157894736842" y="427.57894736842104" type="curve" smooth="yes"/>
      <point x="369.4736842105263" y="427.57894736842104"/>
      <point x="373.89473684210526" y="368.2631578947368"/>
      <point x="373.89473684210526" y="313.57894736842104" type="curve" smooth="yes"/>
      <point x="373.89473684210526" y="0.0" type="line"/>
      <point x="472.3157894736842" y="0.0" type="line"/>
      <point x="472.3157894736842" y="334.2631578947368" type="line" smooth="yes"/>
      <point x="472.3157894736842" y="437.6842105263158"/>
      <point x="434.6842105263158" y="510.42105263157896"/>
      <point x="322.57894736842104" y="510.42105263157896" type="curve" smooth="yes"/>
      <point x="265.9473684210526" y="510.42105263157896"/>
      <point x="215.26315789473685" y="479.6842105263158"/>
      <point x="174.52631578947367" y="443.05263157894734" type="curve"/>
    </contour>
  </outline>
</glyph>
<glyph name="i" format="2">
  <advance width="251.0"/>
  <unicode hex="0069"/>
  <note>
i
</note>
  <anchor x="126.0" y="0.0" name="bottom"/>
  <anchor x="126.57894736842105" y="0.0" name="ogonek"/>
  <outline>
    <contour>
      <point x="192.1578947368421" y="669.8947368421053" type="curve" smooth="yes"/>
      <point x="192.1578947368421" y="706.6842105263158"/>
      <point x="161.6315789473684" y="737.2105263157895"/>
      <point x="124.84210526315789" y="737.2105263157895" type="curve" smooth="yes"/>
      <point x="88.05263157894737" y="737.2105263157895"/>
      <point x="57.68421052631579" y="706.6842105263158"/>
      <point x="57.68421052631579" y="669.8947368421053" type="curve" smooth="yes"/>
      <point x="57.68421052631579" y="633.1052631578947"/>
      <point x="88.05263157894737" y="602.1578947368421"/>
      <point x="124.84210526315789" y="602.1578947368421" type="curve" smooth="yes"/>
      <point x="162.21052631578948" y="602.1578947368421"/>
      <point x="192.1578947368421" y="632.5263157894736"/>
    </contour>
    <contour>
      <point x="174.57894736842104" y="497.0" type="line"/>
      <point x="64.42105263157895" y="497.0" type="line"/>
      <point x="76.0" y="440.10526315789474" type="line"/>
      <point x="76.0" y="0.0" type="line"/>
      <point x="174.57894736842104" y="0.0" type="line"/>
    </contour>
  </outline>
</glyph>
<glyph name="j" format="2">
  <advance width="251.0"/>
  <unicode hex="006A"/>
  <note>
j
</note>
  <outline>
    <contour>
      <point x="192.89473684210526" y="669.8947368421053" type="curve" smooth="yes"/>
      <point x="192.89473684210526" y="706.6842105263158"/>
      <point x="162.3684210526316" y="737.2105263157895"/>
      <point x="125.57894736842105" y="737.2105263157895" type="curve" smooth="yes"/>
      <point x="88.78947368421052" y="737.2105263157895"/>
      <point x="57.8421052631579" y="706.6842105263158"/>
      <point x="57.8421052631579" y="669.8947368421053" type="curve" smooth="yes"/>
      <point x="57.8421052631579" y="632.5263157894736"/>
      <point x="88.21052631578948" y="602.1578947368421"/>
      <point x="125.57894736842105" y="602.1578947368421" type="curve" smooth="yes"/>
      <point x="162.94736842105263" y="602.1578947368421"/>
      <point x="192.89473684210526" y="632.5263157894736"/>
    </contour>
    <contour>
      <point x="174.57894736842104" y="497.0" type="line"/>
      <point x="63.421052631578945" y="497.0" type="line"/>
      <point x="76.0" y="440.5263157894737" type="line"/>
      <point x="76.0" y="24.36842105263158" type="line" smooth="yes"/>
      <point x="76.0" y="-49.31578947368421"/>
      <point x="76.0" y="-140.73684210526315"/>
      <point x="1.7368421052631575" y="-180.0" type="curve"/>
      <point x="19.105263157894736" y="-226.31578947368422" type="line"/>
      <point x="156.1578947368421" y="-208.89473684210526"/>
      <point x="174.57894736842104" y="-71.10526315789474"/>
      <point x="174.57894736842104" y="42.26315789473684" type="curve" smooth="yes"/>
    </contour>
  </outline>
</glyph>
<glyph name="k" format="2">
  <advance width="464.0"/>
  <unicode hex="006B"/>
  <note>
k
</note>
  <anchor x="255.89473684210526" y="0.0" name="bottom"/>
  <outline>
    <contour>
      <point x="175.3684210526316" y="764.9473684210526" type="line"/>
      <point x="62.526315789473685" y="764.9473684210526" type="line"/>
      <point x="75.52631578947368" y="708.0526315789474" type="line"/>
      <point x="75.52631578947368" y="0.0" type="line"/>
      <point x="175.3684210526316" y="0.0" type="line"/>
      <point x="175.3684210526316" y="263.6842105263158" type="line"/>
      <point x="362.36842105263156" y="0.0" type="line"/>
      <point x="476.5263157894737" y="0.0" type="line"/>
      <point x="270.3157894736842" y="287.57894736842104" type="line"/>
      <point x="448.6842105263158" y="497.0" type="line"/>
      <point x="347.89473684210526" y="497.0" type="line"/>
      <point x="175.3684210526316" y="292.0" type="line"/>
    </contour>
  </outline>
</glyph>
<glyph name="l" format="2">
  <advance width="251.0"/>
  <unicode hex="006C"/>
  <note>
l
</note>
  <anchor x="126.0" y="0.0" name="bottom"/>
  <anchor x="126.0" y="371.0" name="center"/>
  <anchor x="122.0" y="729.6842105263158" name="top"/>
  <anchor x="32.94736842105263" y="528.2631578947369" name="topright"/>
  <outline>
    <contour>
      <point x="174.57894736842104" y="764.9473684210526" type="line"/>
      <point x="63.0" y="764.9473684210526" type="line"/>
      <point x="75.15789473684211" y="708.6315789473684" type="line"/>
      <point x="75.15789473684211" y="0.0" type="line"/>
      <point x="174.57894736842104" y="0.0" type="line"/>
    </contour>
  </outline>
</glyph>
<glyph name="m" format="2">
  <advance width="829.0"/>
  <unicode hex="006D"/>
  <note>
m
</note>
  <outline>
    <contour>
      <point x="152.05263157894737" y="505.6842105263158" type="curve"/>
      <point x="46.31578947368421" y="493.57894736842104" type="line"/>
      <point x="69.15789473684211" y="460.5263157894737"/>
      <point x="77.89473684210526" y="397.36842105263156"/>
      <point x="77.89473684210526" y="358.89473684210526" type="curve" smooth="yes"/>
      <point x="77.89473684210526" y="0.0" type="line"/>
      <point x="176.4736842105263" y="0.0" type="line"/>
      <point x="176.4736842105263" y="365.63157894736844" type="line"/>
      <point x="204.52631578947367" y="392.7894736842105"/>
      <point x="251.73684210526315" y="427.0"/>
      <point x="291.94736842105266" y="427.0" type="curve" smooth="yes"/>
      <point x="358.57894736842104" y="427.0"/>
      <point x="366.5263157894737" y="371.05263157894734"/>
      <point x="366.5263157894737" y="317.63157894736844" type="curve" smooth="yes"/>
      <point x="366.5263157894737" y="0.0" type="line"/>
      <point x="465.5263157894737" y="0.0" type="line"/>
      <point x="465.5263157894737" y="364.89473684210526" type="line"/>
      <point x="493.1578947368421" y="392.5263157894737"/>
      <point x="539.4736842105264" y="427.0"/>
      <point x="580.578947368421" y="427.0" type="curve" smooth="yes"/>
      <point x="648.3157894736842" y="427.0"/>
      <point x="656.421052631579" y="371.7368421052632"/>
      <point x="656.421052631579" y="316.36842105263156" type="curve" smooth="yes"/>
      <point x="656.421052631579" y="0.0" type="line"/>
      <point x="755.0" y="0.0" type="line"/>
      <point x="755.0" y="334.94736842105266" type="line" smooth="yes"/>
      <point x="755.0" y="435.8421052631579"/>
      <point x="718.0526315789474" y="509.42105263157896"/>
      <point x="608.0526315789474" y="509.42105263157896" type="curve" smooth="yes"/>
      <point x="547.5263157894736" y="509.42105263157896"/>
      <point x="492.2105263157895" y="472.7368421052632"/>
      <point x="450.10526315789474" y="430.63157894736844" type="curve"/>
      <point x="424.63157894736844" y="486.10526315789474"/>
      <point x="378.7894736842105" y="509.42105263157896"/>
      <point x="318.57894736842104" y="509.42105263157896" type="curve" smooth="yes"/>
      <point x="260.9473684210526" y="509.42105263157896"/>
      <point x="210.42105263157896" y="475.89473684210526"/>
      <point x="170.21052631578948" y="438.7894736842105" type="curve"/>
      <point x="167.21052631578948" y="460.94736842105266"/>
      <point x="161.05263157894737" y="485.10526315789474"/>
    </contour>
  </outline>
</glyph>
<glyph name="n" format="2">
  <advance width="547.0"/>
  <unicode hex="006E"/>
  <note>
n
</note>
  <anchor x="275.5263157894737" y="0.0" name="bottom"/>
  <anchor x="281.42105263157896" y="497.0" name="top"/>
  <anchor x="86.52631578947368" y="497.0" name="topright"/>
  <outline>
    <contour>
      <point x="151.05263157894737" y="506.2631578947368" type="curve"/>
      <point x="45.31578947368421" y="493.0" type="line"/>
      <point x="69.89473684210526" y="461.10526315789474"/>
      <point x="77.47368421052632" y="391.57894736842104"/>
      <point x="77.47368421052632" y="353.6842105263158" type="curve" smooth="yes"/>
      <point x="77.47368421052632" y="0.0" type="line"/>
      <point x="175.4736842105263" y="0.0" type="line"/>
      <point x="175.4736842105263" y="365.63157894736844" type="line"/>
      <point x="204.57894736842104" y="394.42105263157896"/>
      <point x="258.6842105263158" y="427.0"/>
      <point x="299.6842105263158" y="427.0" type="curve" smooth="yes"/>
      <point x="370.42105263157896" y="427.0"/>
      <point x="374.8421052631579" y="368.2631578947368"/>
      <point x="374.8421052631579" y="313.0" type="curve" smooth="yes"/>
      <point x="374.8421052631579" y="0.0" type="line"/>
      <point x="473.2631578947368" y="0.0" type="line"/>
      <point x="473.2631578947368" y="333.6842105263158" type="line" smooth="yes"/>
      <point x="473.2631578947368" y="437.10526315789474"/>
      <point x="435.05263157894734" y="509.8421052631579"/>
      <point x="322.9473684210526" y="509.8421052631579" type="curve" smooth="yes"/>
      <point x="266.2105263157895" y="509.8421052631579"/>
      <point x="209.21052631578948" y="476.5263157894737"/>
      <point x="169.21052631578948" y="438.2105263157895" type="curve"/>
      <point x="166.21052631578948" y="460.94736842105266"/>
      <point x="160.05263157894737" y="484.5263157894737"/>
    </contour>
  </outline>
</glyph>
<glyph name="o" format="2">
  <advance width="536.578947368421"/>
  <unicode hex="006F"/>
  <note>
o
</note>
  <anchor x="268.2631578947368" y="0.0" name="bottom"/>
  <anchor x="266.2631578947368" y="252.0" name="center"/>
  <anchor x="309.2631578947368" y="0.0" name="ogonek"/>
  <anchor x="266.2631578947368" y="497.0" name="top"/>
  <anchor x="294.2631578947368" y="497.0" name="topright"/>
  <outline>
    <contour>
      <point x="265.0" y="-12.578947368421053" type="curve" smooth="yes"/>
      <point x="414.2631578947368" y="-12.578947368421053"/>
      <point x="500.1578947368421" y="112.05263157894737"/>
      <point x="500.1578947368421" y="251.42105263157896" type="curve" smooth="yes"/>
      <point x="500.1578947368421" y="390.7894736842105"/>
      <point x="420.2631578947368" y="509.42105263157896"/>
      <point x="271.0" y="509.42105263157896" type="curve" smooth="yes"/>
      <point x="124.3157894736842" y="509.42105263157896"/>
      <point x="36.421052631578945" y="383.2105263157895"/>
      <point x="36.421052631578945" y="245.42105263157896" type="curve" smooth="yes"/>
      <point x="36.421052631578945" y="106.63157894736842"/>
      <point x="116.3157894736842" y="-12.578947368421053"/>
    </contour>
    <contour>
      <point x="266.0" y="57.578947368421055" type="curve" smooth="yes"/>
      <point x="168.94736842105263" y="57.578947368421055"/>
      <point x="142.94736842105263" y="170.21052631578948"/>
      <point x="142.94736842105263" y="248.0" type="curve" smooth="yes"/>
      <point x="142.94736842105263" y="326.6842105263158"/>
      <point x="172.05263157894737" y="438.42105263157896"/>
      <point x="270.0" y="438.42105263157896" type="curve" smooth="yes"/>
      <point x="371.2105263157895" y="438.42105263157896"/>
      <point x="393.63157894736844" y="329.94736842105266"/>
      <point x="393.63157894736844" y="248.0" type="curve" smooth="yes"/>
      <point x="393.63157894736844" y="168.05263157894737"/>
      <point x="365.7894736842105" y="57.578947368421055"/>
    </contour>
  </outline>
</glyph>
<glyph name="p" format="2">
  <advance width="556.0"/>
  <unicode hex="0070"/>
  <note>
p
</note>
  <outline>
    <contour>
      <point x="148.52631578947367" y="505.6842105263158" type="curve"/>
      <point x="44.94736842105263" y="493.0" type="line"/>
      <point x="67.52631578947368" y="458.6842105263158"/>
      <point x="75.10526315789474" y="393.42105263157896"/>
      <point x="75.10526315789474" y="354.10526315789474" type="curve" smooth="yes"/>
      <point x="75.10526315789474" y="-216.42105263157896" type="line"/>
      <point x="187.52631578947367" y="-216.42105263157896" type="line"/>
      <point x="173.52631578947367" y="-159.10526315789474" type="line"/>
      <point x="173.52631578947367" y="-25.57894736842105" type="line" smooth="yes"/>
      <point x="173.52631578947367" y="-12.894736842105264"/>
      <point x="173.52631578947367" y="8.789473684210527"/>
      <point x="171.52631578947367" y="27.789473684210527" type="curve"/>
      <point x="202.42105263157896" y="0.5789473684210527"/>
      <point x="250.8421052631579" y="-11.736842105263158"/>
      <point x="291.2105263157895" y="-11.736842105263158" type="curve" smooth="yes"/>
      <point x="442.89473684210526" y="-11.736842105263158"/>
      <point x="518.421052631579" y="112.3157894736842"/>
      <point x="518.421052631579" y="252.26315789473685" type="curve" smooth="yes"/>
      <point x="518.421052631579" y="378.94736842105266"/>
      <point x="450.3157894736842" y="509.2631578947368"/>
      <point x="308.4736842105263" y="509.2631578947368" type="curve" smooth="yes"/>
      <point x="255.68421052631578" y="509.2631578947368"/>
      <point x="198.31578947368422" y="483.36842105263156"/>
      <point x="165.8421052631579" y="441.05263157894734" type="curve"/>
      <point x="162.8421052631579" y="462.7894736842105"/>
      <point x="157.26315789473685" y="484.94736842105266"/>
    </contour>
    <contour>
      <point x="280.10526315789474" y="429.5263157894737" type="curve" smooth="yes"/>
      <point x="378.94736842105266" y="429.5263157894737"/>
      <point x="412.3157894736842" y="330.2631578947368"/>
      <point x="412.3157894736842" y="246.68421052631578" type="curve" smooth="yes"/>
      <point x="412.3157894736842" y="166.68421052631578"/>
      <point x="383.6842105263158" y="63.421052631578945"/>
      <point x="285.8421052631579" y="63.421052631578945" type="curve" smooth="yes"/>
      <point x="203.05263157894737" y="63.421052631578945"/>
      <point x="173.52631578947367" y="130.0"/>
      <point x="173.52631578947367" y="203.52631578947367" type="curve" smooth="yes"/>
      <point x="173.52631578947367" y="369.42105263157896" type="line"/>
      <point x="198.1578947368421" y="401.1578947368421"/>
      <point x="238.31578947368422" y="429.5263157894737"/>
    </contour>
  </outline>
</glyph>
<glyph name="q" format="2">
  <advance width="556.0"/>
  <unicode hex="0071"/>
  <note>
q
</note>
  <outline>
    <contour>
      <point x="261.57894736842104" y="509.0" type="curve" smooth="yes"/>
      <point x="112.15789473684211" y="509.0"/>
      <point x="36.8421052631579" y="382.94736842105266"/>
      <point x="36.8421052631579" y="245.42105263157896" type="curve" smooth="yes"/>
      <point x="36.8421052631579" y="124.52631578947368"/>
      <point x="104.42105263157895" y="-11.578947368421053"/>
      <point x="241.73684210526315" y="-11.578947368421053" type="curve" smooth="yes"/>
      <point x="296.7894736842105" y="-11.578947368421053"/>
      <point x="343.1578947368421" y="6.842105263157895"/>
      <point x="383.89473684210526" y="43.31578947368421" type="curve"/>
      <point x="382.7368421052632" y="19.315789473684212"/>
      <point x="381.3157894736842" y="1.8947368421052628"/>
      <point x="381.3157894736842" y="-30.94736842105263" type="curve" smooth="yes"/>
      <point x="381.3157894736842" y="-216.42105263157896" type="line"/>
      <point x="493.3157894736842" y="-216.42105263157896" type="line"/>
      <point x="492.3157894736842" y="-211.42105263157896"/>
      <point x="480.3157894736842" y="-161.10526315789474"/>
      <point x="480.3157894736842" y="-159.10526315789474" type="curve" smooth="yes"/>
      <point x="480.3157894736842" y="430.10526315789474" type="line" smooth="yes"/>
      <point x="480.3157894736842" y="452.6842105263158"/>
      <point x="481.89473684210526" y="474.42105263157896"/>
      <point x="483.3157894736842" y="497.0" type="curve"/>
      <point x="428.2631578947368" y="497.0" type="line"/>
      <point x="409.0" y="442.7368421052632" type="line"/>
      <point x="372.57894736842104" y="487.1578947368421"/>
      <point x="318.8421052631579" y="509.0"/>
    </contour>
    <contour>
      <point x="265.57894736842104" y="438.42105263157896" type="curve" smooth="yes"/>
      <point x="351.2631578947368" y="438.42105263157896"/>
      <point x="381.3157894736842" y="371.57894736842104"/>
      <point x="381.3157894736842" y="294.7368421052632" type="curve" smooth="yes"/>
      <point x="381.3157894736842" y="119.21052631578948" type="line"/>
      <point x="355.0" y="88.3157894736842"/>
      <point x="311.63157894736844" y="66.73684210526315"/>
      <point x="271.1578947368421" y="66.73684210526315" type="curve" smooth="yes"/>
      <point x="176.73684210526315" y="66.73684210526315"/>
      <point x="143.10526315789474" y="167.73684210526315"/>
      <point x="143.10526315789474" y="246.31578947368422" type="curve" smooth="yes"/>
      <point x="143.10526315789474" y="325.05263157894734"/>
      <point x="171.4736842105263" y="438.42105263157896"/>
    </contour>
  </outline>
</glyph>
<glyph name="r" format="2">
  <advance width="349.0"/>
  <unicode hex="0072"/>
  <note>
r
</note>
  <anchor x="125.52631578947368" y="0.0" name="bottom"/>
  <anchor x="175.3684210526316" y="497.0" name="top"/>
  <outline>
    <contour>
      <point x="149.10526315789474" y="506.42105263157896" type="curve"/>
      <point x="43.526315789473685" y="495.8421052631579" type="line"/>
      <point x="66.94736842105263" y="462.6842105263158"/>
      <point x="75.52631578947368" y="399.8421052631579"/>
      <point x="75.52631578947368" y="361.2631578947368" type="curve" smooth="yes"/>
      <point x="75.52631578947368" y="0.0" type="line"/>
      <point x="174.10526315789474" y="0.0" type="line"/>
      <point x="174.10526315789474" y="315.6842105263158" type="line"/>
      <point x="211.05263157894737" y="370.7368421052632"/>
      <point x="254.4736842105263" y="405.36842105263156"/>
      <point x="316.36842105263156" y="405.36842105263156" type="curve"/>
      <point x="336.36842105263156" y="506.42105263157896" type="line"/>
      <point x="269.9473684210526" y="506.42105263157896"/>
      <point x="206.68421052631578" y="463.2105263157895"/>
      <point x="172.52631578947367" y="408.36842105263156" type="curve"/>
      <point x="170.3684210526316" y="440.63157894736844"/>
      <point x="161.94736842105263" y="476.57894736842104"/>
    </contour>
  </outline>
</glyph>
<glyph name="s" format="2">
  <advance width="430.0"/>
  <unicode hex="0073"/>
  <note>
s
</note>
  <anchor x="224.1578947368421" y="0.0" name="bottom"/>
  <anchor x="217.73684210526315" y="497.0" name="top"/>
  <outline>
    <contour>
      <point x="242.31578947368422" y="509.42105263157896" type="curve" smooth="yes"/>
      <point x="148.89473684210526" y="509.42105263157896"/>
      <point x="57.8421052631579" y="460.0"/>
      <point x="57.8421052631579" y="359.7894736842105" type="curve" smooth="yes"/>
      <point x="57.8421052631579" y="271.57894736842104"/>
      <point x="123.36842105263158" y="241.94736842105263"/>
      <point x="184.21052631578948" y="215.47368421052633" type="curve" smooth="yes"/>
      <point x="233.68421052631578" y="193.8421052631579"/>
      <point x="280.36842105263156" y="174.52631578947367"/>
      <point x="280.36842105263156" y="127.47368421052632" type="curve" smooth="yes"/>
      <point x="280.36842105263156" y="81.15789473684211"/>
      <point x="240.1578947368421" y="58.84210526315789"/>
      <point x="193.78947368421052" y="58.84210526315789" type="curve" smooth="yes"/>
      <point x="154.5263157894737" y="58.84210526315789"/>
      <point x="114.21052631578948" y="76.52631578947368"/>
      <point x="81.36842105263158" y="98.84210526315789" type="curve"/>
      <point x="43.0" y="29.0" type="line"/>
      <point x="88.84210526315789" y="2.4210526315789473"/>
      <point x="149.05263157894737" y="-13.421052631578947"/>
      <point x="202.05263157894737" y="-13.421052631578947" type="curve" smooth="yes"/>
      <point x="297.0" y="-13.421052631578947"/>
      <point x="384.89473684210526" y="38.1578947368421"/>
      <point x="384.89473684210526" y="141.68421052631578" type="curve" smooth="yes"/>
      <point x="384.89473684210526" y="242.57894736842104"/>
      <point x="302.36842105263156" y="270.2105263157895"/>
      <point x="237.21052631578948" y="298.6842105263158" type="curve" smooth="yes"/>
      <point x="195.57894736842104" y="317.1578947368421"/>
      <point x="161.78947368421052" y="334.4736842105263"/>
      <point x="161.78947368421052" y="377.1578947368421" type="curve" smooth="yes"/>
      <point x="161.78947368421052" y="419.2105263157895"/>
      <point x="201.42105263157896" y="438.8421052631579"/>
      <point x="243.68421052631578" y="438.8421052631579" type="curve" smooth="yes"/>
      <point x="278.2631578947368" y="438.8421052631579"/>
      <point x="316.2631578947368" y="426.42105263157896"/>
      <point x="344.42105263157896" y="403.6842105263158" type="curve"/>
      <point x="378.89473684210526" y="476.10526315789474" type="line"/>
      <point x="339.2105263157895" y="498.8421052631579"/>
      <point x="287.7368421052632" y="509.42105263157896"/>
    </contour>
  </outline>
</glyph>
<glyph name="t" format="2">
  <advance width="327.0"/>
  <unicode hex="0074"/>
  <note>
t
</note>
  <anchor x="175.78947368421052" y="0.0" name="bottom"/>
  <anchor x="141.78947368421052" y="264.0" name="center"/>
  <anchor x="64.78947368421052" y="497.0" name="topright"/>
  <outline>
    <contour>
      <point x="208.3684210526316" y="640.2631578947369" type="curve"/>
      <point x="137.26315789473685" y="640.2631578947369" type="line"/>
      <point x="124.0" y="574.7368421052631"/>
      <point x="92.6842105263158" y="486.0"/>
      <point x="12.421052631578949" y="484.0" type="curve"/>
      <point x="12.421052631578949" y="427.2631578947368" type="line"/>
      <point x="89.78947368421052" y="427.2631578947368" type="line"/>
      <point x="89.78947368421052" y="117.15789473684211" type="line" smooth="yes"/>
      <point x="89.78947368421052" y="32.631578947368425"/>
      <point x="123.0" y="-10.578947368421053"/>
      <point x="208.42105263157896" y="-10.578947368421053" type="curve" smooth="yes"/>
      <point x="245.57894736842104" y="-10.578947368421053"/>
      <point x="281.57894736842104" y="-1.736842105263158"/>
      <point x="315.42105263157896" y="8.68421052631579" type="curve"/>
      <point x="301.42105263157896" y="72.6842105263158" type="line"/>
      <point x="281.0" y="67.6842105263158"/>
      <point x="259.0" y="62.68421052631579"/>
      <point x="237.57894736842104" y="62.68421052631579" type="curve" smooth="yes"/>
      <point x="195.8421052631579" y="62.68421052631579"/>
      <point x="189.21052631578948" y="95.10526315789474"/>
      <point x="189.21052631578948" y="127.36842105263158" type="curve" smooth="yes"/>
      <point x="189.21052631578948" y="427.2631578947368" type="line"/>
      <point x="297.57894736842104" y="427.2631578947368" type="line"/>
      <point x="315.42105263157896" y="497.0" type="line"/>
      <point x="189.21052631578948" y="497.0" type="line"/>
      <point x="190.78947368421052" y="543.8421052631579"/>
      <point x="198.3684210526316" y="594.421052631579"/>
    </contour>
  </outline>
</glyph>
<glyph name="u" format="2">
  <advance width="553.0"/>
  <unicode hex="0075"/>
  <note>
u
</note>
  <anchor x="275.57894736842104" y="0.0" name="bottom"/>
  <anchor x="482.0" y="2.1052631578947367" name="ogonek"/>
  <anchor x="273.57894736842104" y="497.0" name="top"/>
  <anchor x="318.4736842105263" y="506.57894736842104" name="topright"/>
  <outline>
    <contour>
      <point x="173.52631578947367" y="497.0" type="line"/>
      <point x="61.94736842105263" y="497.0" type="line"/>
      <point x="74.10526315789474" y="440.10526315789474" type="line"/>
      <point x="74.10526315789474" y="162.73684210526315" type="line" smooth="yes"/>
      <point x="74.10526315789474" y="59.31578947368421"/>
      <point x="112.73684210526315" y="-13.421052631578947"/>
      <point x="224.8421052631579" y="-13.421052631578947" type="curve" smooth="yes"/>
      <point x="283.94736842105266" y="-13.421052631578947"/>
      <point x="341.7894736842105" y="17.315789473684212"/>
      <point x="382.4736842105263" y="59.0" type="curve"/>
      <point x="391.3157894736842" y="8.421052631578947"/>
      <point x="423.6842105263158" y="-8.578947368421053"/>
      <point x="461.63157894736844" y="-8.578947368421053" type="curve" smooth="yes"/>
      <point x="493.57894736842104" y="-8.578947368421053"/>
      <point x="530.2631578947369" y="2.1052631578947367"/>
      <point x="557.6842105263158" y="16.684210526315788" type="curve"/>
      <point x="539.2631578947369" y="76.57894736842105" type="line"/>
      <point x="523.6842105263158" y="71.0"/>
      <point x="511.2631578947368" y="68.0"/>
      <point x="501.2631578947368" y="68.0" type="curve" smooth="yes"/>
      <point x="481.42105263157896" y="68.0"/>
      <point x="471.7368421052632" y="80.42105263157895"/>
      <point x="471.7368421052632" y="110.47368421052632" type="curve" smooth="yes"/>
      <point x="471.7368421052632" y="497.0" type="line"/>
      <point x="359.7368421052632" y="497.0" type="line"/>
      <point x="360.7368421052632" y="492.0"/>
      <point x="372.3157894736842" y="442.10526315789474"/>
      <point x="372.3157894736842" y="440.10526315789474" type="curve" smooth="yes"/>
      <point x="372.3157894736842" y="184.21052631578948" type="line" smooth="yes"/>
      <point x="372.3157894736842" y="115.36842105263158"/>
      <point x="314.7894736842105" y="69.84210526315789"/>
      <point x="248.94736842105263" y="69.84210526315789" type="curve" smooth="yes"/>
      <point x="180.52631578947367" y="69.84210526315789"/>
      <point x="173.52631578947367" y="133.68421052631578"/>
      <point x="173.52631578947367" y="187.21052631578948" type="curve" smooth="yes"/>
    </contour>
  </outline>
</glyph>
<glyph name="v" format="2">
  <advance width="455.0"/>
  <unicode hex="0076"/>
  <note>
v
</note>
  <outline>
    <contour>
      <point x="111.36842105263158" y="497.0" type="line"/>
      <point x="6.105263157894737" y="497.0" type="line"/>
      <point x="182.26315789473685" y="-5.157894736842105" type="line"/>
      <point x="271.7368421052632" y="-5.157894736842105" type="line"/>
      <point x="448.89473684210526" y="497.0" type="line"/>
      <point x="358.2631578947368" y="497.0" type="line"/>
      <point x="256.0" y="206.05263157894737" type="line" smooth="yes"/>
      <point x="247.57894736842104" y="181.3684210526316"/>
      <point x="242.26315789473685" y="157.0"/>
      <point x="235.52631578947367" y="126.68421052631578" type="curve"/>
      <point x="228.3684210526316" y="158.0"/>
      <point x="221.6315789473684" y="182.10526315789474"/>
      <point x="212.21052631578948" y="208.3684210526316" type="curve" smooth="yes"/>
    </contour>
  </outline>
</glyph>
<glyph name="w" format="2">
  <advance width="658.0"/>
  <unicode hex="0077"/>
  <note>
w
</note>
  <anchor x="337.7894736842105" y="497.0" name="top"/>
  <outline>
    <contour>
      <point x="105.3157894736842" y="497.0" type="line"/>
      <point x="2.473684210526317" y="497.0" type="line"/>
      <point x="149.89473684210526" y="-5.157894736842105" type="line"/>
      <point x="225.21052631578948" y="-5.157894736842105" type="line"/>
      <point x="261.36842105263156" y="108.73684210526316"/>
      <point x="298.1578947368421" y="207.6315789473684"/>
      <point x="327.57894736842104" y="337.10526315789474" type="curve"/>
      <point x="355.8421052631579" y="208.05263157894737"/>
      <point x="390.63157894736844" y="108.73684210526316"/>
      <point x="424.7894736842105" y="-5.157894736842105" type="curve"/>
      <point x="498.6842105263158" y="-5.157894736842105" type="line"/>
      <point x="656.1052631578947" y="497.0" type="line"/>
      <point x="569.8947368421053" y="497.0" type="line"/>
      <point x="488.4736842105263" y="234.94736842105263" type="line" smooth="yes"/>
      <point x="481.36842105263156" y="211.21052631578948"/>
      <point x="477.05263157894734" y="188.31578947368422"/>
      <point x="472.4736842105263" y="158.3684210526316" type="curve"/>
      <point x="467.4736842105263" y="188.31578947368422"/>
      <point x="464.1578947368421" y="211.21052631578948"/>
      <point x="457.05263157894734" y="234.94736842105263" type="curve" smooth="yes"/>
      <point x="378.4736842105263" y="497.0" type="line"/>
      <point x="297.57894736842104" y="497.0" type="line"/>
      <point x="214.57894736842104" y="233.78947368421052" type="line" smooth="yes"/>
      <point x="207.05263157894737" y="210.6315789473684"/>
      <point x="203.73684210526315" y="187.31578947368422"/>
      <point x="198.73684210526315" y="157.94736842105263" type="curve"/>
      <point x="194.1578947368421" y="187.89473684210526"/>
      <point x="190.42105263157896" y="211.21052631578948"/>
      <point x="183.31578947368422" y="234.94736842105263" type="curve" smooth="yes"/>
    </contour>
  </outline>
</glyph>
<glyph name="x" format="2">
  <advance width="446.0"/>
  <unicode hex="0078"/>
  <note>
x
</note>
  <outline>
    <contour>
      <point x="127.36842105263158" y="497.0" type="line"/>
      <point x="15.526315789473685" y="497.0" type="line"/>
      <point x="334.6842105263158" y="-0.5789473684210527" type="line"/>
      <point x="446.10526315789474" y="-0.5789473684210527" type="line"/>
    </contour>
    <contour>
      <point x="327.4736842105263" y="497.0" type="line"/>
      <point x="-0.10526315789473628" y="-0.5789473684210527" type="line"/>
      <point x="102.36842105263158" y="-0.5789473684210527" type="line"/>
      <point x="429.7894736842105" y="497.0" type="line"/>
    </contour>
  </outline>
</glyph>
<glyph name="y" format="2">
  <advance width="456.0"/>
  <unicode hex="0079"/>
  <note>
y
</note>
  <anchor x="341.6842105263158" y="0.0" name="bottom"/>
  <anchor x="233.68421052631578" y="497.0" name="top"/>
  <outline>
    <contour>
      <point x="112.52631578947368" y="497.0" type="curve"/>
      <point x="6.105263157894737" y="497.0" type="line"/>
      <point x="187.26315789473685" y="2.736842105263158" type="line"/>
      <point x="165.3684210526316" y="-60.31578947368421"/>
      <point x="131.31578947368422" y="-145.3684210526316"/>
      <point x="50.68421052631579" y="-145.3684210526316" type="curve" smooth="yes"/>
      <point x="44.578947368421055" y="-145.3684210526316"/>
      <point x="39.05263157894737" y="-144.94736842105263"/>
      <point x="33.368421052631575" y="-144.10526315789474" type="curve"/>
      <point x="33.368421052631575" y="-218.68421052631578" type="line"/>
      <point x="70.94736842105263" y="-218.68421052631578" type="line" smooth="yes"/>
      <point x="182.26315789473685" y="-218.68421052631578"/>
      <point x="241.3684210526316" y="-93.15789473684211"/>
      <point x="273.4736842105263" y="-2.4210526315789473" type="curve" smooth="yes"/>
      <point x="449.89473684210526" y="497.0" type="line"/>
      <point x="358.42105263157896" y="497.0" type="line"/>
      <point x="328.1578947368421" y="410.2105263157895"/>
      <point x="296.63157894736844" y="324.42105263157896"/>
      <point x="267.63157894736844" y="235.47368421052633" type="curve" smooth="yes"/>
      <point x="256.0" y="199.73684210526315"/>
      <point x="246.05263157894737" y="161.31578947368422"/>
      <point x="235.68421052631578" y="124.57894736842105" type="curve"/>
      <point x="224.89473684210526" y="160.73684210526315"/>
      <point x="215.3684210526316" y="199.73684210526315"/>
      <point x="203.73684210526315" y="235.47368421052633" type="curve" smooth="yes"/>
      <point x="174.31578947368422" y="324.42105263157896"/>
      <point x="142.78947368421052" y="410.2105263157895"/>
    </contour>
  </outline>
</glyph>
<glyph name="z" format="2">
  <advance width="445.0"/>
  <unicode hex="007A"/>
  <note>
z
</note>
  <anchor x="225.0" y="497.0" name="top"/>
  <outline>
    <contour>
      <point x="49.526315789473685" y="497.0" type="line"/>
      <point x="49.526315789473685" y="425.0" type="line"/>
      <point x="273.0" y="425.0" type="line"/>
      <point x="25.684210526315788" y="52.89473684210526" type="line"/>
      <point x="25.684210526315788" y="0.0" type="line"/>
      <point x="407.05263157894734" y="0.0" type="line"/>
      <point x="419.3157894736842" y="71.42105263157895" type="line"/>
      <point x="157.31578947368422" y="71.42105263157895" type="line"/>
      <point x="406.4736842105263" y="443.10526315789474" type="line"/>
      <point x="406.4736842105263" y="497.0" type="line"/>
    </contour>
  </outline>
</glyph>
<glyph name="braceleft" format="2">
  <advance width="349.0"/>
  <unicode hex="007B"/>
  <note>
braceleft
</note>
  <outline>
    <contour>
      <point x="270.7894736842105" y="-140.05263157894737" type="curve" smooth="yes"/>
      <point x="304.63157894736844" y="-140.05263157894737" type="line"/>
      <point x="304.63157894736844" y="-86.3157894736842" type="line"/>
      <point x="236.26315789473685" y="-86.3157894736842"/>
      <point x="215.6315789473684" y="-74.57894736842105"/>
      <point x="215.6315789473684" y="-4.631578947368421" type="curve" smooth="yes"/>
      <point x="215.6315789473684" y="168.31578947368422" type="line" smooth="yes"/>
      <point x="215.6315789473684" y="219.78947368421052"/>
      <point x="207.4736842105263" y="276.2105263157895"/>
      <point x="154.68421052631578" y="298.3157894736842" type="curve"/>
      <point x="207.4736842105263" y="320.42105263157896"/>
      <point x="216.05263157894737" y="377.8421052631579"/>
      <point x="216.05263157894737" y="429.3157894736842" type="curve" smooth="yes"/>
      <point x="216.05263157894737" y="597.6315789473684" type="line" smooth="yes"/>
      <point x="216.05263157894737" y="667.3684210526316"/>
      <point x="232.73684210526315" y="683.9473684210526"/>
      <point x="304.63157894736844" y="683.9473684210526" type="curve"/>
      <point x="304.63157894736844" y="737.2631578947369" type="line"/>
      <point x="267.05263157894734" y="737.2631578947369" type="line" smooth="yes"/>
      <point x="159.89473684210526" y="737.2631578947369"/>
      <point x="119.47368421052632" y="670.6315789473684"/>
      <point x="119.47368421052632" y="571.3157894736842" type="curve" smooth="yes"/>
      <point x="119.47368421052632" y="418.3157894736842" type="line" smooth="yes"/>
      <point x="119.47368421052632" y="375.57894736842104"/>
      <point x="109.94736842105263" y="324.6842105263158"/>
      <point x="55.473684210526315" y="324.6842105263158" type="curve"/>
      <point x="55.473684210526315" y="272.94736842105266" type="line"/>
      <point x="103.21052631578948" y="272.94736842105266"/>
      <point x="119.89473684210526" y="228.94736842105263"/>
      <point x="119.89473684210526" y="188.21052631578948" type="curve" smooth="yes"/>
      <point x="119.89473684210526" y="26.315789473684212" type="line" smooth="yes"/>
      <point x="119.89473684210526" y="-76.36842105263158"/>
      <point x="162.42105263157896" y="-140.05263157894737"/>
    </contour>
  </outline>
</glyph>
<glyph name="bar" format="2">
  <advance width="235.0"/>
  <unicode hex="007C"/>
  <note>
bar
</note>
  <outline>
    <contour>
      <point x="76.94736842105263" y="746.7368421052631" type="line"/>
      <point x="76.94736842105263" y="-110.78947368421052" type="line"/>
      <point x="159.31578947368422" y="-110.78947368421052" type="line"/>
      <point x="159.31578947368422" y="746.7368421052631" type="line"/>
    </contour>
  </outline>
</glyph>
<glyph name="braceright" format="2">
  <advance width="349.0"/>
  <unicode hex="007D"/>
  <note>
braceright
</note>
  <outline>
    <contour>
      <point x="78.78947368421052" y="737.2631578947369" type="curve" smooth="yes"/>
      <point x="44.94736842105263" y="737.2631578947369" type="line"/>
      <point x="44.94736842105263" y="683.5263157894736" type="line"/>
      <point x="113.3157894736842" y="683.5263157894736"/>
      <point x="133.94736842105263" y="671.7894736842105"/>
      <point x="133.94736842105263" y="601.8421052631579" type="curve" smooth="yes"/>
      <point x="133.94736842105263" y="428.89473684210526" type="line" smooth="yes"/>
      <point x="133.94736842105263" y="377.42105263157896"/>
      <point x="142.10526315789474" y="321.0"/>
      <point x="194.89473684210526" y="298.89473684210526" type="curve"/>
      <point x="142.10526315789474" y="276.7894736842105"/>
      <point x="133.5263157894737" y="219.3684210526316"/>
      <point x="133.5263157894737" y="167.89473684210526" type="curve" smooth="yes"/>
      <point x="133.5263157894737" y="-0.42105263157894735" type="line" smooth="yes"/>
      <point x="133.5263157894737" y="-70.15789473684211"/>
      <point x="116.84210526315789" y="-86.73684210526316"/>
      <point x="44.94736842105263" y="-86.73684210526316" type="curve"/>
      <point x="44.94736842105263" y="-140.05263157894737" type="line"/>
      <point x="82.52631578947368" y="-140.05263157894737" type="line" smooth="yes"/>
      <point x="189.68421052631578" y="-140.05263157894737"/>
      <point x="230.10526315789474" y="-73.42105263157895"/>
      <point x="230.10526315789474" y="25.894736842105264" type="curve" smooth="yes"/>
      <point x="230.10526315789474" y="178.89473684210526" type="line" smooth="yes"/>
      <point x="230.10526315789474" y="221.6315789473684"/>
      <point x="239.6315789473684" y="272.5263157894737"/>
      <point x="294.10526315789474" y="272.5263157894737" type="curve"/>
      <point x="294.10526315789474" y="324.2631578947368" type="line"/>
      <point x="246.3684210526316" y="324.2631578947368"/>
      <point x="229.68421052631578" y="368.2631578947368"/>
      <point x="229.68421052631578" y="409.0" type="curve" smooth="yes"/>
      <point x="229.68421052631578" y="570.8947368421053" type="line" smooth="yes"/>
      <point x="229.68421052631578" y="673.578947368421"/>
      <point x="187.1578947368421" y="737.2631578947369"/>
    </contour>
  </outline>
</glyph>
<glyph name="asciitilde" format="2">
  <advance width="663.0"/>
  <unicode hex="007E"/>
  <note>
asciitilde
</note>
  <outline>
    <contour>
      <point x="584.0526315789474" y="298.42105263157896" type="curve"/>
      <point x="527.421052631579" y="350.05263157894734" type="line"/>
      <point x="510.0" y="317.4736842105263"/>
      <point x="476.6842105263158" y="279.94736842105266"/>
      <point x="437.2631578947368" y="279.94736842105266" type="curve" smooth="yes"/>
      <point x="382.2631578947368" y="279.94736842105266"/>
      <point x="310.2631578947368" y="349.36842105263156"/>
      <point x="221.8421052631579" y="349.36842105263156" type="curve" smooth="yes"/>
      <point x="160.1578947368421" y="349.36842105263156"/>
      <point x="105.47368421052632" y="297.8421052631579"/>
      <point x="81.05263157894737" y="244.57894736842104" type="curve"/>
      <point x="139.10526315789474" y="195.94736842105263" type="line"/>
      <point x="154.10526315789474" y="227.5263157894737"/>
      <point x="183.8421052631579" y="268.05263157894734"/>
      <point x="221.8421052631579" y="268.05263157894734" type="curve" smooth="yes"/>
      <point x="297.57894736842104" y="268.05263157894734"/>
      <point x="357.42105263157896" y="198.6315789473684"/>
      <point x="437.2631578947368" y="198.6315789473684" type="curve" smooth="yes"/>
      <point x="494.94736842105266" y="198.6315789473684"/>
      <point x="554.2105263157895" y="252.57894736842104"/>
    </contour>
  </outline>
</glyph>
<glyph name="exclamdown" format="2">
  <advance width="329.0"/>
  <unicode hex="00A1"/>
  <note>
exclamdown
</note>
  <outline>
    <contour>
      <point x="229.4736842105263" y="-232.8421052631579" type="line"/>
      <point x="200.4736842105263" y="279.0" type="line"/>
      <point x="128.42105263157896" y="279.0" type="line"/>
      <point x="99.42105263157895" y="-232.8421052631579" type="line"/>
    </contour>
    <contour>
      <point x="94.36842105263158" y="440.05263157894734" type="curve" smooth="yes"/>
      <point x="94.36842105263158" y="401.94736842105266"/>
      <point x="126.05263157894737" y="370.6842105263158"/>
      <point x="164.1578947368421" y="370.6842105263158" type="curve" smooth="yes"/>
      <point x="202.42105263157896" y="370.6842105263158"/>
      <point x="233.52631578947367" y="401.7894736842105"/>
      <point x="233.52631578947367" y="440.05263157894734" type="curve" smooth="yes"/>
      <point x="233.52631578947367" y="478.1578947368421"/>
      <point x="201.8421052631579" y="509.42105263157896"/>
      <point x="164.1578947368421" y="509.42105263157896" type="curve" smooth="yes"/>
      <point x="126.05263157894737" y="509.42105263157896"/>
      <point x="94.36842105263158" y="478.1578947368421"/>
    </contour>
  </outline>
</glyph>
<glyph name="cent" format="2">
  <advance width="490.0"/>
  <unicode hex="00A2"/>
  <note>
cent
</note>
  <outline>
    <contour>
      <point x="284.36842105263156" y="485.42105263157896" type="curve" smooth="yes"/>
      <point x="159.1578947368421" y="485.42105263157896"/>
      <point x="64.84210526315789" y="392.3157894736842"/>
      <point x="64.84210526315789" y="251.31578947368422" type="curve" smooth="yes"/>
      <point x="64.84210526315789" y="106.52631578947368"/>
      <point x="145.31578947368422" y="11.421052631578947"/>
      <point x="273.6842105263158" y="11.421052631578947" type="curve" smooth="yes"/>
      <point x="332.05263157894734" y="11.421052631578947"/>
      <point x="375.6842105263158" y="25.42105263157895"/>
      <point x="428.36842105263156" y="55.1578947368421" type="curve"/>
      <point x="395.8421052631579" y="116.42105263157895" type="line"/>
      <point x="356.8421052631579" y="95.15789473684211"/>
      <point x="320.6842105263158" y="84.73684210526315"/>
      <point x="289.5263157894737" y="84.73684210526315" type="curve" smooth="yes"/>
      <point x="215.31578947368422" y="84.73684210526315"/>
      <point x="167.26315789473685" y="142.4736842105263"/>
      <point x="167.26315789473685" y="249.8421052631579" type="curve" smooth="yes"/>
      <point x="167.26315789473685" y="338.3157894736842"/>
      <point x="204.6315789473684" y="413.8421052631579"/>
      <point x="280.1578947368421" y="413.8421052631579" type="curve" smooth="yes"/>
      <point x="313.5263157894737" y="413.8421052631579"/>
      <point x="343.1578947368421" y="400.42105263157896"/>
      <point x="375.05263157894734" y="375.94736842105266" type="curve"/>
      <point x="421.94736842105266" y="440.6842105263158" type="line"/>
      <point x="380.3157894736842" y="470.1578947368421"/>
      <point x="328.94736842105266" y="485.42105263157896"/>
    </contour>
    <contour>
      <point x="272.1578947368421" y="37.21052631578947" type="line"/>
      <point x="218.57894736842104" y="37.21052631578947" type="line"/>
      <point x="176.31578947368422" y="-122.21052631578948" type="line"/>
      <point x="256.7368421052632" y="-122.21052631578948" type="line"/>
    </contour>
    <contour>
      <point x="253.1578947368421" y="465.4736842105263" type="line"/>
      <point x="309.57894736842104" y="465.4736842105263" type="line"/>
      <point x="349.1578947368421" y="616.2105263157895" type="line"/>
      <point x="266.7368421052632" y="616.2105263157895" type="line"/>
    </contour>
  </outline>
</glyph>
<glyph name="sterling" format="2">
  <advance width="581.0"/>
  <unicode hex="00A3"/>
  <note>
sterling
</note>
  <outline>
    <contour>
      <point x="46.73684210526316" y="82.05263157894737" type="line"/>
      <point x="46.73684210526316" y="0.0" type="line"/>
      <point x="543.421052631579" y="0.0" type="line"/>
      <point x="543.421052631579" y="82.05263157894737" type="line"/>
      <point x="251.0" y="82.05263157894737" type="line"/>
      <point x="251.0" y="509.36842105263156" type="line"/>
      <point x="251.0" y="570.3157894736842"/>
      <point x="282.4736842105263" y="620.421052631579"/>
      <point x="347.57894736842104" y="620.421052631579" type="curve" smooth="yes"/>
      <point x="393.57894736842104" y="620.421052631579"/>
      <point x="427.7368421052632" y="587.1578947368421"/>
      <point x="447.7368421052632" y="548.578947368421" type="curve"/>
      <point x="532.421052631579" y="595.6315789473684" type="line"/>
      <point x="490.63157894736844" y="662.1052631578947"/>
      <point x="427.7368421052632" y="700.7894736842105"/>
      <point x="348.57894736842104" y="700.7894736842105" type="curve" smooth="yes"/>
      <point x="225.6315789473684" y="700.7894736842105"/>
      <point x="139.73684210526315" y="629.5263157894736"/>
      <point x="139.73684210526315" y="502.3157894736842" type="curve"/>
      <point x="139.73684210526315" y="82.05263157894737" type="line"/>
    </contour>
    <contour>
      <point x="63.31578947368421" y="292.10526315789474" type="line"/>
      <point x="403.3157894736842" y="292.10526315789474" type="line"/>
      <point x="413.3157894736842" y="362.5263157894737" type="line"/>
      <point x="73.3157894736842" y="362.5263157894737" type="line"/>
    </contour>
  </outline>
</glyph>
<glyph name="currency" format="2">
  <advance width="536.0"/>
  <unicode hex="00A4"/>
  <note>
currency
</note>
  <outline>
    <contour>
      <point x="266.0" y="460.10526315789474" type="curve" smooth="yes"/>
      <point x="223.68421052631578" y="460.10526315789474"/>
      <point x="184.94736842105263" y="445.7894736842105"/>
      <point x="153.3684210526316" y="421.4736842105263" type="curve"/>
      <point x="100.21052631578948" y="475.63157894736844" type="line"/>
      <point x="42.78947368421053" y="418.2105263157895" type="line"/>
      <point x="99.36842105263158" y="361.2105263157895" type="line"/>
      <point x="81.05263157894737" y="329.05263157894734"/>
      <point x="70.3157894736842" y="291.7368421052632"/>
      <point x="70.3157894736842" y="252.0" type="curve" smooth="yes"/>
      <point x="70.3157894736842" y="211.68421052631578"/>
      <point x="81.05263157894737" y="174.3684210526316"/>
      <point x="98.78947368421052" y="142.78947368421052" type="curve"/>
      <point x="42.78947368421053" y="87.21052631578948" type="line"/>
      <point x="100.21052631578948" y="29.789473684210527" type="line"/>
      <point x="152.3684210526316" y="81.94736842105263" type="line"/>
      <point x="184.52631578947367" y="57.631578947368425"/>
      <point x="223.68421052631578" y="43.31578947368421"/>
      <point x="266.0" y="43.31578947368421" type="curve" smooth="yes"/>
      <point x="307.7368421052632" y="43.31578947368421"/>
      <point x="347.4736842105263" y="57.05263157894737"/>
      <point x="379.05263157894734" y="81.94736842105263" type="curve"/>
      <point x="432.2105263157895" y="29.789473684210527" type="line"/>
      <point x="489.63157894736844" y="86.63157894736842" type="line"/>
      <point x="432.05263157894734" y="142.6315789473684" type="line"/>
      <point x="450.36842105263156" y="174.3684210526316"/>
      <point x="462.10526315789474" y="211.10526315789474"/>
      <point x="462.10526315789474" y="252.0" type="curve" smooth="yes"/>
      <point x="462.10526315789474" y="291.3157894736842"/>
      <point x="450.36842105263156" y="329.05263157894734"/>
      <point x="432.05263157894734" y="361.2105263157895" type="curve"/>
      <point x="489.63157894736844" y="418.2105263157895" type="line"/>
      <point x="432.2105263157895" y="475.63157894736844" type="line"/>
      <point x="378.05263157894734" y="422.05263157894734" type="line"/>
      <point x="346.4736842105263" y="446.36842105263156"/>
      <point x="307.7368421052632" y="460.10526315789474"/>
    </contour>
    <contour>
      <point x="266.42105263157896" y="389.42105263157896" type="curve" smooth="yes"/>
      <point x="333.89473684210526" y="389.42105263157896"/>
      <point x="380.42105263157896" y="327.7894736842105"/>
      <point x="380.42105263157896" y="252.8421052631579" type="curve" smooth="yes"/>
      <point x="380.42105263157896" y="163.57894736842104"/>
      <point x="324.10526315789474" y="114.0"/>
      <point x="266.0" y="114.0" type="curve" smooth="yes"/>
      <point x="210.1578947368421" y="114.0"/>
      <point x="152.57894736842104" y="165.0"/>
      <point x="152.57894736842104" y="252.0" type="curve" smooth="yes"/>
      <point x="152.57894736842104" y="329.63157894736844"/>
      <point x="200.3684210526316" y="389.42105263157896"/>
    </contour>
  </outline>
</glyph>
<glyph name="yen" format="2">
  <advance width="604.0"/>
  <unicode hex="00A5"/>
  <note>
yen
</note>
  <outline>
    <contour>
      <point x="157.57894736842104" y="700.7894736842105" type="line"/>
      <point x="32.73684210526316" y="700.7894736842105" type="line"/>
      <point x="248.47368421052633" y="319.7368421052632" type="line"/>
      <point x="248.47368421052633" y="0.0" type="line"/>
      <point x="359.4736842105263" y="0.0" type="line"/>
      <point x="359.4736842105263" y="319.7368421052632" type="line"/>
      <point x="571.8421052631579" y="700.7894736842105" type="line"/>
      <point x="470.94736842105266" y="700.7894736842105" type="line"/>
      <point x="316.89473684210526" y="422.42105263157896" type="line"/>
    </contour>
    <contour>
      <point x="71.10526315789474" y="389.0" type="line"/>
      <point x="59.8421052631579" y="318.57894736842104" type="line"/>
      <point x="538.1578947368421" y="318.57894736842104" type="line"/>
      <point x="549.421052631579" y="389.0" type="line"/>
    </contour>
    <contour>
      <point x="71.52631578947368" y="251.31578947368422" type="line"/>
      <point x="59.8421052631579" y="180.89473684210526" type="line"/>
      <point x="538.1578947368421" y="180.89473684210526" type="line"/>
      <point x="549.8421052631579" y="251.31578947368422" type="line"/>
    </contour>
  </outline>
</glyph>
<glyph name="brokenbar" format="2">
  <advance width="238.0"/>
  <unicode hex="00A6"/>
  <note>
brokenbar
</note>
  <outline>
    <contour>
      <point x="78.10526315789474" y="743.2631578947369" type="line"/>
      <point x="78.10526315789474" y="392.57894736842104" type="line"/>
      <point x="158.73684210526315" y="392.57894736842104" type="line"/>
      <point x="158.73684210526315" y="743.2631578947369" type="line"/>
    </contour>
    <contour>
      <point x="78.10526315789474" y="234.68421052631578" type="line"/>
      <point x="78.10526315789474" y="-115.42105263157895" type="line"/>
      <point x="158.73684210526315" y="-115.42105263157895" type="line"/>
      <point x="158.73684210526315" y="234.68421052631578" type="line"/>
    </contour>
  </outline>
</glyph>
<glyph name="section" format="2">
  <advance width="498.36842105263156"/>
  <unicode hex="00A7"/>
  <note>
section
</note>
  <outline>
    <contour>
      <point x="42.89473684210526" y="332.4736842105263" type="curve" smooth="yes"/>
      <point x="42.89473684210526" y="147.1578947368421"/>
      <point x="303.7368421052632" y="139.6315789473684"/>
      <point x="303.7368421052632" y="17.52631578947368" type="curve" smooth="yes"/>
      <point x="303.7368421052632" y="-25.10526315789474"/>
      <point x="261.2631578947368" y="-54.421052631578945"/>
      <point x="207.6315789473684" y="-54.421052631578945" type="curve" smooth="yes"/>
      <point x="170.89473684210526" y="-54.421052631578945"/>
      <point x="128.57894736842104" y="-40.8421052631579"/>
      <point x="91.10526315789474" y="-9.0" type="curve"/>
      <point x="56.631578947368425" y="-81.42105263157895" type="line"/>
      <point x="105.05263157894737" y="-112.42105263157895"/>
      <point x="158.31578947368422" y="-126.42105263157895"/>
      <point x="208.57894736842104" y="-126.42105263157895" type="curve" smooth="yes"/>
      <point x="315.2105263157895" y="-126.42105263157895"/>
      <point x="407.6842105263158" y="-62.473684210526315"/>
      <point x="407.6842105263158" y="34.89473684210526" type="curve" smooth="yes"/>
      <point x="407.6842105263158" y="78.57894736842105"/>
      <point x="392.63157894736844" y="112.78947368421052"/>
      <point x="369.42105263157896" y="140.26315789473685" type="curve"/>
      <point x="424.0" y="162.6315789473684"/>
      <point x="463.0" y="208.57894736842104"/>
      <point x="463.0" y="277.7368421052632" type="curve" smooth="yes"/>
      <point x="463.0" y="463.05263157894734"/>
      <point x="202.1578947368421" y="470.57894736842104"/>
      <point x="202.1578947368421" y="592.6842105263158" type="curve" smooth="yes"/>
      <point x="202.1578947368421" y="635.3157894736842"/>
      <point x="244.6315789473684" y="664.6315789473684"/>
      <point x="298.2631578947368" y="664.6315789473684" type="curve" smooth="yes"/>
      <point x="335.0" y="664.6315789473684"/>
      <point x="377.3157894736842" y="651.0526315789474"/>
      <point x="414.7894736842105" y="619.2105263157895" type="curve"/>
      <point x="449.2631578947368" y="691.6315789473684" type="line"/>
      <point x="400.8421052631579" y="722.6315789473684"/>
      <point x="347.57894736842104" y="736.6315789473684"/>
      <point x="297.3157894736842" y="736.6315789473684" type="curve" smooth="yes"/>
      <point x="190.68421052631578" y="736.6315789473684"/>
      <point x="98.21052631578948" y="672.6842105263158"/>
      <point x="98.21052631578948" y="575.3157894736842" type="curve" smooth="yes"/>
      <point x="98.21052631578948" y="531.6315789473684"/>
      <point x="113.26315789473685" y="497.42105263157896"/>
      <point x="136.47368421052633" y="469.9473684210526" type="curve"/>
      <point x="81.89473684210526" y="447.57894736842104"/>
      <point x="42.89473684210526" y="401.63157894736844"/>
    </contour>
    <contour>
      <point x="147.42105263157896" y="346.6842105263158" type="curve" smooth="yes"/>
      <point x="147.42105263157896" y="382.89473684210526"/>
      <point x="172.52631578947367" y="404.2105263157895"/>
      <point x="205.21052631578948" y="411.63157894736844" type="curve"/>
      <point x="277.2631578947368" y="365.0"/>
      <point x="358.4736842105263" y="332.5263157894737"/>
      <point x="358.4736842105263" y="263.5263157894737" type="curve" smooth="yes"/>
      <point x="358.4736842105263" y="227.31578947368422"/>
      <point x="333.36842105263156" y="206.0"/>
      <point x="300.6842105263158" y="198.57894736842104" type="curve"/>
      <point x="228.6315789473684" y="245.21052631578948"/>
      <point x="147.42105263157896" y="277.6842105263158"/>
    </contour>
  </outline>
</glyph>
<glyph name="dieresis" format="2">
  <advance width="284.8421052631579"/>
  <unicode hex="00A8"/>
  <note>
dieresis
</note>
  <anchor x="142.6315789473684" y="497.0" name="_top"/>
  <outline>
    <contour>
      <point x="118.47368421052632" y="654.8947368421053" type="curve" smooth="yes"/>
      <point x="118.47368421052632" y="688.1578947368421"/>
      <point x="92.21052631578948" y="714.421052631579"/>
      <point x="58.94736842105263" y="714.421052631579" type="curve" smooth="yes"/>
      <point x="26.263157894736842" y="714.421052631579"/>
      <point x="0.0" y="687.578947368421"/>
      <point x="0.0" y="654.8947368421053" type="curve" smooth="yes"/>
      <point x="0.0" y="622.2105263157895"/>
      <point x="26.263157894736842" y="595.3684210526316"/>
      <point x="58.94736842105263" y="595.3684210526316" type="curve" smooth="yes"/>
      <point x="91.63157894736842" y="595.3684210526316"/>
      <point x="118.47368421052632" y="622.2105263157895"/>
    </contour>
    <contour>
      <point x="284.8421052631579" y="654.8947368421053" type="curve" smooth="yes"/>
      <point x="284.8421052631579" y="688.1578947368421"/>
      <point x="258.1578947368421" y="714.421052631579"/>
      <point x="224.89473684210526" y="714.421052631579" type="curve" smooth="yes"/>
      <point x="192.6315789473684" y="714.421052631579"/>
      <point x="165.94736842105263" y="687.1578947368421"/>
      <point x="165.94736842105263" y="654.8947368421053" type="curve" smooth="yes"/>
      <point x="165.94736842105263" y="622.6315789473684"/>
      <point x="192.6315789473684" y="595.3684210526316"/>
      <point x="224.89473684210526" y="595.3684210526316" type="curve" smooth="yes"/>
      <point x="257.57894736842104" y="595.3684210526316"/>
      <point x="284.8421052631579" y="622.2105263157895"/>
    </contour>
  </outline>
</glyph>
<glyph name="copyright" format="2">
  <advance width="635.6842105263158"/>
  <unicode hex="00A9"/>
  <note>
copyright
</note>
  <outline>
    <contour>
      <point x="591.9473684210526" y="250.0" type="curve" smooth="yes"/>
      <point x="591.9473684210526" y="400.2631578947368"/>
      <point x="468.10526315789474" y="524.1052631578947"/>
      <point x="317.8421052631579" y="524.1052631578947" type="curve" smooth="yes"/>
      <point x="166.57894736842104" y="524.1052631578947"/>
      <point x="43.73684210526316" y="401.2631578947368"/>
      <point x="43.73684210526316" y="250.0" type="curve" smooth="yes"/>
      <point x="43.73684210526316" y="98.73684210526316"/>
      <point x="166.57894736842104" y="-24.105263157894736"/>
      <point x="317.8421052631579" y="-24.105263157894736" type="curve" smooth="yes"/>
      <point x="468.10526315789474" y="-24.105263157894736"/>
      <point x="591.9473684210526" y="99.73684210526316"/>
    </contour>
    <contour>
      <point x="552.5263157894736" y="250.0" type="curve" smooth="yes"/>
      <point x="552.5263157894736" y="120.73684210526316"/>
      <point x="447.10526315789474" y="15.31578947368421"/>
      <point x="317.8421052631579" y="15.31578947368421" type="curve" smooth="yes"/>
      <point x="188.57894736842104" y="15.31578947368421"/>
      <point x="83.15789473684211" y="120.73684210526316"/>
      <point x="83.15789473684211" y="250.0" type="curve" smooth="yes"/>
      <point x="83.15789473684211" y="379.2631578947368"/>
      <point x="188.57894736842104" y="484.6842105263158"/>
      <point x="317.8421052631579" y="484.6842105263158" type="curve" smooth="yes"/>
      <point x="447.10526315789474" y="484.6842105263158"/>
      <point x="552.5263157894736" y="379.2631578947368"/>
    </contour>
    <contour>
      <point x="437.63157894736844" y="116.05263157894737" type="curve"/>
      <point x="406.57894736842104" y="167.89473684210526" type="line"/>
      <point x="383.36842105263156" y="149.4736842105263"/>
      <point x="363.5263157894737" y="137.78947368421052"/>
      <point x="333.05263157894734" y="137.78947368421052" type="curve" smooth="yes"/>
      <point x="272.3157894736842" y="137.78947368421052"/>
      <point x="249.10526315789474" y="203.57894736842104"/>
      <point x="249.10526315789474" y="253.89473684210526" type="curve" smooth="yes"/>
      <point x="249.10526315789474" y="300.10526315789474"/>
      <point x="271.4736842105263" y="364.5263157894737"/>
      <point x="327.10526315789474" y="364.5263157894737" type="curve" smooth="yes"/>
      <point x="357.0" y="364.5263157894737"/>
      <point x="374.42105263157896" y="355.8421052631579"/>
      <point x="396.7368421052632" y="337.5263157894737" type="curve"/>
      <point x="432.63157894736844" y="383.10526315789474" type="line"/>
      <point x="405.05263157894734" y="401.94736842105266"/>
      <point x="367.6842105263158" y="416.94736842105266"/>
      <point x="334.6842105263158" y="416.94736842105266" type="curve" smooth="yes"/>
      <point x="236.57894736842104" y="416.94736842105266"/>
      <point x="174.6315789473684" y="347.5263157894737"/>
      <point x="174.6315789473684" y="250.57894736842104" type="curve" smooth="yes"/>
      <point x="174.6315789473684" y="157.3684210526316"/>
      <point x="228.47368421052633" y="84.63157894736842"/>
      <point x="326.2631578947368" y="84.63157894736842" type="curve" smooth="yes"/>
      <point x="373.10526315789474" y="84.63157894736842"/>
      <point x="397.7894736842105" y="94.47368421052632"/>
    </contour>
  </outline>
</glyph>
<glyph name="ordfeminine" format="2">
  <advance width="315.0"/>
  <unicode hex="00AA"/>
  <note>
ordfeminine
</note>
  <outline>
    <contour>
      <point x="313.8421052631579" y="408.3157894736842" type="curve"/>
      <point x="299.8421052631579" y="448.8421052631579" type="line"/>
      <point x="290.42105263157896" y="445.8421052631579"/>
      <point x="281.8421052631579" y="443.2631578947368"/>
      <point x="274.8421052631579" y="443.2631578947368" type="curve" smooth="yes"/>
      <point x="262.3157894736842" y="443.2631578947368"/>
      <point x="254.4736842105263" y="450.94736842105266"/>
      <point x="254.4736842105263" y="472.4736842105263" type="curve" smooth="yes"/>
      <point x="254.4736842105263" y="620.8421052631579" type="line" smooth="yes"/>
      <point x="254.4736842105263" y="692.6315789473684"/>
      <point x="215.0" y="729.578947368421"/>
      <point x="144.57894736842104" y="729.578947368421" type="curve" smooth="yes"/>
      <point x="97.0" y="729.578947368421"/>
      <point x="53.89473684210526" y="715.0"/>
      <point x="15.631578947368421" y="685.6842105263158" type="curve"/>
      <point x="48.631578947368425" y="634.8421052631579" type="line"/>
      <point x="70.47368421052632" y="655.1578947368421"/>
      <point x="107.21052631578948" y="675.1578947368421"/>
      <point x="137.21052631578948" y="675.1578947368421" type="curve" smooth="yes"/>
      <point x="172.5263157894737" y="675.1578947368421"/>
      <point x="185.57894736842104" y="656.0526315789474"/>
      <point x="185.57894736842104" y="622.7894736842105" type="curve" smooth="yes"/>
      <point x="185.57894736842104" y="591.578947368421" type="line"/>
      <point x="105.47368421052632" y="591.0"/>
      <point x="4.526315789473685" y="572.1578947368421"/>
      <point x="4.526315789473685" y="476.0" type="curve" smooth="yes"/>
      <point x="4.526315789473685" y="422.0"/>
      <point x="43.78947368421053" y="386.57894736842104"/>
      <point x="98.89473684210526" y="386.57894736842104" type="curve" smooth="yes"/>
      <point x="134.8421052631579" y="386.57894736842104"/>
      <point x="166.8421052631579" y="401.57894736842104"/>
      <point x="193.3684210526316" y="427.94736842105266" type="curve"/>
      <point x="201.52631578947367" y="399.8421052631579"/>
      <point x="221.78947368421052" y="388.0"/>
      <point x="247.1578947368421" y="388.0" type="curve" smooth="yes"/>
      <point x="267.7368421052632" y="388.0"/>
      <point x="291.1578947368421" y="396.1578947368421"/>
    </contour>
    <contour>
      <point x="185.57894736842104" y="537.0" type="curve"/>
      <point x="185.57894736842104" y="520.0526315789474" type="line" smooth="yes"/>
      <point x="185.57894736842104" y="483.2105263157895"/>
      <point x="156.31578947368422" y="445.2631578947368"/>
      <point x="117.57894736842105" y="445.2631578947368" type="curve" smooth="yes"/>
      <point x="95.47368421052632" y="445.2631578947368"/>
      <point x="77.26315789473684" y="458.94736842105266"/>
      <point x="77.26315789473684" y="480.5263157894737" type="curve" smooth="yes"/>
      <point x="77.26315789473684" y="534.1578947368421"/>
      <point x="145.68421052631578" y="537.0"/>
    </contour>
    <contour>
      <point x="25.789473684210527" y="329.42105263157896" type="line"/>
      <point x="25.789473684210527" y="276.05263157894734" type="line"/>
      <point x="273.2105263157895" y="276.05263157894734" type="line"/>
      <point x="273.2105263157895" y="329.42105263157896" type="line"/>
    </contour>
  </outline>
</glyph>
<glyph name="guillemetleft" format="2">
  <advance width="466.0"/>
  <unicode hex="00AB"/>
  <note>
guillemotleft
</note>
  <outline>
    <contour>
      <point x="47.0" y="334.3157894736842" type="line"/>
      <point x="198.3684210526316" y="168.3684210526316" type="line"/>
      <point x="265.10526315789474" y="178.21052631578948" type="line"/>
      <point x="144.8421052631579" y="334.3157894736842" type="line"/>
      <point x="262.10526315789474" y="488.8421052631579" type="line"/>
      <point x="194.3684210526316" y="501.10526315789474" type="line"/>
    </contour>
    <contour>
      <point x="203.42105263157896" y="334.3157894736842" type="line"/>
      <point x="355.36842105263156" y="168.3684210526316" type="line"/>
      <point x="421.9473684210526" y="178.21052631578948" type="line"/>
      <point x="301.8421052631579" y="334.3157894736842" type="line"/>
      <point x="419.5263157894737" y="488.8421052631579" type="line"/>
      <point x="351.36842105263156" y="501.10526315789474" type="line"/>
    </contour>
  </outline>
</glyph>
<glyph name="logicalnot" format="2">
  <advance width="638.0"/>
  <unicode hex="00AC"/>
  <note>
logicalnot
</note>
  <outline>
    <contour>
      <point x="494.7368421052632" y="273.94736842105266" type="line"/>
      <point x="494.7368421052632" y="84.78947368421052" type="line"/>
      <point x="566.2631578947369" y="84.78947368421052" type="line"/>
      <point x="566.2631578947369" y="343.63157894736844" type="line"/>
      <point x="71.15789473684211" y="343.63157894736844" type="line"/>
      <point x="71.15789473684211" y="273.94736842105266" type="line"/>
    </contour>
  </outline>
</glyph>
<glyph name="registered" format="2">
  <advance width="466.1578947368421"/>
  <unicode hex="00AE"/>
  <note>
registered
</note>
  <outline>
    <contour>
      <point x="436.63157894736844" y="605.9473684210526" type="curve" smooth="yes"/>
      <point x="436.63157894736844" y="718.4736842105264"/>
      <point x="344.5263157894737" y="809.421052631579"/>
      <point x="232.57894736842104" y="809.421052631579" type="curve" smooth="yes"/>
      <point x="120.05263157894737" y="809.421052631579"/>
      <point x="29.526315789473685" y="718.4736842105264"/>
      <point x="29.526315789473685" y="605.9473684210526" type="curve" smooth="yes"/>
      <point x="29.526315789473685" y="493.42105263157896"/>
      <point x="120.05263157894737" y="402.4736842105263"/>
      <point x="232.57894736842104" y="402.4736842105263" type="curve" smooth="yes"/>
      <point x="344.5263157894737" y="402.4736842105263"/>
      <point x="436.63157894736844" y="493.42105263157896"/>
    </contour>
    <contour>
      <point x="402.7894736842105" y="605.9473684210526" type="curve" smooth="yes"/>
      <point x="402.7894736842105" y="512.421052631579"/>
      <point x="326.10526315789474" y="436.7368421052632"/>
      <point x="232.57894736842104" y="436.7368421052632" type="curve" smooth="yes"/>
      <point x="139.47368421052633" y="436.7368421052632"/>
      <point x="63.368421052631575" y="512.421052631579"/>
      <point x="63.368421052631575" y="605.9473684210526" type="curve" smooth="yes"/>
      <point x="63.368421052631575" y="699.4736842105264"/>
      <point x="139.47368421052633" y="775.1578947368421"/>
      <point x="232.57894736842104" y="775.1578947368421" type="curve" smooth="yes"/>
      <point x="326.10526315789474" y="775.1578947368421"/>
      <point x="402.7894736842105" y="699.0526315789474"/>
    </contour>
    <contour>
      <point x="149.89473684210526" y="723.3157894736842" type="line"/>
      <point x="149.89473684210526" y="494.10526315789474" type="line"/>
      <point x="204.10526315789474" y="494.10526315789474" type="line"/>
      <point x="204.10526315789474" y="590.1052631578947" type="line"/>
      <point x="218.73684210526315" y="590.1052631578947" type="line"/>
      <point x="284.1578947368421" y="494.10526315789474" type="line"/>
      <point x="348.7894736842105" y="494.10526315789474" type="line"/>
      <point x="275.36842105263156" y="599.3684210526316" type="line"/>
      <point x="299.5263157894737" y="608.7894736842105"/>
      <point x="320.10526315789474" y="629.2105263157895"/>
      <point x="320.10526315789474" y="657.2105263157895" type="curve" smooth="yes"/>
      <point x="320.10526315789474" y="709.8947368421053"/>
      <point x="282.42105263157896" y="723.3157894736842"/>
      <point x="240.0" y="723.3157894736842" type="curve" smooth="yes"/>
    </contour>
    <contour>
      <point x="204.10526315789474" y="682.1052631578947" type="line"/>
      <point x="233.0" y="682.1052631578947" type="line" smooth="yes"/>
      <point x="252.0" y="682.1052631578947"/>
      <point x="265.89473684210526" y="674.5263157894736"/>
      <point x="265.89473684210526" y="659.2105263157895" type="curve" smooth="yes"/>
      <point x="265.89473684210526" y="638.3157894736842"/>
      <point x="250.57894736842104" y="631.3157894736842"/>
      <point x="226.0" y="631.3157894736842" type="curve" smooth="yes"/>
      <point x="204.10526315789474" y="631.3157894736842" type="line"/>
    </contour>
  </outline>
</glyph>
<glyph name="macron" format="2">
  <advance width="300.2105263157895"/>
  <unicode hex="00AF"/>
  <note>
macron
</note>
  <anchor x="150.89473684210526" y="497.0" name="_top"/>
  <outline>
    <contour>
      <point x="0.0" y="689.0" type="line"/>
      <point x="0.0" y="620.7894736842105" type="line"/>
      <point x="300.2105263157895" y="620.7894736842105" type="line"/>
      <point x="300.2105263157895" y="689.0" type="line"/>
    </contour>
  </outline>
</glyph>
<glyph name="degree" format="2">
  <advance width="387.57894736842104"/>
  <unicode hex="00B0"/>
  <note>
degree
</note>
  <outline>
    <contour>
      <point x="193.57894736842104" y="740.8947368421053" type="curve" smooth="yes"/>
      <point x="111.84210526315789" y="740.8947368421053"/>
      <point x="45.68421052631579" y="674.7368421052631"/>
      <point x="45.68421052631579" y="593.0" type="curve" smooth="yes"/>
      <point x="45.68421052631579" y="511.2631578947368"/>
      <point x="111.84210526315789" y="445.10526315789474"/>
      <point x="193.57894736842104" y="445.10526315789474" type="curve" smooth="yes"/>
      <point x="275.7368421052632" y="445.10526315789474"/>
      <point x="341.89473684210526" y="510.8421052631579"/>
      <point x="341.89473684210526" y="593.0" type="curve" smooth="yes"/>
      <point x="341.89473684210526" y="675.1578947368421"/>
      <point x="275.3157894736842" y="740.8947368421053"/>
    </contour>
    <contour>
      <point x="193.57894736842104" y="679.2105263157895" type="curve" smooth="yes"/>
      <point x="241.05263157894737" y="679.2105263157895"/>
      <point x="277.2105263157895" y="639.8947368421053"/>
      <point x="277.2105263157895" y="593.0" type="curve" smooth="yes"/>
      <point x="277.2105263157895" y="546.1052631578947"/>
      <point x="241.47368421052633" y="506.7894736842105"/>
      <point x="193.57894736842104" y="506.7894736842105" type="curve" smooth="yes"/>
      <point x="145.68421052631578" y="506.7894736842105"/>
      <point x="109.78947368421052" y="546.1052631578947"/>
      <point x="109.78947368421052" y="593.0" type="curve" smooth="yes"/>
      <point x="109.78947368421052" y="639.8947368421053"/>
      <point x="146.10526315789474" y="679.2105263157895"/>
    </contour>
  </outline>
</glyph>
<glyph name="plusminus" format="2">
  <advance width="632.0"/>
  <unicode hex="00B1"/>
  <note>
plusminus
</note>
  <outline>
    <contour>
      <point x="355.36842105263156" y="106.6842105263158" type="line"/>
      <point x="355.36842105263156" y="264.10526315789474" type="line"/>
      <point x="566.1578947368421" y="264.10526315789474" type="line"/>
      <point x="566.1578947368421" y="340.42105263157896" type="line"/>
      <point x="355.36842105263156" y="340.42105263157896" type="line"/>
      <point x="355.36842105263156" y="496.42105263157896" type="line"/>
      <point x="277.7894736842105" y="496.42105263157896" type="line"/>
      <point x="277.7894736842105" y="340.0" type="line"/>
      <point x="67.57894736842105" y="340.0" type="line"/>
      <point x="67.57894736842105" y="263.6842105263158" type="line"/>
      <point x="277.7894736842105" y="263.6842105263158" type="line"/>
      <point x="277.7894736842105" y="106.6842105263158" type="line"/>
    </contour>
    <contour>
      <point x="67.57894736842105" y="77.0" type="line"/>
      <point x="67.57894736842105" y="-0.1578947368421053" type="line"/>
      <point x="566.1578947368421" y="-0.1578947368421053" type="line"/>
      <point x="566.1578947368421" y="77.0" type="line"/>
    </contour>
  </outline>
</glyph>
<glyph name="twosuperior" format="2">
  <advance width="455.0"/>
  <unicode hex="00B2"/>
  <note>
uni00B2
</note>
  <outline>
    <contour>
      <point x="51.68421052631579" y="479.1578947368421" type="curve"/>
      <point x="51.68421052631579" y="435.6842105263158" type="line"/>
      <point x="390.2631578947368" y="435.6842105263158" type="line"/>
      <point x="412.63157894736844" y="515.0526315789474" type="line"/>
      <point x="184.4736842105263" y="515.0526315789474" type="line" smooth="yes"/>
      <point x="184.4736842105263" y="515.0526315789474"/>
      <point x="397.36842105263156" y="653.9473684210526"/>
      <point x="397.36842105263156" y="802.2631578947369" type="curve" smooth="yes"/>
      <point x="397.36842105263156" y="866.4736842105264"/>
      <point x="354.89473684210526" y="930.9473684210526"/>
      <point x="245.31578947368422" y="930.9473684210526" type="curve" smooth="yes"/>
      <point x="133.78947368421052" y="930.9473684210526"/>
      <point x="64.57894736842105" y="864.0"/>
      <point x="64.57894736842105" y="864.0" type="curve"/>
      <point x="101.63157894736842" y="809.0" type="line"/>
      <point x="101.63157894736842" y="809.0"/>
      <point x="162.1578947368421" y="864.1052631578947"/>
      <point x="226.78947368421052" y="864.1052631578947" type="curve" smooth="yes"/>
      <point x="271.3157894736842" y="864.1052631578947"/>
      <point x="299.0526315789474" y="835.4736842105264"/>
      <point x="299.0526315789474" y="794.578947368421" type="curve" smooth="yes"/>
      <point x="299.0526315789474" y="672.0526315789474"/>
      <point x="51.68421052631579" y="479.1578947368421"/>
    </contour>
  </outline>
</glyph>
<glyph name="threesuperior" format="2">
  <advance width="455.0"/>
  <unicode hex="00B3"/>
  <note>
uni00B3
</note>
  <outline>
    <contour>
      <point x="56.68421052631579" y="482.42105263157896" type="curve"/>
      <point x="68.78947368421052" y="423.8421052631579" type="line"/>
      <point x="343.0" y="433.6842105263158"/>
      <point x="399.05263157894734" y="547.3157894736842"/>
      <point x="399.05263157894734" y="617.3684210526316" type="curve" smooth="yes"/>
      <point x="399.05263157894734" y="685.2105263157895"/>
      <point x="349.2631578947368" y="723.5263157894736"/>
      <point x="286.2631578947368" y="732.2105263157895" type="curve"/>
      <point x="333.2105263157895" y="749.6315789473684"/>
      <point x="377.05263157894734" y="784.2105263157895"/>
      <point x="377.05263157894734" y="839.2631578947369" type="curve" smooth="yes"/>
      <point x="377.05263157894734" y="910.9473684210526"/>
      <point x="306.10526315789474" y="930.9473684210526"/>
      <point x="243.1578947368421" y="930.9473684210526" type="curve" smooth="yes"/>
      <point x="182.05263157894737" y="930.9473684210526"/>
      <point x="107.36842105263158" y="903.2631578947369"/>
      <point x="61.10526315789474" y="866.421052631579" type="curve"/>
      <point x="97.73684210526316" y="814.1052631578947" type="line"/>
      <point x="129.1578947368421" y="839.5263157894736"/>
      <point x="182.1578947368421" y="864.1052631578947"/>
      <point x="225.42105263157896" y="864.1052631578947" type="curve" smooth="yes"/>
      <point x="261.2631578947368" y="864.1052631578947"/>
      <point x="286.57894736842104" y="849.3684210526316"/>
      <point x="286.57894736842104" y="822.1578947368421" type="curve" smooth="yes"/>
      <point x="286.57894736842104" y="760.578947368421"/>
      <point x="205.68421052631578" y="736.6842105263158"/>
      <point x="151.10526315789474" y="725.6842105263158" type="curve"/>
      <point x="160.3684210526316" y="674.0526315789474" type="line"/>
      <point x="160.3684210526316" y="674.0526315789474"/>
      <point x="175.94736842105263" y="676.0526315789474"/>
      <point x="195.3684210526316" y="676.0526315789474" type="curve" smooth="yes"/>
      <point x="241.73684210526315" y="676.0526315789474"/>
      <point x="304.7368421052632" y="669.7368421052631"/>
      <point x="304.7368421052632" y="608.9473684210526" type="curve" smooth="yes"/>
      <point x="304.7368421052632" y="539.8947368421053"/>
      <point x="218.0" y="490.42105263157896"/>
    </contour>
  </outline>
</glyph>
<glyph name="acute" format="2">
  <advance width="281.0"/>
  <unicode hex="00B4"/>
  <note>
acute
</note>
  <anchor x="77.21052631578948" y="497.0" name="_top"/>
  <outline>
    <contour>
      <point x="133.31578947368422" y="733.8421052631579" type="line"/>
      <point x="31.842105263157894" y="576.3684210526316" type="line"/>
      <point x="120.36842105263158" y="576.3684210526316" type="line"/>
      <point x="265.0" y="733.8421052631579" type="line"/>
    </contour>
  </outline>
</glyph>
